<?xml version="1.0" encoding="UTF-8"?>
<svg width="14px" height="14px" viewBox="0 0 14 14" version="1.1" xmlns="http://www.w3.org/2000/svg" xmlns:xlink="http://www.w3.org/1999/xlink">
    <!-- Generator: Sketch 41.2 (35397) - http://www.bohemiancoding.com/sketch -->
    <title>Linkedin</title>
    <desc>Created with Sketch.</desc>
    <defs></defs>
    <g id="Website" stroke="none" stroke-width="1" fill="none" fill-rule="evenodd">
        <g id="Home" transform="translate(-1165.000000, -3654.000000)" fill="#0276B3">
            <g id="Footer" transform="translate(-11.000000, 3380.000000)">
                <g id="Linkedin" transform="translate(1176.000000, 274.000000)">
                    <polyline id="Path" points="0 14 0 4 3 4 3 14 0 14"></polyline>
                    <path d="M2.99940335,1.5 C3.02162116,2.33076923 2.42174049,3 1.46637497,3 C0.577662868,3 0,2.33076923 0,1.5 C0,0.646153846 0.599880671,0 1.51081058,0 C2.42174049,0 2.99940335,0.646153846 2.99940335,1.5" id="Path"></path>
                    <path d="M11.0607595,14 L11.0607595,8.57943925 C11.0607595,7.31775701 10.6506329,6.45327103 9.57974684,6.45327103 C8.78227848,6.45327103 8.30379747,7.03738318 8.07594937,7.59813084 C8.00759494,7.80841121 7.98481013,8.08878505 7.98481013,8.36915888 L7.98481013,14 L5.06835443,14 L5.06835443,7.3411215 C5.06835443,6.12616822 5.02278481,5.09813084 5,4.21028037 L7.52911392,4.21028037 L7.66582278,5.58878505 L7.71139241,5.58878505 C8.09873418,4.93457944 9.0556962,4 10.6278481,4 C12.5417722,4 14,5.3317757 14,8.22897196 L14,14 L11.0607595,14" id="Path"></path>
                </g>
            </g>
        </g>
    </g>
</svg>