<?xml version="1.0" encoding="UTF-8"?>
<svg width="16px" height="13px" viewBox="0 0 16 13" version="1.1" xmlns="http://www.w3.org/2000/svg" xmlns:xlink="http://www.w3.org/1999/xlink">
    <!-- Generator: Sketch 41.2 (35397) - http://www.bohemiancoding.com/sketch -->
    <title>Medium</title>
    <desc>Created with Sketch.</desc>
    <defs></defs>
    <g id="Website" stroke="none" stroke-width="1" fill="none" fill-rule="evenodd">
        <g id="Home" transform="translate(-1224.000000, -3656.000000)">
            <g id="Footer" transform="translate(-11.000000, 3380.000000)">
                <g id="Medium" transform="translate(1235.000000, 276.000000)">
                    <path d="M11.1084526,0.104762643 C10.8648666,-0.0113535869 10.6656627,0.105794787 10.6656627,0.365895141 L10.6656627,10.7100449 L15.1121402,12.8326496 C15.6013766,13.0700428 15.9982361,12.9048998 15.9982361,12.4713991 L15.9982361,2.51120699 C15.9982361,2.46992123 15.9724325,2.43379618 15.9342431,2.41315329 L11.1089687,0.111471581 L11.1089687,0.106310859 L11.1084526,0.104762643 L11.1084526,0.104762643 L11.1084526,0.104762643 Z" id="Shape" fill="#32FC8D"></path>
                    <path d="M5.33257334,8.16477719 L10.4055624,0.296225404 C10.5490304,0.0743143869 10.8648666,-0.0134178754 11.1074205,0.100117994 L15.9399199,2.40696043 C15.9708843,2.42244259 15.9822379,2.45856764 15.9641753,2.48437124 L10.6651467,10.7110771 L5.33257334,8.16580931 L5.33257334,8.16477719 L5.33257334,8.16477719 L5.33257334,8.16477719 Z" id="Shape" fill="#0BE370"></path>
                    <path d="M0.73798315,0.245134262 C0.332350453,0.0516072132 0.194559194,0.195591338 0.432468446,0.565098984 L5.33257334,8.16477719 L10.6651467,10.7100449 L5.34444299,2.45650334 C5.33670191,2.44463369 5.3258644,2.43482832 5.31347867,2.42863545 L0.73798315,0.245650334 L0.73798315,0.245134262 L0.73798315,0.245134262 L0.73798315,0.245134262 Z" id="Shape" fill="#14C767"></path>
                    <path d="M5.33257334,12.4672706 C5.33257334,12.9007711 5.00073896,13.0968786 4.59459019,12.9028354 L0.442789889,10.9211184 C0.199203843,10.8055183 0,10.4979393 0,10.2373229 L0,0.523813214 C0,0.177012741 0.265777147,0.0201268131 0.590902591,0.175464525 L5.30418937,2.42553902 C5.32173582,2.4332801 5.33257334,2.45031048 5.33257334,2.46888907 L5.33257334,12.4652062 L5.33257334,12.4672706 L5.33257334,12.4672706 L5.33257334,12.4672706 Z" id="Shape" fill="#00AB6C"></path>
                </g>
            </g>
        </g>
    </g>
</svg>