<?xml version="1.0" encoding="UTF-8"?>
<svg width="17px" height="13px" viewBox="0 0 17 13" version="1.1" xmlns="http://www.w3.org/2000/svg" xmlns:xlink="http://www.w3.org/1999/xlink">
    <!-- Generator: Sketch 41.2 (35397) - http://www.bohemiancoding.com/sketch -->
    <title>Twitter</title>
    <desc>Created with Sketch.</desc>
    <defs></defs>
    <g id="Website" stroke="none" stroke-width="1" fill="none" fill-rule="evenodd">
        <g id="Home" transform="translate(-1096.000000, -3656.000000)" fill="#56ACEE">
            <g id="Footer" transform="translate(-11.000000, 3380.000000)">
                <g id="Twitter" transform="translate(1107.000000, 276.000000)">
                    <path d="M17,1.53891474 C16.374509,1.79993519 15.702319,1.97634779 14.9967994,2.05568958 C15.7169318,1.64950175 16.2699184,1.00634176 16.5303376,0.240014763 C15.8564688,0.616069096 15.1100333,0.88920145 14.3155931,1.03641675 C13.6793445,0.398581318 12.7729141,0 11.7697904,0 C9.84357143,0 8.28192692,1.46940291 8.28192692,3.28180108 C8.28192692,3.53901826 8.31283146,3.78950661 8.37227767,4.02969691 C5.47359084,3.89283817 2.90366144,2.58627317 1.18345221,0.600739046 C0.883236401,1.0854495 0.711240355,1.64920919 0.711240355,2.25065038 C0.711240355,3.38922846 1.32703098,4.39375636 2.26287355,4.98226647 C1.69110794,4.96523958 1.15335601,4.81761471 0.6830718,4.57180729 C0.682823076,4.58549902 0.682823076,4.59924925 0.682823076,4.613058 C0.682823076,6.20317041 1.88505432,7.52962942 3.48058817,7.83108137 C3.18789641,7.90609333 2.87978346,7.9461738 2.56165917,7.9461738 C2.33693259,7.9461738 2.11842423,7.92563617 1.90551227,7.88731106 C2.34930685,9.19118458 3.63734957,10.1400094 5.16355024,10.1665151 C3.96990014,11.0467058 2.4660229,11.5713797 0.831998242,11.5713797 C0.550499287,11.5713797 0.272855627,11.5558741 0,11.5255651 C1.54348733,12.4567194 3.37680603,13 5.34642818,13 C11.7616445,13 15.2697172,7.99918532 15.2697172,3.66236081 C15.2697172,3.5200605 15.2663594,3.37852083 15.2596437,3.23780032 C15.9410366,2.77509024 16.5323896,2.19705371 17,1.53891474" id="Shape"></path>
                </g>
            </g>
        </g>
    </g>
</svg>