<?xml version="1.0" encoding="UTF-8"?>
<svg width="433px" height="217px" viewBox="0 0 433 217" version="1.1" xmlns="http://www.w3.org/2000/svg" xmlns:xlink="http://www.w3.org/1999/xlink">
    <!-- Generator: Sketch 41.2 (35397) - http://www.bohemiancoding.com/sketch -->
    <title>Product</title>
    <desc>Created with Sketch.</desc>
    <defs>
        <filter x="-50%" y="-50%" width="200%" height="200%" filterUnits="objectBoundingBox" id="filter-1">
            <feOffset dx="1" dy="3" in="SourceAlpha" result="shadowOffsetOuter1"></feOffset>
            <feGaussianBlur stdDeviation="5" in="shadowOffsetOuter1" result="shadowBlurOuter1"></feGaussianBlur>
            <feColorMatrix values="0 0 0 0 0   0 0 0 0 0   0 0 0 0 0  0 0 0 0.1 0" type="matrix" in="shadowBlurOuter1" result="shadowMatrixOuter1"></feColorMatrix>
            <feMerge>
                <feMergeNode in="shadowMatrixOuter1"></feMergeNode>
                <feMergeNode in="SourceGraphic"></feMergeNode>
            </feMerge>
        </filter>
        <polygon id="path-2" points="0 89.5009 48.884 89.5009 48.884 -0.0001 0 -0.0001"></polygon>
        <linearGradient x1="50%" y1="0%" x2="50%" y2="100%" id="linearGradient-4">
            <stop stop-color="#43595A" offset="0%"></stop>
            <stop stop-color="#1F2D2E" offset="100%"></stop>
        </linearGradient>
        <linearGradient x1="50%" y1="0%" x2="50%" y2="100%" id="linearGradient-5">
            <stop stop-color="#FE8D5F" offset="0%"></stop>
            <stop stop-color="#FF6340" offset="100%"></stop>
        </linearGradient>
        <filter x="-50%" y="-50%" width="200%" height="200%" filterUnits="objectBoundingBox" id="filter-6">
            <feOffset dx="1" dy="3" in="SourceAlpha" result="shadowOffsetOuter1"></feOffset>
            <feGaussianBlur stdDeviation="5" in="shadowOffsetOuter1" result="shadowBlurOuter1"></feGaussianBlur>
            <feColorMatrix values="0 0 0 0 0   0 0 0 0 0   0 0 0 0 0  0 0 0 0.1 0" type="matrix" in="shadowBlurOuter1" result="shadowMatrixOuter1"></feColorMatrix>
            <feMerge>
                <feMergeNode in="shadowMatrixOuter1"></feMergeNode>
                <feMergeNode in="SourceGraphic"></feMergeNode>
            </feMerge>
        </filter>
        <polygon id="path-7" points="0 71 39 71 39 0 0 0"></polygon>
        <filter x="-50%" y="-50%" width="200%" height="200%" filterUnits="objectBoundingBox" id="filter-9">
            <feOffset dx="1" dy="3" in="SourceAlpha" result="shadowOffsetOuter1"></feOffset>
            <feGaussianBlur stdDeviation="5" in="shadowOffsetOuter1" result="shadowBlurOuter1"></feGaussianBlur>
            <feColorMatrix values="0 0 0 0 0   0 0 0 0 0   0 0 0 0 0  0 0 0 0.1 0" type="matrix" in="shadowBlurOuter1" result="shadowMatrixOuter1"></feColorMatrix>
            <feMerge>
                <feMergeNode in="shadowMatrixOuter1"></feMergeNode>
                <feMergeNode in="SourceGraphic"></feMergeNode>
            </feMerge>
        </filter>
        <linearGradient x1="50%" y1="-245.640318%" x2="50%" y2="100%" id="linearGradient-10">
            <stop stop-color="#839C9F" offset="0%"></stop>
            <stop stop-color="#4C6366" offset="100%"></stop>
        </linearGradient>
        <linearGradient x1="50%" y1="0%" x2="50%" y2="100%" id="linearGradient-11">
            <stop stop-color="#A8C3C7" offset="0%"></stop>
            <stop stop-color="#6F9096" offset="100%"></stop>
        </linearGradient>
        <polygon id="path-12" points="13.9010148 0.188181818 0.0363481481 0.188181818 0.0363481481 5.81667273 13.9010148 5.81667273 13.9010148 0.188181818"></polygon>
        <filter x="-50%" y="-50%" width="200%" height="200%" filterUnits="objectBoundingBox" id="filter-14">
            <feOffset dx="1" dy="3" in="SourceAlpha" result="shadowOffsetOuter1"></feOffset>
            <feGaussianBlur stdDeviation="5" in="shadowOffsetOuter1" result="shadowBlurOuter1"></feGaussianBlur>
            <feColorMatrix values="0 0 0 0 0   0 0 0 0 0   0 0 0 0 0  0 0 0 0.1 0" type="matrix" in="shadowBlurOuter1" result="shadowMatrixOuter1"></feColorMatrix>
            <feMerge>
                <feMergeNode in="shadowMatrixOuter1"></feMergeNode>
                <feMergeNode in="SourceGraphic"></feMergeNode>
            </feMerge>
        </filter>
        <polygon id="path-15" points="0.11398625 104 48.8971612 104 48.8971612 0.426032941 0.11398625 0.426032941"></polygon>
        <polygon id="path-17" points="12.8338364 0.4398 0.175381818 0.4398 0.175381818 5.48196 12.8338364 5.48196"></polygon>
        <polygon id="path-19" points="0 153 50 153 50 1 0 1"></polygon>
        <linearGradient x1="50%" y1="0%" x2="50%" y2="100%" id="linearGradient-21">
            <stop stop-color="#B8EFFF" offset="0%"></stop>
            <stop stop-color="#82DAFF" offset="100%"></stop>
        </linearGradient>
        <linearGradient x1="50%" y1="-55.4797159%" x2="50%" y2="100%" id="linearGradient-22">
            <stop stop-color="#B9EFFF" offset="0%"></stop>
            <stop stop-color="#83DAFF" offset="100%"></stop>
        </linearGradient>
        <filter x="-50%" y="-50%" width="200%" height="200%" filterUnits="objectBoundingBox" id="filter-23">
            <feOffset dx="1" dy="3" in="SourceAlpha" result="shadowOffsetOuter1"></feOffset>
            <feGaussianBlur stdDeviation="5" in="shadowOffsetOuter1" result="shadowBlurOuter1"></feGaussianBlur>
            <feColorMatrix values="0 0 0 0 0   0 0 0 0 0   0 0 0 0 0  0 0 0 0.1 0" type="matrix" in="shadowBlurOuter1" result="shadowMatrixOuter1"></feColorMatrix>
            <feMerge>
                <feMergeNode in="shadowMatrixOuter1"></feMergeNode>
                <feMergeNode in="SourceGraphic"></feMergeNode>
            </feMerge>
        </filter>
        <polygon id="path-24" points="52 34.4741379 52 0 0 0 0 34.4741379 52 34.4741379"></polygon>
        <polygon id="path-26" points="67.1686198 67.0315711 67.1686198 0.277550525 0.476410811 0.277550525 0.476410811 67.0315711"></polygon>
        <linearGradient x1="50%" y1="0%" x2="50%" y2="100%" id="linearGradient-28">
            <stop stop-color="#5F99B3" offset="0%"></stop>
            <stop stop-color="#31607C" offset="100%"></stop>
        </linearGradient>
        <polygon id="path-29" points="54.2608696 35.9411225 54.2608696 0 0 0 0 35.9411225 54.2608696 35.9411225"></polygon>
        <polygon id="path-31" points="70.0889946 69.8839784 70.0889946 0.289361186 0.497124324 0.289361186 0.497124324 69.8839784"></polygon>
        <linearGradient x1="50%" y1="0%" x2="50%" y2="100%" id="linearGradient-33">
            <stop stop-color="#FD8383" offset="0%"></stop>
            <stop stop-color="#FA4C4C" offset="100%"></stop>
        </linearGradient>
    </defs>
    <g id="Website" stroke="none" stroke-width="1" fill="none" fill-rule="evenodd">
        <g id="Product" transform="translate(-206.000000, -2993.000000)">
            <g id="Section-03" transform="translate(0.000000, 1971.000000)">
                <g id="03" transform="translate(0.000000, 659.000000)">
                    <g id="Icon_05_product" transform="translate(207.000000, 364.000000)">
                        <path d="M70.208622,99.7586609 C72.0278766,88.9068183 75.7566343,78.6327379 81.0701567,69.2343956 L74.9754954,69.2343956 C66.5471424,69.2343956 59.7146123,62.403158 59.7146123,53.97226 C59.7146123,45.5432152 66.5571889,38.7101243 74.9754954,38.7101243 L107.74795,38.7101243 C126.602189,24.1946126 150.914469,15.4535367 177.451703,15.4535367 C178.674493,15.4535367 179.892559,15.4720958 181.105584,15.5089238 C181.537263,15.4722493 181.974077,15.4535367 182.415279,15.4535367 L253.276523,15.4535367 C261.704464,15.4535367 268.536659,22.2847743 268.536659,30.7156723 C268.536659,33.4937139 267.79486,36.0983985 266.498396,38.3422376 L291.980849,38.3422376 C300.408214,38.3422376 307.239943,45.1734752 307.239943,53.6043733 C307.239943,62.033418 300.409385,68.8665089 291.980849,68.8665089 L273.624193,68.8665089 C279.132265,78.5101424 282.968086,89.0844577 284.778241,100.265166 C286.895556,94.3777721 292.529405,90.1676468 299.142884,90.1676468 L300.302873,90.1676468 C308.731217,90.1676468 315.56374,96.9988843 315.56374,105.429782 C315.56374,113.858827 308.728283,120.691918 300.302873,120.691918 L299.142884,120.691918 C293.507042,120.691918 288.584739,117.637473 285.94167,113.092745 C285.954942,113.733966 285.961608,114.37667 285.961608,115.020802 C285.961608,121.284275 285.331315,127.412666 284.125754,133.355488 L300.196119,133.355488 C308.62877,133.355488 315.464785,140.186725 315.464785,148.617623 C315.464785,157.046668 308.630246,163.879759 300.196119,163.879759 L272.020673,163.879759 C253.406414,194.149681 218.030251,214.588068 177.451703,214.588068 C146.72964,214.588068 118.989595,202.872743 99.24808,184.045177 L40.7481576,184.045177 C33.254339,184.045177 27.1793988,177.972966 27.1793988,170.478835 C27.1793988,163.226845 32.8744223,157.303872 40.031453,156.931111 L95.1147934,156.931111 C102.596226,156.931111 108.67918,150.857253 108.67918,143.364769 C108.67918,137.11969 104.461873,131.862047 98.720831,130.282938 L60.4413598,130.282938 C52.0130224,130.282938 45.1805049,123.451701 45.1805049,115.020802 C45.1805049,106.591758 52.0132424,99.7586668 60.4413598,99.7586668 L70.208621,99.7586668 Z M-5.68434189e-14,115.279553 C-5.68434189e-14,107.915717 5.97770292,101.946149 13.3326078,101.946149 L18.3491162,101.946149 C25.7125122,101.946149 31.681724,107.914098 31.681724,115.279553 C31.681724,122.643389 25.7040211,128.612957 18.3491162,128.612957 L13.3326078,128.612957 C5.96921186,128.612957 -5.68434189e-14,122.645008 -5.68434189e-14,115.279553 Z M72.1099704,22.7212204 C72.1099704,17.9046234 76.0106467,14 80.8300192,14 L95.0716455,14 C99.8875955,14 103.791694,17.9144242 103.791694,22.7212204 C103.791694,27.5378174 99.891018,31.4424407 95.0716455,31.4424407 L80.8300192,31.4424407 C76.0140692,31.4424407 72.1099704,27.5280166 72.1099704,22.7212204 Z" id="Combined-Shape-Copy-4" fill="#8A9EDA" opacity="0.0700000003"></path>
                        <g id="Page-1" filter="url(#filter-1)" transform="translate(141.000000, 101.000000)">
                            <path d="M48.0014,84.0837 C48.0014,87.0767 45.8054,89.5007 43.0954,89.5007 L5.6104,89.5007 C2.9004,89.5007 0.7044,87.0767 0.7044,84.0837 L0.7044,26.2087 C0.7044,23.2167 2.9004,20.7917 5.6104,20.7917 L43.0954,20.7917 C45.8054,20.7917 48.0014,23.2167 48.0014,26.2087 L48.0014,84.0837 Z" id="Fill-1" fill="#FFFFFF"></path>
                            <mask id="mask-3" fill="white">
                                <use xlink:href="#path-2"></use>
                            </mask>
                            <g id="Clip-4"></g>
                            <polygon id="Fill-3" fill="url(#linearGradient-4)" mask="url(#mask-3)" points="0.705 67.5089 40.776 67.5089 40.776 37.4729 0.705 37.4729"></polygon>
                            <path d="M0.0004,45.8469 L33.9744,45.8469" id="Stroke-5" stroke="#FFFFFF" stroke-width="3" mask="url(#mask-3)"></path>
                            <path d="M0.0004,57.3991 L33.9744,57.3991" id="Stroke-6" stroke="#FFFFFF" stroke-width="3" mask="url(#mask-3)"></path>
                            <path d="M42.933,16.4177 C42.933,14.2867 43.887,12.4277 45.313,11.3917 L3.393,11.3917 C4.819,12.4277 5.774,14.2867 5.774,16.4177 C5.774,18.7787 4.602,20.8097 2.913,21.7507 L45.793,21.7507 C44.104,20.8097 42.933,18.7787 42.933,16.4177" id="Fill-7" fill="#FFFFFF" mask="url(#mask-3)"></path>
                            <path d="M46.1782,4.4118 C42.1312,1.7928 33.9602,-0.0002 24.5322,-0.0002 C24.5002,-0.0002 24.4722,0.0008 24.4422,0.0008 C24.4122,0.0008 24.3832,-0.0002 24.3532,-0.0002 C14.9242,-0.0002 6.7512,1.7928 2.7062,4.4118 C1.0392,5.3188 0.0002,6.4768 0.0002,8.3738 C0.0002,10.5748 1.6162,12.3588 3.6112,12.3588 L24.4422,12.3588 L45.2732,12.3588 C47.2672,12.3588 48.8832,10.5748 48.8832,8.3738 C48.8832,6.4768 47.8442,5.3188 46.1782,4.4118" id="Fill-9" fill="url(#linearGradient-5)" mask="url(#mask-3)"></path>
                            <path d="M45.2729,8.676 L24.4419,8.676 L3.6109,8.676 C2.2169,8.676 1.0229,7.796 0.4199,6.52 C0.1479,7.051 0.0009,7.66 0.0009,8.374 C0.0009,10.574 1.6169,12.359 3.6109,12.359 L24.4419,12.359 L45.2729,12.359 C47.2669,12.359 48.8829,10.574 48.8829,8.374 C48.8829,7.659 48.7359,7.05 48.4629,6.52 C47.8619,7.796 46.6669,8.676 45.2729,8.676" id="Fill-10" fill="#D95436" mask="url(#mask-3)"></path>
                        </g>
                        <g id="Page-1" filter="url(#filter-6)" transform="translate(291.000000, 120.000000)">
                            <path d="M39,65.7426538 C39,68.0949221 37.2356598,70 35.0583547,70 L4.94164535,70 C2.76434023,70 1,68.0949221 1,65.7426538 L1,20.2573462 C1,17.9058639 2.76434023,16 4.94164535,16 L35.0583547,16 C37.2356598,16 39,17.9058639 39,20.2573462 L39,65.7426538 Z" id="Fill-1" fill="#FFFFFF"></path>
                            <mask id="mask-8" fill="white">
                                <use xlink:href="#path-7"></use>
                            </mask>
                            <g id="Clip-4"></g>
                            <polygon id="Fill-3" fill="url(#linearGradient-4)" mask="url(#mask-8)" points="1 54 33 54 33 30 1 30"></polygon>
                            <path d="M0,36 L27,36" id="Stroke-5" stroke="#FFFFFF" stroke-width="3" mask="url(#mask-8)"></path>
                            <path d="M0,45 L27,45" id="Stroke-6" stroke="#FFFFFF" stroke-width="3" mask="url(#mask-8)"></path>
                            <path d="M33.7322761,12.8814557 C33.7322761,11.235737 34.4887127,9.80007723 35.619403,9 L2.38059701,9 C3.51128731,9.80007723 4.26851679,11.235737 4.26851679,12.8814557 C4.26851679,14.7047978 3.33922575,16.2732889 2,17 L36,17 C34.6607743,16.2732889 33.7322761,14.7047978 33.7322761,12.8814557" id="Fill-7" fill="#FFFFFF" mask="url(#mask-8)"></path>
                            <path d="M36.8418878,3.56986811 C33.6130966,1.45076462 27.0940818,0 19.572203,0 C19.5466727,0 19.5243336,0.000809126952 19.5003989,0.000809126952 C19.4764642,0.000809126952 19.4533273,0 19.4293926,0 C11.906716,0 5.3861056,1.45076462 2.15891005,3.56986811 C0.828938486,4.30374626 0,5.24071527 0,6.7756291 C0,8.55651752 1.28928257,10 2.8809402,10 L19.5003989,10 L36.1198576,10 C37.7107174,10 39,8.55651752 39,6.7756291 C39,5.24071527 38.1710615,4.30374626 36.8418878,3.56986811" id="Fill-9" fill="url(#linearGradient-5)" mask="url(#mask-8)"></path>
                            <path d="M36.1197987,6.84620654 L19.5,6.84620654 L2.8802013,6.84620654 C1.76801277,6.84620654 0.815392169,6.09265285 0.334294832,5 C0.117282435,5.45470115 0,5.97619455 0,6.58760062 C0,8.47148484 1.28930895,10 2.8802013,10 L19.5,10 L36.1197987,10 C37.7106911,10 39,8.47148484 39,6.58760062 C39,5.97533824 38.8827176,5.45384484 38.6649073,5 C38.1854057,6.09265285 37.2319872,6.84620654 36.1197987,6.84620654" id="Fill-10" fill="#D95436" mask="url(#mask-8)"></path>
                        </g>
                        <g id="Group-38" filter="url(#filter-9)" transform="translate(82.000000, 0.000000)">
                            <path d="M21.5,3 C22.8804071,3 24,4.09344245 24,5.44276391 L24,10.5577541 C24,11.9060396 22.8804071,13 21.5,13 C20.1195929,13 19,11.9060396 19,10.5577541 L19,5.44276391 C19,4.09344245 20.1195929,3 21.5,3" id="Fill-1" fill="#2B383B"></path>
                            <path d="M36.5868265,11.4131457 C37.1377245,11.9634704 37.1377245,12.856541 36.5868265,13.407402 L33.40696,16.5870554 C32.8565985,17.1379164 31.9634679,17.13738 31.41257,16.5870554 C30.8627449,16.0361944 30.8622085,15.1431237 31.41257,14.5927991 L34.5924366,11.4131457 C35.1438709,10.8622848 36.0359286,10.8622848 36.5868265,11.4131457" id="Fill-3" fill="#2B383B"></path>
                            <path d="M38.5863592,12.5902846 C39.1378803,13.1418057 39.1378803,14.0348381 38.5863592,14.5863592 C38.0353288,15.1378803 37.1418057,15.1378803 36.5902846,14.5863592 L33.4136408,11.4102061 C32.8621197,10.858685 32.8621197,9.96467125 33.4136408,9.41364082 C33.9646712,8.86211973 34.858685,8.86211973 35.4092247,9.41364082 L38.5863592,12.5902846 Z" id="Fill-5" fill="url(#linearGradient-10)"></path>
                            <path d="M4.41274807,11.4131457 C3.86241731,11.9634704 3.86241731,12.856541 4.41274807,13.407402 L7.59243692,16.5870554 C8.14384045,17.1379164 9.03638468,17.13738 9.58725183,16.5870554 C10.1370462,16.0361944 10.138119,15.1431237 9.58725183,14.5927991 L6.4070266,11.4131457 C5.85615945,10.8622848 4.96361522,10.8622848 4.41274807,11.4131457" id="Fill-7" fill="#2B383B"></path>
                            <path d="M2.41363237,12.5902846 C1.86212254,13.1418057 1.86212254,14.0348381 2.41363237,14.5863592 C2.96465152,15.1378803 3.85815632,15.1378803 4.40917547,14.5863592 L7.58673563,11.4102061 C8.13775479,10.858685 8.13775479,9.96467125 7.58673563,9.41364082 C7.03473514,8.86211973 6.14172101,8.86211973 5.59021119,9.41364082 L2.41363237,12.5902846 Z" id="Fill-9" fill="url(#linearGradient-10)"></path>
                            <path d="M43,31.4997342 C43,43.3737929 33.3743246,53 21.5007975,53 C9.62620705,53 0,43.3737929 0,31.4997342 C0,19.6256754 9.62620705,10 21.5007975,10 C33.3743246,10 43,19.6256754 43,31.4997342" id="Fill-11" fill="#687E81"></path>
                            <path d="M41,31.4997424 C41,42.2690027 32.2695178,51 21.5007727,51 C10.7304822,51 2,42.2690027 2,31.4997424 C2,20.7304822 10.7304822,12 21.5007727,12 C32.2695178,12 41,20.7304822 41,31.4997424" id="Fill-14" fill="url(#linearGradient-11)"></path>
                            <path d="M38,31.499742 C38,40.6121945 30.6132266,48 21.500258,48 C12.3872895,48 5,40.6121945 5,31.499742 C5,22.3878055 12.3872895,15 21.500258,15 C30.6132266,15 38,22.3878055 38,31.499742" id="Fill-16" fill="#FFFFFF"></path>
                            <g id="Group-20" transform="translate(14.000000, 0.000000)">
                                <mask id="mask-13" fill="white">
                                    <use xlink:href="#path-12"></use>
                                </mask>
                                <g id="Clip-19"></g>
                                <path d="M11.2259778,0.188127273 C12.7042741,0.188127273 13.9010148,1.44812727 13.9010148,3.00267273 C13.9010148,4.55721818 12.7042741,5.81667273 11.2259778,5.81667273 L2.7119037,5.81667273 C1.23412593,5.81667273 0.0363481481,4.55721818 0.0363481481,3.00267273 C0.0363481481,1.44812727 1.23412593,0.188127273 2.7119037,0.188127273 L11.2259778,0.188127273 Z" id="Fill-18" fill="#4C6366" mask="url(#mask-13)"></path>
                            </g>
                            <path d="M20.5,16 C20.2232405,16 20,16.2949234 20,16.6594682 L20,18.3400483 C20,18.7041096 20.2232405,19 20.5,19 C20.7760264,19 21,18.7041096 21,18.3400483 L21,16.6594682 C21,16.2949234 20.7760264,16 20.5,16" id="Fill-21" fill="#A6A6A6"></path>
                            <path d="M20.5,42 C20.2232405,42 20,42.2950185 20,42.6596808 L20,44.3403192 C20,44.7049815 20.2232405,45 20.5,45 C20.7760264,45 21,44.7049815 21,44.3403192 L21,42.6596808 C21,42.2950185 20.7760264,42 20.5,42" id="Fill-23" fill="#A6A6A6"></path>
                            <path d="M30.6529137,20.2316591 L29.2312142,21.6528487 C28.9229286,21.9605707 28.9229286,22.4609081 29.2312142,22.7692085 C29.5400781,23.0769305 30.0392346,23.0769305 30.3480985,22.7692085 L31.7692196,21.3480189 C32.0769268,21.0391401 32.0769268,20.5393811 31.7692196,20.2316591 C31.4609341,19.9227803 30.9606208,19.9227803 30.6529137,20.2316591" id="Fill-25" fill="#A6A6A6"></path>
                            <path d="M11.65235,39.2307804 L10.2316703,40.6524799 C9.92277657,40.960187 9.92277657,41.4599219 10.2316703,41.7687858 C10.5399855,42.0770714 11.0391902,42.0770714 11.3480839,41.7687858 L12.7687636,40.3476647 C13.0770788,40.0388008 13.0770788,39.5390659 12.7687636,39.2307804 C12.4610268,38.9230732 11.9606652,38.9230732 11.65235,39.2307804" id="Fill-27" fill="#A6A6A6"></path>
                            <path d="M34.3405318,30.0003663 L32.6599517,30 C32.2958904,30 32.000967,30.2238095 32,30.5 C32.000967,30.7761905 32.2958904,31 32.6604351,31 L34.3405318,31 C34.7050766,31 35,30.7761905 35,30.5003663 C35,30.2238095 34.7050766,30.0003663 34.3405318,30.0003663" id="Fill-29" fill="#A6A6A6"></path>
                            <path d="M8.34101531,30.0003663 L6.65995165,30 C6.29637389,30.0003663 6,30.2238095 6,30.5 C6.00096696,30.7765568 6.29637389,31 6.66043513,31 L8.34004835,31 C8.70459307,31 9,30.7761905 9,30.5 C9,30.2238095 8.70459307,30.0003663 8.34101531,30.0003663" id="Fill-31" fill="#A6A6A6"></path>
                            <path d="M30.3480985,39.2306692 C30.039813,38.923014 29.5406565,38.923014 29.2312142,39.2312475 C28.9229286,39.539481 28.9229286,40.0385533 29.2312142,40.3473652 L30.6529137,41.7688249 C30.9611992,42.0770584 31.4615125,42.0770584 31.7692196,41.7688249 C32.0769268,41.460013 32.0769268,40.9597841 31.7692196,40.6527072 L30.3480985,39.2306692 Z" id="Fill-33" fill="#A6A6A6"></path>
                            <path d="M11.3482033,20.231242 C11.0399104,19.9229193 10.5407419,19.9229193 10.2318705,20.231242 C9.92299911,20.5395647 9.9224207,21.0387813 10.2318705,21.3476825 L11.6524474,22.7689749 C11.9613188,23.0772975 12.4616441,23.0767191 12.7687803,22.7689749 C13.0770732,22.4606522 13.0770732,21.9608571 12.7687803,21.6531128 L11.3482033,20.231242 Z" id="Fill-35" fill="#A6A6A6"></path>
                            <path d="M25,31 C25,33.2091538 23.20998,35 21,35 C18.7905522,35 17,33.2091538 17,31 C17,28.7913784 18.7905522,27 21,27 C23.20998,27 25,28.7913784 25,31" id="Fill-39" fill="#FF6340"></path>
                            <rect id="Rectangle-57" fill="#FF6340" x="20" y="23" width="2" height="6" rx="1"></rect>
                        </g>
                        <g id="Page-1" filter="url(#filter-14)" transform="translate(188.000000, 38.000000)">
                            <g id="Group-3" transform="translate(1.000000, 49.000000)">
                                <mask id="mask-16" fill="white">
                                    <use xlink:href="#path-15"></use>
                                </mask>
                                <g id="Clip-2"></g>
                                <path d="M48.8971612,98.9446212 C48.8971612,101.736715 46.6309112,104.000245 43.8354612,104.000245 L5.17446125,104.000245 C2.37962375,104.000245 0.11398625,101.736715 0.11398625,98.9446212 L0.11398625,5.48104471 C0.11398625,2.68956235 2.37962375,0.426032941 5.17446125,0.426032941 L43.8354612,0.426032941 C46.6309112,0.426032941 48.8971612,2.68956235 48.8971612,5.48104471 L48.8971612,98.9446212 Z" id="Fill-1" fill="#FFFFFF" mask="url(#mask-16)"></path>
                            </g>
                            <path d="M50,36.9061423 C50,39.7190762 47.7236773,42 44.9158024,42 L6.08296713,42 C3.27570751,42 1,39.7190762 1,36.9061423 L1,20.2504668 C1,17.4369165 3.27570751,20.2504668 6.08296713,20.2504668 L44.9158024,20.2504668 C47.7236773,20.2504668 50,17.4369165 50,20.2504668 L50,36.9061423 Z" id="Fill-4" fill="#FFFFFF"></path>
                            <path d="M46.5076241,41 L3.4917665,41 C4.95548785,41.9998734 5.93536459,44.4208486 5.93536459,46.4769175 C5.93536459,48.7557429 4.73306558,50.0912543 3,51 L47,51 C45.2675438,50.0912543 44.0646354,48.7557429 44.0646354,46.4769175 C44.0646354,44.4208486 45.0445122,41.9998734 46.5076241,41 Z" id="Fill-6" fill="#FFFFFF"></path>
                            <path d="M29,13.6684826 C29,15.5083602 27.4325599,17 25.4993397,17 C23.5674401,17 22,15.5083602 22,13.6684826 L22,5.33151741 C22,3.49163978 23.5674401,2 25.4993397,2 C27.4325599,2 29,3.49163978 29,5.33151741 L29,13.6684826 Z" id="Fill-8" fill="#71C5E7"></path>
                            <g id="Group-12" transform="translate(18.000000, 0.000000)">
                                <mask id="mask-18" fill="white">
                                    <use xlink:href="#path-17"></use>
                                </mask>
                                <g id="Clip-11"></g>
                                <path d="M12.8338364,2.96076 C12.8338364,4.35276 11.7229273,5.48196 10.3514273,5.48196 L2.65838182,5.48196 C1.28747273,5.48196 0.175381818,4.35276 0.175381818,2.96076 C0.175381818,1.56816 1.28747273,0.43956 2.65838182,0.43956 L10.3514273,0.43956 C11.7229273,0.43956 12.8338364,1.56816 12.8338364,2.96076" id="Fill-10" fill="#8DDEFF" mask="url(#mask-18)"></path>
                            </g>
                            <mask id="mask-20" fill="white">
                                <use xlink:href="#path-19"></use>
                            </mask>
                            <g id="Clip-14"></g>
                            <polygon id="Fill-13" fill="#92CEE6" mask="url(#mask-20)" points="1 122 50 122 50 68 1 68"></polygon>
                            <polygon id="Fill-15" fill="url(#linearGradient-21)" mask="url(#mask-20)" points="1 118 50 118 50 71 1 71"></polygon>
                            <path d="M25.4996914,148 C15.6994774,148 7.20538249,149.638499 3,152.032722 C3.84626147,152.638619 4.88757664,153 6.01901156,153 L44.9803712,153 C46.1118061,153 47.1543558,152.638619 48,152.032722 C43.7946175,149.638499 35.3005226,148 25.4996914,148 Z" id="Fill-16" fill="#FFFFFF" mask="url(#mask-20)"></path>
                            <path d="M47.2326158,15.2834863 C43.0942952,12.7397486 34.7356528,11 25.0917197,11 C25.0601341,11 25.0303708,11.0006366 25,11.0006366 C24.9702366,11.0006366 24.9398659,11 24.9088877,11 C15.2649546,11 6.90631226,12.7397486 2.76799164,15.2834863 C1.06358424,16.163864 0,17.2880484 0,19.1296483 C0,21.2672537 1.65399193,23 3.69308518,23 L25,23 L46.3075222,23 C48.3466155,23 50,21.2672537 50,19.1296483 C50,17.2880484 48.9370232,16.163864 47.2326158,15.2834863" id="Fill-17" fill="url(#linearGradient-22)" mask="url(#mask-20)"></path>
                        </g>
                        <g id="Group-22" filter="url(#filter-23)" transform="translate(77.000000, 99.000000)">
                            <g id="Page-1-Copy-3" transform="translate(153.000000, 4.000000)">
                                <g id="Group-13">
                                    <g id="Group-3" transform="translate(8.000000, 0.000000)">
                                        <mask id="mask-25" fill="white">
                                            <use xlink:href="#path-24"></use>
                                        </mask>
                                        <g id="Clip-2"></g>
                                        <path d="M33.8951096,27.6689746 L18.1055328,27.6689746 C12.5666323,27.6689746 7.25932669,23.7367749 6.14341713,18.3626261 C4.88524209,12.3067248 9.31768593,6.80468793 16.1960561,6.80468793 L35.8045864,6.80468793 C42.6829565,6.80468793 47.1154004,12.3067248 45.8572253,18.3626261 C44.7403705,23.7367749 39.4340102,27.6689746 33.8951096,27.6689746 M39.4907273,0 L12.5099152,0 C3.04524381,0 -1.97374969,10.0351675 0.727403702,20.2505193 C2.95307848,28.6668814 9.87729496,34.4741379 16.5250154,34.4741379 L35.475627,34.4741379 C42.1233475,34.4741379 49.047564,28.6668814 51.2727661,20.2505193 C53.9734469,10.0351675 48.954926,0 39.4907273,0" id="Fill-1" fill="#31607C" mask="url(#mask-25)"></path>
                                    </g>
                                    <g id="Group-8" transform="translate(0.252252, 25.304750)">
                                        <mask id="mask-27" fill="white">
                                            <use xlink:href="#path-26"></use>
                                        </mask>
                                        <g id="Clip-7"></g>
                                        <path d="M67.1686198,33.6546272 C67.1686198,52.0883093 52.2390919,67.0317039 33.8225153,67.0317039 C15.4066018,67.0317039 0.476410811,52.0883093 0.476410811,33.6546272 C0.476410811,15.2209451 15.4066018,0.277550525 33.8225153,0.277550525 C52.2390919,0.277550525 67.1686198,15.2209451 67.1686198,33.6546272" id="Fill-6" fill="url(#linearGradient-28)" mask="url(#mask-27)"></path>
                                    </g>
                                    <path d="M34.0747676,85.0204556 C16.8941405,85.0204556 2.75299459,72.0130124 0.932223423,55.3009135 C0.800936937,56.502836 0.728663063,57.7226778 0.728663063,58.9591117 C0.728663063,77.3934574 15.6588541,92.3361883 34.0747676,92.3361883 C52.4913441,92.3361883 67.4208721,77.3934574 67.4208721,58.9591117 C67.4208721,57.7226778 67.3492613,56.502836 67.2173117,55.3009135 C65.3965405,72.0130124 51.2560577,85.0204556 34.0747676,85.0204556" id="Fill-9" fill="#2A3A3D" opacity="0.0882586051"></path>
                                    <path d="M49.6612584,58.9593771 C49.6612584,67.5752569 42.6831827,74.5598139 34.074635,74.5598139 C25.4667503,74.5598139 18.4886746,67.5752569 18.4886746,58.9593771 C18.4886746,50.3434974 25.4667503,43.3582767 34.074635,43.3582767 C42.6831827,43.3582767 49.6612584,50.3434974 49.6612584,58.9593771 Z" id="Stroke-11" stroke="#FFFFFF" stroke-width="3"></path>
                                </g>
                                <path d="M25.26,65.5 L32.532,65.5 L32.532,63.358 L30.39,63.358 L30.39,54.07 L28.446,54.07 C27.636,54.556 26.844,54.88 25.602,55.114 L25.602,56.752 L27.744,56.752 L27.744,63.358 L25.26,63.358 L25.26,65.5 Z M38.256,65.716 C40.704,65.716 42.342,63.628 42.342,59.74 C42.342,55.852 40.704,53.854 38.256,53.854 C35.808,53.854 34.17,55.852 34.17,59.74 C34.17,63.628 35.808,65.716 38.256,65.716 Z M38.256,63.664 C37.374,63.664 36.672,62.854 36.672,59.74 C36.672,56.608 37.374,55.906 38.256,55.906 C39.156,55.906 39.84,56.608 39.84,59.74 C39.84,62.854 39.156,63.664 38.256,63.664 Z" id="10" fill="#FFFFFF"></path>
                            </g>
                            <g id="Page-1-Copy-4">
                                <g id="Group-13">
                                    <g id="Group-3" transform="translate(8.347826, 0.000000)">
                                        <mask id="mask-30" fill="white">
                                            <use xlink:href="#path-29"></use>
                                        </mask>
                                        <g id="Clip-2"></g>
                                        <path d="M35.36881,28.8463777 L18.8927299,28.8463777 C13.1130076,28.8463777 7.57494959,24.7468504 6.41052222,19.1440144 C5.09764392,12.8304152 9.72280271,7.09424912 16.9002324,7.09424912 L37.3613075,7.09424912 C44.5387372,7.09424912 49.163896,12.8304152 47.8510177,19.1440144 C46.685604,24.7468504 41.1485323,28.8463777 35.36881,28.8463777 M41.2077154,0 L13.0538245,0 C3.17764572,0 -2.05956489,10.4621959 0.75902995,21.1122435 C3.08147319,29.8867487 10.3067426,35.9411225 17.2434944,35.9411225 L37.0180456,35.9411225 C43.9547974,35.9411225 51.1800668,29.8867487 53.5020168,21.1122435 C56.3201185,10.4621959 51.083401,0 41.2077154,0" id="Fill-1" fill="#31607C" mask="url(#mask-30)"></path>
                                    </g>
                                    <g id="Group-8" transform="translate(0.263220, 26.381548)">
                                        <mask id="mask-32" fill="white">
                                            <use xlink:href="#path-31"></use>
                                        </mask>
                                        <g id="Clip-7"></g>
                                        <path d="M70.0889946,35.086739 C70.0889946,54.3048331 54.5103568,69.8841168 35.2930595,69.8841168 C16.0764541,69.8841168 0.497124324,54.3048331 0.497124324,35.086739 C0.497124324,15.8686449 16.0764541,0.289361186 35.2930595,0.289361186 C54.5103568,0.289361186 70.0889946,15.8686449 70.0889946,35.086739" id="Fill-6" fill="url(#linearGradient-28)" mask="url(#mask-32)"></path>
                                    </g>
                                    <path d="M35.5562792,88.6383473 C17.6286684,88.6383473 2.87269001,75.0773959 0.972754877,57.6541438 C0.835760282,58.907212 0.760344066,60.178962 0.760344066,61.46801 C0.760344066,80.686796 16.3396738,96.2653878 35.5562792,96.2653878 C54.7735765,96.2653878 70.3522143,80.686796 70.3522143,61.46801 C70.3522143,60.178962 70.27749,58.907212 70.1398035,57.6541438 C68.2398684,75.0773959 53.4845819,88.6383473 35.5562792,88.6383473" id="Fill-9" fill="#2A3A3D" opacity="0.0882586051"></path>
                                    <path d="M51.8204435,61.4682868 C51.8204435,70.4507998 44.5389733,77.7325719 35.5561408,77.7325719 C26.5740003,77.7325719 19.29253,70.4507998 19.29253,61.4682868 C19.29253,52.4857739 26.5740003,45.2033098 35.5561408,45.2033098 C44.5389733,45.2033098 51.8204435,52.4857739 51.8204435,61.4682868 Z" id="Stroke-11" stroke="#FFFFFF" stroke-width="3"></path>
                                </g>
                                <path d="M26.666,67 L34.712,67 L34.712,64.768 L32.408,64.768 C31.868,64.768 31.076,64.84 30.5,64.912 C32.354,62.968 34.154,60.916 34.154,58.99 C34.154,56.794 32.624,55.354 30.374,55.354 C28.736,55.354 27.674,55.966 26.54,57.172 L27.98,58.594 C28.556,57.982 29.186,57.424 30.014,57.424 C31.004,57.424 31.634,58.036 31.634,59.152 C31.634,60.772 29.582,62.734 26.666,65.488 L26.666,67 Z M40.256,67.216 C42.704,67.216 44.342,65.128 44.342,61.24 C44.342,57.352 42.704,55.354 40.256,55.354 C37.808,55.354 36.17,57.352 36.17,61.24 C36.17,65.128 37.808,67.216 40.256,67.216 Z M40.256,65.164 C39.374,65.164 38.672,64.354 38.672,61.24 C38.672,58.108 39.374,57.406 40.256,57.406 C41.156,57.406 41.84,58.108 41.84,61.24 C41.84,64.354 41.156,65.164 40.256,65.164 Z" id="20" fill="#FFFFFF"></path>
                            </g>
                        </g>
                        <g id="Group-35" transform="translate(278.000000, 12.000000)">
                            <path d="M31,52 C29.6008667,52 28.2441,51.4967877 27.1766667,50.5811918 C27.1756333,50.5801478 12.5674,38.0353357 7.20956667,33.3926277 C2.4924,29.3084645 0,24.2074366 0,18.6428686 C0,8.36251205 8.27803333,0 18.4522333,0 C23.1084333,0 27.5982667,1.79465146 31,4.92041439 C34.4007,1.79465146 38.8905333,0 43.5477667,0 C53.723,0 62,8.36251205 62,18.6428686 C62,24.2063925 59.5086333,29.3053325 54.7935333,33.3915837 C49.4336333,38.0353357 34.8233333,50.5801478 34.8233333,50.5801478 C33.759,51.4957437 32.3991333,52 31,52 Z" id="Shape" fill="url(#linearGradient-33)"></path>
                            <ellipse id="Oval-12" fill="#FFFFFF" transform="translate(52.500000, 10.000000) rotate(36.000000) translate(-52.500000, -10.000000) " cx="52.5" cy="10" rx="4.5" ry="2"></ellipse>
                            <path d="M29,51.859294 C29.425243,51.952212 29.86199,52 30.3028508,52 C31.7334488,52 33.1238971,51.4957437 34.2121659,50.5801478 C34.2121659,50.5801478 49.1510323,38.0353357 54.6314694,33.3915837 C59.4526058,29.3053325 62,24.2063925 62,18.6428686 C62,8.36251205 53.5368612,0 43.1328002,0 C42.6989138,0 42.2664483,0.0148990746 41.8361168,0.0443465883 C51.6320312,0.710459047 59.3947549,8.79710263 59.3947549,18.6428686 C59.3947549,24.2063925 56.8473606,29.3053325 52.0262243,33.3915837 C46.5457872,38.0353357 31.6069208,50.5801478 31.6069208,50.5801478 C30.8537347,51.2138276 29.9558059,51.6504774 29,51.859294 Z" id="Combined-Shape" fill-opacity="0.100000001" fill="#000000" style="mix-blend-mode: multiply;"></path>
                        </g>
                    </g>
                    <g id="Group-6-Copy" transform="translate(569.000000, 433.000000)" fill="#6C8BFF">
                        <circle id="Oval-5" cx="19.5" cy="19.5" r="4.5"></circle>
                        <ellipse id="Oval-5" fill-opacity="0.1" cx="19.5" cy="19.5" rx="12.5" ry="12.5"></ellipse>
                        <circle id="Oval-5" fill-opacity="0.1" cx="19.5" cy="19.5" r="19.5"></circle>
                    </g>
                </g>
            </g>
        </g>
    </g>
</svg>