<?xml version="1.0" encoding="UTF-8"?>
<svg width="329px" height="218px" viewBox="0 0 329 218" version="1.1" xmlns="http://www.w3.org/2000/svg" xmlns:xlink="http://www.w3.org/1999/xlink">
    <!-- Generator: Sketch 41.2 (35397) - http://www.bohemiancoding.com/sketch -->
    <title>Product</title>
    <desc>Created with Sketch.</desc>
    <defs>
        <rect id="path-1" x="0" y="0" width="766" height="655"></rect>
        <rect id="path-3" x="0" y="0" width="139" height="294" rx="15"></rect>
        <filter x="-50%" y="-50%" width="200%" height="200%" filterUnits="objectBoundingBox" id="filter-4">
            <feOffset dx="-15" dy="15" in="SourceAlpha" result="shadowOffsetOuter1"></feOffset>
            <feGaussianBlur stdDeviation="5" in="shadowOffsetOuter1" result="shadowBlurOuter1"></feGaussianBlur>
            <feColorMatrix values="0 0 0 0 0   0 0 0 0 0   0 0 0 0 0  0 0 0 0.1 0" type="matrix" in="shadowBlurOuter1"></feColorMatrix>
        </filter>
        <rect id="path-5" x="3" y="3" width="132" height="287" rx="15"></rect>
        <mask id="mask-6" maskContentUnits="userSpaceOnUse" maskUnits="objectBoundingBox" x="0" y="0" width="132" height="287" fill="white">
            <use xlink:href="#path-5"></use>
        </mask>
        <linearGradient x1="50%" y1="0%" x2="50%" y2="100%" id="linearGradient-7">
            <stop stop-color="#AAF9F0" offset="0%"></stop>
            <stop stop-color="#71EFDD" offset="100%"></stop>
        </linearGradient>
        <linearGradient x1="50%" y1="0%" x2="50%" y2="100%" id="linearGradient-8">
            <stop stop-color="#B8EFFF" offset="0%"></stop>
            <stop stop-color="#82DAFF" offset="100%"></stop>
        </linearGradient>
        <path d="M10.7441079,7.10542736e-15 C4.85803521,7.10542736e-15 -7.10542736e-15,4.79709471 -7.10542736e-15,10.8166954 L-7.10542736e-15,43.1730202 C-7.10542736e-15,49.0988594 4.76490289,53.9897156 10.7441079,53.9897156 L14.2010253,53.9897156 C14.2010253,53.9897156 19.9177666,60.8464163 21.8443865,60.8603568 C23.7710064,60.8742972 29.7100361,53.9897156 29.7100361,53.9897156 L58.2989023,53.9897156 C64.1849751,53.9897156 69.0430103,49.1926209 69.0430103,43.1730202 L69.0430103,10.8166954 C69.1366937,4.79709471 64.2783829,7.10542736e-15 58.3923102,7.10542736e-15 L10.7441079,7.10542736e-15 Z" id="path-9"></path>
        <filter x="-50%" y="-50%" width="200%" height="200%" filterUnits="objectBoundingBox" id="filter-10">
            <feOffset dx="0" dy="6" in="SourceAlpha" result="shadowOffsetOuter1"></feOffset>
            <feGaussianBlur stdDeviation="5" in="shadowOffsetOuter1" result="shadowBlurOuter1"></feGaussianBlur>
            <feColorMatrix values="0 0 0 0 0   0 0 0 0 0   0 0 0 0 0  0 0 0 0.1 0" type="matrix" in="shadowBlurOuter1"></feColorMatrix>
        </filter>
    </defs>
    <g id="Website" stroke="none" stroke-width="1" fill="none" fill-rule="evenodd">
        <g id="Product" transform="translate(-876.000000, -2408.000000)">
            <g id="Section-03" transform="translate(0.000000, 1971.000000)">
                <g id="02" transform="translate(724.000000, 0.000000)">
                    <mask id="mask-2" fill="white">
                        <use xlink:href="#path-1"></use>
                    </mask>
                    <use id="Mask" fill="#FAFEFF" xlink:href="#path-1"></use>
                    <g id="Icon_04_product" mask="url(#mask-2)">
                        <g transform="translate(163.000000, 443.000000)">
                            <path d="M63.1026728,75.1698113 L25.6655223,75.1698113 C18.7745509,75.1698113 13.1883149,69.5833338 13.1883149,62.6886792 C13.1883149,55.7955403 18.7751373,50.2075472 25.6655223,50.2075472 L96.9701593,50.2075472 C111.115271,38.3369922 129.355198,31.1886792 149.264362,31.1886792 C150.409278,31.1886792 151.548675,31.2123191 152.682089,31.2591375 C153.119785,31.2125643 153.564192,31.1886792 154.014109,31.1886792 L205.124907,31.1886792 C212.014432,31.1886792 217.599495,36.7751568 217.599495,43.6698113 C217.599495,46.0669303 216.923132,48.306214 215.751411,50.2075472 L248.597558,50.2075472 C255.488529,50.2075472 261.074765,55.7940247 261.074765,62.6886792 C261.074765,69.5818182 255.487943,75.1698113 248.597558,75.1698113 L221.573182,75.1698113 C227.387307,86.3795222 230.672303,99.1126608 230.672303,112.613208 C230.672303,118.526917 230.041996,124.293381 228.844911,129.849057 L257.411908,129.849057 C264.303769,129.849057 269.890727,135.435534 269.890727,142.330189 C269.890727,149.223328 264.294499,154.811321 257.411908,154.811321 L218.900852,154.811321 C204.625885,178.327425 178.77942,194.037736 149.264362,194.037736 C126.22319,194.037736 105.417759,184.463445 90.6079089,169.075472 L35.3248288,169.075472 C29.1977489,169.075472 24.2307692,164.109714 24.2307692,157.981132 C24.2307692,151.853897 29.200973,146.886792 35.3248288,146.886792 L54.246492,146.886792 L86.5728846,146.886792 C92.7022433,146.886792 97.6688004,141.919687 97.6688004,135.792453 C97.6688004,130.685327 94.2189665,126.38571 89.5226893,125.09434 L62.5071776,125.09434 C55.616148,125.09434 50.0298647,119.507862 50.0298647,112.613208 C50.0298647,105.720069 55.6219074,100.132075 62.5071776,100.132075 L63.1026728,100.132075 L63.1026728,75.1698113 Z M237.477687,104.409112 C237.477687,97.849071 242.797058,92.5311071 249.362058,92.5311071 C255.925615,92.5311071 261.246429,97.8555212 261.246429,104.409112 L261.246429,105.615366 C261.246429,112.175407 255.927058,117.493371 249.362058,117.493371 C242.798502,117.493371 237.477687,112.168957 237.477687,105.615366 L237.477687,104.409112 Z M0,112.510341 C0,106.488313 4.88169001,101.606495 10.910453,101.606495 L12.8582889,101.606495 C18.8839657,101.606495 23.7687419,106.486989 23.7687419,112.510341 C23.7687419,118.532369 18.8870518,123.414187 12.8582889,123.414187 L10.910453,123.414187 C4.88477619,123.414187 0,118.533693 0,112.510341 Z M70.2332953,37.1320755 C70.2332953,33.193139 73.4265128,30 77.3647016,30 L86.8706309,30 C90.8091978,30 94.0020372,33.2011539 94.0020372,37.1320755 C94.0020372,41.071012 90.8088197,44.2641509 86.8706309,44.2641509 L77.3647016,44.2641509 C73.4261347,44.2641509 70.2332953,41.062997 70.2332953,37.1320755 Z" id="Combined-Shape-Copy" fill="#D3EFFB" opacity="0.1"></path>
                            <g id="Group-32-Copy-2" stroke-width="1" fill="none" transform="translate(83.000000, 28.000000)">
                                <g id="Rectangle-27">
                                    <use fill="black" fill-opacity="1" filter="url(#filter-4)" xlink:href="#path-3"></use>
                                    <use fill="#E9E9E9" fill-rule="evenodd" xlink:href="#path-3"></use>
                                </g>
                                <use id="Rectangle-27" stroke="#D8D8D8" mask="url(#mask-6)" stroke-width="2" fill="#FFFFFF" xlink:href="#path-5"></use>
                                <rect id="Rectangle-27" fill="#212227" x="3" y="3" width="132" height="175" rx="15"></rect>
                                <g id="Group-31" transform="translate(4.000000, 178.000000)" fill="#D8D8D8" opacity="0.600000024">
                                    <rect id="Rectangle-30" x="45.064" y="0" width="1.048" height="112"></rect>
                                    <rect id="Rectangle-30-Copy" x="89.08" y="0" width="1.048" height="112"></rect>
                                </g>
                                <rect id="Rectangle-28" fill="#343740" x="15" y="26" width="111" height="138" rx="3"></rect>
                                <g id="Group-30" transform="translate(41.000000, 14.000000)" fill="#000000">
                                    <rect id="Rectangle-29" x="20.0363636" y="0" width="26.3636364" height="4.8" rx="2.4"></rect>
                                    <ellipse id="Oval-9" cx="55.3636364" cy="3" rx="2.63636364" ry="3"></ellipse>
                                    <ellipse id="Oval-9" cx="2.63636364" cy="3" rx="2.63636364" ry="3"></ellipse>
                                </g>
                                <rect id="Rectangle-33" fill="#D8D8D8" opacity="0.512567935" x="59" y="182" width="23" height="23" rx="4"></rect>
                            </g>
                            <g id="Group-18-Copy" stroke-width="1" fill="none" transform="translate(165.000000, 0.000000)">
                                <g id="Layer_1" transform="translate(58.500000, 40.000000) rotate(-360.000000) translate(-58.500000, -40.000000) ">
                                    <path d="M10.7441079,1.42108547e-14 C4.85803521,1.42108547e-14 -7.10542736e-15,4.79709471 -7.10542736e-15,10.8166954 L-7.10542736e-15,43.1730202 C-7.10542736e-15,49.0988594 4.76490289,53.9897156 10.7441079,53.9897156 L14.2010253,53.9897156 C14.2010253,53.9897156 20.2736149,60.4343125 21.7578211,60.5085545 C23.2420274,60.5827965 29.7100361,53.9897156 29.7100361,53.9897156 L58.2989023,53.9897156 C64.1849751,53.9897156 69.0430103,49.1926209 69.0430103,43.1730202 L69.0430103,10.8166954 C69.1366937,4.79681731 64.2783829,1.42108547e-14 58.3923102,1.42108547e-14 L10.7441079,1.42108547e-14 Z" id="Shape" fill="url(#linearGradient-7)"></path>
                                    <g id="Group-25" transform="translate(46.110000, 18.214712)">
                                        <g id="Shape">
                                            <use fill="black" fill-opacity="1" filter="url(#filter-10)" xlink:href="#path-9"></use>
                                            <use fill="url(#linearGradient-8)" fill-rule="evenodd" xlink:href="#path-9"></use>
                                        </g>
                                        <g id="Group" transform="translate(14.954595, 23.867554)" fill="#FFFFFF">
                                            <ellipse id="Oval" cx="5.24112446" cy="5.44068036" rx="5.19963025" ry="5.2347591"></ellipse>
                                            <ellipse id="Oval" cx="19.4637155" cy="5.44068036" rx="5.19963025" ry="5.2347591"></ellipse>
                                            <ellipse id="Oval" cx="33.686081" cy="5.44068036" rx="5.19963025" ry="5.2347591"></ellipse>
                                        </g>
                                    </g>
                                </g>
                            </g>
                        </g>
                    </g>
                    <g id="Group-7" transform="translate(27.000000, 0.000000)" font-size="15" font-family="SourceSansPro-Regular, Source Sans Pro" line-spacing="30" fill="#717171" font-weight="normal">
                        <text id="Contact-patients-for">
                            <tspan x="8" y="174">Contact patients for the first time by welcoming them when their profile is created, </tspan>
                            <tspan x="8" y="204">or send a mass message when you are ready to launch. Our system allows you to </tspan>
                            <tspan x="8" y="234">send one-to-one or one-to-many messages. We automatically handle the opt-out </tspan>
                            <tspan x="8" y="264">process for those patients that decide they no longer wish to receive messages.</tspan>
                            <tspan x="8" y="294"></tspan>
                            <tspan x="8" y="324">You can schedule messages for your patients on an ongoing basis. From </tspan>
                            <tspan x="8" y="354">appointment to preventive care reminders, our system can automate ongoing </tspan>
                            <tspan x="8" y="384">engagement. Our team offers a library of preventive care and health campaign </tspan>
                            <tspan x="8" y="414">messages that are pre-translated and reviewed by clinicians to meet national clinical </tspan>
                            <tspan x="8" y="444">guidelines.</tspan>
                        </text>
                    </g>
                </g>
            </g>
        </g>
    </g>
</svg>