<?xml version="1.0" encoding="UTF-8"?>
<svg width="397px" height="244px" viewBox="0 0 397 244" version="1.1" xmlns="http://www.w3.org/2000/svg" xmlns:xlink="http://www.w3.org/1999/xlink">
    <!-- Generator: Sketch 41.2 (35397) - http://www.bohemiancoding.com/sketch -->
    <title>Icon_02_product</title>
    <desc>Created with Sketch.</desc>
    <defs>
        <path d="M26.2542575,9.99346413 C26.2542575,4.47422629 30.7324354,-9.9475983e-13 36.2582199,-9.9475983e-13 L132.846376,-9.9475983e-13 L139.070284,6.38651422 C142.923983,10.340895 149.23986,16.6775241 153.180998,20.5435066 L169.715022,36.762235 L169.715022,188.443548 C169.715022,193.961613 165.244366,198.434889 159.712616,198.434889 L36.2566629,198.434889 C30.7324869,198.434889 26.2542575,193.964885 26.2542575,188.441425 L26.2542575,9.99346413 Z" id="path-1"></path>
        <filter x="-50%" y="-50%" width="200%" height="200%" filterUnits="objectBoundingBox" id="filter-2">
            <feOffset dx="0" dy="6" in="SourceAlpha" result="shadowOffsetOuter1"></feOffset>
            <feGaussianBlur stdDeviation="5" in="shadowOffsetOuter1" result="shadowBlurOuter1"></feGaussianBlur>
            <feColorMatrix values="0 0 0 0 0   0 0 0 0 0   0 0 0 0 0  0 0 0 0.1 0" type="matrix" in="shadowBlurOuter1"></feColorMatrix>
        </filter>
        <path d="M19.6760417,10.003071 C19.6760417,4.47852744 24.1565563,1.17239551e-12 29.6722461,1.17239551e-12 L99.5606458,1.17239551e-12 L102.47562,2.99113101 C106.329957,6.94616624 112.646027,13.2830079 116.592178,17.1539078 L127.191555,27.5511608 L127.191555,138.722778 C127.191555,144.241566 122.70863,148.715429 117.197382,148.715429 L29.6702152,148.715429 C24.1505856,148.715429 19.6760417,144.244434 19.6760417,138.712358 L19.6760417,10.003071 Z" id="path-3"></path>
        <filter x="-50%" y="-50%" width="200%" height="200%" filterUnits="objectBoundingBox" id="filter-4">
            <feOffset dx="0" dy="6" in="SourceAlpha" result="shadowOffsetOuter1"></feOffset>
            <feGaussianBlur stdDeviation="5" in="shadowOffsetOuter1" result="shadowBlurOuter1"></feGaussianBlur>
            <feColorMatrix values="0 0 0 0 0   0 0 0 0 0   0 0 0 0 0  0 0 0 0.1 0" type="matrix" in="shadowBlurOuter1"></feColorMatrix>
        </filter>
    </defs>
    <g id="Website" stroke="none" stroke-width="1" fill="none" fill-rule="evenodd">
        <g id="Product" transform="translate(-522.000000, -1567.000000)">
            <g id="Section-02" transform="translate(246.000000, 1369.000000)">
                <g id="Icon_02_product" transform="translate(276.000000, 193.000000)">
                    <path d="M92.8218667,73.4432428 L37.7531027,73.4432428 C27.6167203,73.4432428 19.3995587,65.225726 19.3995587,55.0839257 C19.3995587,44.9443549 27.6175828,36.7246086 37.7531027,36.7246086 L142.639778,36.7246086 C163.446752,19.2634295 190.277058,8.74850639 219.562756,8.74850639 C221.246889,8.74850639 222.922901,8.78327983 224.590115,8.85214803 C225.233951,8.78364044 225.887658,8.74850639 226.54947,8.74850639 L301.731701,8.74850639 C311.865955,8.74850639 320.081392,16.9660232 320.081392,27.1078235 C320.081392,30.6339032 319.086485,33.9278127 317.362924,36.7246086 L365.678479,36.7246086 C375.814862,36.7246086 384.032023,44.9421255 384.032023,55.0839257 C384.032023,65.2234966 375.813999,73.4432428 365.678479,73.4432428 L325.926549,73.4432428 C334.478928,89.932343 339.311044,108.662353 339.311044,128.521194 C339.311044,137.220058 338.383884,145.702328 336.623013,153.874537 L378.644085,153.874537 C388.781777,153.874537 397,162.092054 397,172.233854 C397,182.373425 388.784485,190.593171 378.644085,190.593171 L321.995644,190.593171 C300.997657,225.184554 262.978393,248.293882 219.562756,248.293882 C185.669983,248.293882 155.065906,234.210428 133.281126,211.575248 L51.9616112,211.575248 C42.9488869,211.575248 35.6426302,204.270788 35.6426302,195.255855 C35.6426302,186.242903 42.9536295,178.936462 51.9616112,178.936462 L79.7947287,178.936462 L127.345743,178.936462 C136.36182,178.936462 143.667455,171.630021 143.667455,162.617069 C143.667455,155.104662 138.592867,148.780072 131.684805,146.880511 L91.9459137,146.880511 C81.8094456,146.880511 73.5922146,138.662994 73.5922146,128.521194 C73.5922146,118.381623 81.8179176,110.161877 91.9459137,110.161877 L92.8218667,110.161877 L92.8218667,73.4432428 Z M349.321531,116.453251 C349.321531,106.803656 357.146143,98.9811132 366.803033,98.9811132 C376.4578,98.9811132 384.284535,106.813144 384.284535,116.453251 L384.284535,118.22761 C384.284535,127.877205 376.459923,135.699747 366.803033,135.699747 C357.148266,135.699747 349.321531,127.867717 349.321531,118.22761 L349.321531,116.453251 Z M0,128.369881 C0,119.511685 7.18079853,112.330697 16.0489021,112.330697 L18.9141018,112.330697 C27.7776656,112.330697 34.9630038,119.509737 34.9630038,128.369881 C34.9630038,137.228078 27.7822053,144.409065 18.9141018,144.409065 L16.0489021,144.409065 C7.1853382,144.409065 0,137.230025 0,128.369881 Z M103.310768,17.4910383 C103.310768,11.6969979 108.007881,7 113.800822,7 L127.783718,7 C133.577215,7 138.273772,11.6957239 138.273772,17.4910383 C138.273772,23.2850788 133.576658,27.9820767 127.783718,27.9820767 L113.800822,27.9820767 C108.007325,27.9820767 103.310768,23.2863528 103.310768,17.4910383 Z" id="Combined-Shape-Copy" fill="#D3EFFB" opacity="0.1"></path>
                    <g id="Group-18" transform="translate(22.000000, 0.000000)">
                        <g id="Group-6">
                            <g id="Group-4-Copy-4" transform="translate(246.607472, 116.758585) rotate(-347.000000) translate(-246.607472, -116.758585) translate(161.607472, 17.258585)">
                                <g id="Rectangle">
                                    <use fill="black" fill-opacity="1" filter="url(#filter-2)" xlink:href="#path-1"></use>
                                    <use fill="#FFFFFF" fill-rule="evenodd" xlink:href="#path-1"></use>
                                </g>
                                <path d="M141.585548,37.2647679 L169.715022,37.2647679 L132.208939,-2.84217094e-13 L132.208939,27.948488 C132.208939,33.093672 136.407046,37.2647679 141.585548,37.2647679 L141.585548,37.2647679 Z" id="Shape" fill="#E8E8E8"></path>
                                <rect id="Rectangle-12" fill="#5FBEF3" x="1.42108547e-13" y="36.3331487" width="98.4534655" height="48.4441982" rx="5"></rect>
                                <text id="API" font-family="SourceSansPro-Bold, Source Sans Pro" font-size="45" font-weight="bold" fill="#FFFFFF">
                                    <tspan x="15.088603" y="76.1025015">API</tspan>
                                </text>
                            </g>
                            <g id="Group-4-Copy-5" transform="translate(79.434493, 133.619976) rotate(-347.000000) translate(-79.434493, -133.619976) translate(15.434493, 59.119976)">
                                <g id="Rectangle">
                                    <use fill="black" fill-opacity="1" filter="url(#filter-4)" xlink:href="#path-3"></use>
                                    <use fill="#FFFFFF" fill-rule="evenodd" xlink:href="#path-3"></use>
                                </g>
                                <path d="M106.110148,27.92778 L127.191555,27.92778 L99.0829243,5.89750471e-13 L99.0829243,20.9457691 C99.0829243,24.8017859 102.229161,27.92778 106.110148,27.92778 L106.110148,27.92778 Z" id="Shape" fill="#E8E8E8"></path>
                                <rect id="Rectangle-12" fill="#FFB308" x="-1.26476607e-12" y="27.2295855" width="73.7851564" height="36.306114" rx="5"></rect>
                                <text id="SFTP" font-family="SourceSansPro-Bold, Source Sans Pro" font-size="25" font-weight="bold" fill="#FFFFFF">
                                    <tspan x="9.48064679" y="55.3119241">SFTP</tspan>
                                </text>
                            </g>
                        </g>
                        <g id="Group-6-Copy-2" transform="translate(311.000000, 126.000000)" fill="#0BB0F6">
                            <ellipse id="Oval-5" cx="17" cy="17.5" rx="4.04761905" ry="4.16666667"></ellipse>
                            <ellipse id="Oval-5" fill-opacity="0.1" cx="17" cy="17.5" rx="10.5238095" ry="10.8333333"></ellipse>
                            <ellipse id="Oval-5" fill-opacity="0.1" cx="17" cy="17.5" rx="17" ry="17.5"></ellipse>
                        </g>
                    </g>
                </g>
            </g>
        </g>
    </g>
</svg>