<?xml version="1.0" encoding="UTF-8"?>
<svg width="376px" height="259px" viewBox="0 0 376 259" version="1.1" xmlns="http://www.w3.org/2000/svg" xmlns:xlink="http://www.w3.org/1999/xlink">
    <!-- Generator: Sketch 41.2 (35397) - http://www.bohemiancoding.com/sketch -->
    <title>Icon_03_product</title>
    <desc>Created with Sketch.</desc>
    <defs>
        <rect id="path-1" x="-1.70530257e-13" y="-7.95807864e-13" width="157" height="192" rx="5"></rect>
        <filter x="-50%" y="-50%" width="200%" height="200%" filterUnits="objectBoundingBox" id="filter-2">
            <feOffset dx="0" dy="6" in="SourceAlpha" result="shadowOffsetOuter1"></feOffset>
            <feGaussianBlur stdDeviation="5" in="shadowOffsetOuter1" result="shadowBlurOuter1"></feGaussianBlur>
            <feColorMatrix values="0 0 0 0 0.208333333   0 0 0 0 0.208333333   0 0 0 0 0.208333333  0 0 0 0.1 0" type="matrix" in="shadowBlurOuter1"></feColorMatrix>
        </filter>
        <rect id="path-3" x="0" y="1.42108547e-14" width="157" height="192" rx="5"></rect>
        <filter x="-50%" y="-50%" width="200%" height="200%" filterUnits="objectBoundingBox" id="filter-4">
            <feOffset dx="0" dy="6" in="SourceAlpha" result="shadowOffsetOuter1"></feOffset>
            <feGaussianBlur stdDeviation="5" in="shadowOffsetOuter1" result="shadowBlurOuter1"></feGaussianBlur>
            <feColorMatrix values="0 0 0 0 0.208333333   0 0 0 0 0.208333333   0 0 0 0 0.208333333  0 0 0 0.1 0" type="matrix" in="shadowBlurOuter1"></feColorMatrix>
        </filter>
    </defs>
    <g id="Website" stroke="none" stroke-width="1" fill="none" fill-rule="evenodd">
        <g id="Product" transform="translate(-221.000000, -2331.000000)">
            <g id="Section-03" transform="translate(0.000000, 1971.000000)">
                <g id="01">
                    <g id="Icon_03_product" transform="translate(228.000000, 362.000000)">
                        <g id="Group-3" transform="translate(101.500000, 114.000000) rotate(-15.000000) translate(-101.500000, -114.000000) translate(23.000000, 18.000000)">
                            <g id="Rectangle-10">
                                <use fill="black" fill-opacity="1" filter="url(#filter-2)" xlink:href="#path-1"></use>
                                <use fill="#FFFFFF" fill-rule="evenodd" xlink:href="#path-1"></use>
                            </g>
                            <g id="Brand" transform="translate(42.920863, 13.552941)">
                                <g id="Layer_2">
                                    <path d="M19.3195464,8.48340426 C18.9367958,8.69780933 18.5101222,8.80788913 18.0776616,8.80380476 C17.0388711,8.80380476 16.3378192,8.42573217 15.8646844,7.93151439 C14.6931502,6.67807026 14.6931502,4.65209245 15.8646844,3.39864831 C16.3626419,2.88600751 17.0892686,2.53516896 17.9708489,2.53516896 C18.3424365,2.53516896 18.7734481,2.61526909 19.3248119,2.86758448 L19.3248119,4.46958698 C19.0374708,4.14918648 18.6072115,3.82878598 18.0077068,3.82878598 C17.534572,3.82878598 17.1547102,3.98898623 16.8590949,4.29657071 C16.5104931,4.66335336 16.3168993,5.16529199 16.3227752,5.68710889 C16.3227752,6.30788486 16.5589665,6.74843554 16.8124584,7.00956195 C17.139386,7.34215884 17.5767205,7.52331509 18.0287685,7.51339174 C18.366507,7.51339174 18.8223412,7.41406758 19.3210508,6.89261577 L19.3195464,8.48340426 Z" id="Shape" fill="#333333"></path>
                                    <path d="M23.6687762,7.53902378 L21.5400456,7.53902378 L21.1090341,8.67244055 L19.7550712,8.67244055 L22.0267201,2.67374218 L23.2174552,2.67374218 L25.4387066,8.67244055 L24.0847437,8.67244055 L23.6687762,7.53902378 Z M23.3137371,6.47769712 L22.6209594,4.46317897 L21.9199074,6.47769712 L23.3137371,6.47769712 Z" id="Shape" fill="#333333"></path>
                                    <path d="M28.0511029,2.67374218 C28.7687032,2.67374218 29.2170154,2.92525657 29.4870558,3.19519399 C29.7232471,3.43549437 29.976739,3.86963705 29.976739,4.53526909 C29.976739,4.91334168 29.9015189,5.38032541 29.5374533,5.758398 C29.3169368,5.98050726 29.0465244,6.13855186 28.7521548,6.21737171 L30.4822185,8.67244055 L28.8958253,8.67244055 L27.3756258,6.30708385 L27.3756258,8.67244055 L26.0750692,8.67244055 L26.0750692,2.67374218 L28.0511029,2.67374218 Z M27.3741214,5.39714643 L27.6697366,5.39714643 C27.905928,5.39714643 28.227118,5.36991239 28.4467609,5.13602003 C28.5882586,4.97935342 28.6644595,4.7685509 28.6581296,4.55128911 C28.6696072,4.31431714 28.5719263,4.08625459 28.3963634,3.94012516 C28.1849948,3.76951189 27.8472562,3.75108886 27.6787631,3.75108886 L27.3778824,3.75108886 L27.3741214,5.39714643 Z" id="Shape" fill="#333333"></path>
                                    <polygon id="Shape" fill="#333333" points="34.2161474 3.84480601 32.3356433 3.84480601 32.3356433 5.00465582 34.1258832 5.00465582 34.1258832 6.17411765 32.3356433 6.17411765 32.3356433 7.50538173 34.2161474 7.50538173 34.2161474 8.67484355 31.0320779 8.67484355 31.0320779 2.67374218 34.2161474 2.67374218"></polygon>
                                    <polygon id="Shape" fill="#333333" points="35.1789654 8.67244055 36.0816074 2.67374218 37.1625211 2.67374218 38.5646249 6.26222778 39.9667287 2.67374218 41.0476425 2.67374218 41.9502844 8.67244055 40.6512322 8.67244055 40.1999113 5.09276596 38.7895332 8.67244055 38.333699 8.67244055 36.923321 5.09276596 36.472 8.67244055"></polygon>
                                    <polygon id="Shape" fill="#333333" points="46.0558009 3.84480601 44.1752968 3.84480601 44.1752968 5.00465582 45.9595191 5.00465582 45.9595191 6.17411765 44.1692792 6.17411765 44.1692792 7.50538173 46.0497833 7.50538173 46.0497833 8.67484355 42.8717314 8.67484355 42.8717314 2.67374218 46.0558009 2.67374218"></polygon>
                                    <path d="M50.0672921,4.13957447 C49.645307,3.73506884 49.2819936,3.70783479 49.1217747,3.70783479 C48.9442551,3.70783479 48.7246122,3.73506884 48.5726675,3.91449312 C48.4798517,4.01542511 48.4282174,4.15130218 48.428997,4.29256571 C48.4224166,4.41790199 48.4687626,4.53981519 48.5553669,4.62498123 C48.6907632,4.75954944 48.8848312,4.81401752 49.264693,4.96700876 L49.6866781,5.13762203 C49.9318958,5.23694618 50.2357853,5.37151439 50.4554282,5.59659574 C50.7332409,5.89061287 50.8831996,6.29476714 50.869139,6.71158949 C50.869139,7.33236546 50.6667968,7.8714393 50.3711816,8.19584481 C49.8732241,8.75654568 49.1465973,8.80700876 48.7750097,8.80700876 C48.3898024,8.82024491 48.0073143,8.73394739 47.6602469,8.55549437 C47.3561118,8.3802335 47.0774126,8.15899748 46.8328251,7.89867334 L47.5098066,6.9094368 C47.6706736,7.08054835 47.8470467,7.23428865 48.0363477,7.36841051 C48.2484837,7.51120577 48.494717,7.58600311 48.7456739,7.58387985 C48.9595237,7.59179577 49.16906,7.51855459 49.3369043,7.37722153 C49.4692232,7.25586036 49.5434799,7.07772307 49.5392466,6.89181477 C49.5429466,6.7231728 49.4708475,6.5627754 49.3451786,6.46007509 C49.1947382,6.32550688 48.8472211,6.19013767 48.6862499,6.12765957 L48.2161239,5.95624531 C47.9543578,5.85692115 47.6504683,5.73116395 47.4308254,5.47564456 C47.1352102,5.14322904 47.0930869,4.72030038 47.0930869,4.43434293 C47.0930869,3.9040801 47.2435272,3.4539174 47.5827702,3.08545682 C47.9799326,2.65371715 48.4523152,2.53677096 48.9765998,2.53677096 C49.5803708,2.53167122 50.1686005,2.7404684 50.648744,3.13031289 L50.0672921,4.13957447 Z" id="Shape" fill="#333333"></path>
                                    <path d="M54.7121371,4.13957447 C54.290152,3.73506884 53.9268386,3.70783479 53.7666197,3.70783479 C53.5891001,3.70783479 53.3694572,3.73506884 53.2175125,3.91449312 C53.1247662,4.01547353 53.0731439,4.15131883 53.073842,4.29256571 C53.0672616,4.41790199 53.1136076,4.53981519 53.2002119,4.62498123 C53.3356082,4.75954944 53.5296762,4.81401752 53.909538,4.96700876 L54.3315231,5.13762203 C54.5767408,5.23694618 54.8806303,5.37151439 55.1002732,5.59659574 C55.3780859,5.89061287 55.5280446,6.29476714 55.5139841,6.71158949 C55.5139841,7.33236546 55.3116418,7.8714393 55.0160266,8.19584481 C54.5180691,8.75654568 53.7914423,8.80700876 53.4198547,8.80700876 C53.0346474,8.82024491 52.6521593,8.73394739 52.3050919,8.55549437 C52.0009569,8.3802335 51.7222576,8.15899748 51.4776702,7.89867334 L52.1546516,6.9094368 C52.3155352,7.08052891 52.4919063,7.23426757 52.6811928,7.36841051 C52.8933462,7.51116415 53.1395677,7.58595793 53.3905189,7.58387985 C53.6043687,7.59179577 53.813905,7.51855459 53.9817494,7.37722153 C54.1140682,7.25586036 54.1883249,7.07772307 54.1840916,6.89181477 C54.1877916,6.7231728 54.1156926,6.5627754 53.9900236,6.46007509 C53.8395833,6.32550688 53.4920661,6.19013767 53.331095,6.12765957 L52.8662344,5.95704631 C52.6044682,5.85772215 52.3005787,5.73196496 52.0809359,5.47644556 C51.7853206,5.14403004 51.7431973,4.72110138 51.7431973,4.43514393 C51.7431973,3.9048811 51.8936377,3.4547184 52.2328806,3.08625782 C52.630043,2.65451815 53.1024257,2.53757196 53.6267102,2.53757196 C54.2304813,2.53247223 54.818711,2.7412694 55.2988544,3.13111389 L54.7121371,4.13957447 Z" id="Shape" fill="#333333"></path>
                                    <path d="M59.5848992,7.53902378 L57.4561686,7.53902378 L57.0251571,8.67244055 L55.6711942,8.67244055 L57.9428431,2.67374218 L59.1335783,2.67374218 L61.3548297,8.67244055 L60.0008667,8.67244055 L59.5848992,7.53902378 Z M59.2298601,6.47769712 L58.5370824,4.46317897 L57.8360305,6.47769712 L59.2298601,6.47769712 Z" id="Shape" fill="#333333"></path>
                                    <path d="M64.4486349,5.39874844 L67.246825,5.39874844 L67.246825,5.46202753 C67.246825,6.19013767 67.0016072,7.2963204 66.3772799,7.98918648 C65.7529525,8.68205257 65.0315912,8.81101377 64.3643883,8.81101377 C63.6971855,8.81101377 62.9622845,8.69406758 62.3033559,7.97476846 C61.9738916,7.6151189 61.4759341,6.88620776 61.4759341,5.69031289 C61.4759341,4.70988736 61.8136726,3.92811014 62.2868075,3.41466834 C62.9795852,2.65051314 63.8325818,2.54237797 64.4997846,2.54237797 C64.9646452,2.54237797 65.5528669,2.6224781 66.079408,2.99173967 C66.4537738,3.27263127 66.7653209,3.63803103 66.9918286,4.06187735 L65.8176419,4.7331164 C65.7012295,4.47904476 65.5307178,4.25742595 65.3196844,4.08590738 C65.0698504,3.89233587 64.7673099,3.79132423 64.4584135,3.79834793 C63.9431554,3.79834793 63.5632936,3.97857322 63.2932532,4.28375469 C62.9810896,4.63459324 62.8118442,5.14723404 62.8118442,5.70473091 C62.8118442,6.38798498 63.0480355,6.82613267 63.284979,7.08085106 C63.6144433,7.44050063 63.9943051,7.54863579 64.4253167,7.54863579 C64.9826981,7.54863579 65.2783133,7.34197747 65.4031788,7.22823529 C65.6027955,7.04061269 65.7441825,6.79284574 65.8086155,6.51774718 L64.4486349,6.51774718 L64.4486349,5.39874844 Z" id="Shape" fill="#333333"></path>
                                    <polygon id="Shape" fill="#333333" points="71.1462382 3.84480601 69.2657341 3.84480601 69.2657341 5.00465582 71.055974 5.00465582 71.055974 6.17411765 69.2627253 6.17411765 69.2627253 7.50538173 71.1432293 7.50538173 71.1432293 8.67484355 67.9621687 8.67484355 67.9621687 2.67374218 71.1462382 2.67374218"></polygon>
                                    <polygon id="Shape" fill="#FFFFFF" points="10.5601586 10.0365457 2.34536466 10.0165207 2.33633824 1.27359199 10.5526365 1.28881101"></polygon>
                                    <polygon id="Shape" fill="#FFFFFF" points="10.5594064 10.0365457 2.34386025 10.0165207 2.33558603 1.27359199 10.5526365 1.28881101"></polygon>
                                    <polygon id="Shape" fill="#FFCE4D" points="8.08315862 3.96095119 8.90080179 3.08946183 7.26476326 3.08946183"></polygon>
                                    <polygon id="Shape" fill="#FFC11C" points="5.62797253 3.08946183 3.98065098 3.08946183 4.80431176 3.9665582"></polygon>
                                    <polygon id="Shape" fill="#FF6161" points="9.71317954 5.70312891 9.71317954 3.95534418 8.89553637 4.82603254"></polygon>
                                    <polygon id="Shape" fill="#FF9640" points="8.89553637 4.82603254 9.71317954 3.95534418 9.71317954 3.95454318 8.90080179 3.08946183 8.08315862 3.96095119"></polygon>
                                    <polygon id="Shape" fill="#FF7575" points="3.16827323 5.6975219 3.98666859 4.82603254 3.16827323 3.95534418"></polygon>
                                    <polygon id="Shape" fill="#FF9640" points="4.80431176 3.9665582 3.98065098 3.08946183 3.16827323 3.95534418 3.98666859 4.82603254"></polygon>
                                    <polygon id="Shape" fill="#FFCE4D" points="8.08315862 3.96095119 7.26476326 3.08946183 6.4463679 3.96095119 7.25874565 4.82603254"></polygon>
                                    <polygon id="Shape" fill="#FFC11C" points="6.4463679 3.96095119 5.62797253 3.08946183 4.80431176 3.9665582 5.63022914 4.83404255"></polygon>
                                    <polygon id="Shape" fill="#FFCE4D" points="6.43583707 5.69111389 7.25874565 4.82603254 6.4463679 3.96095119 5.63022914 4.83404255"></polygon>
                                    <polygon id="Shape" fill="#FF7575" points="5.61894611 8.317597 7.25874565 8.317597 6.44110248 7.44370463"></polygon>
                                    <polygon id="Shape" fill="#FF6161" points="8.89553637 4.82603254 8.08842403 5.70312891 9.71317954 5.70312891"></polygon>
                                    <polygon id="Shape" fill="#FF6161" points="8.89553637 6.57461827 9.71317954 5.70312891 8.08842403 5.70312891"></polygon>
                                    <polygon id="Shape" fill="#FF7575" points="3.98666859 4.82603254 3.16827323 5.6975219 4.80130295 5.6975219"></polygon>
                                    <polygon id="Shape" fill="#FF7575" points="4.80130295 5.6975219 3.16827323 5.6975219 3.98666859 6.57221527"></polygon>
                                    <polygon id="Shape" fill="#FF6161" points="7.26476326 6.58022528 6.44260689 7.44450563 7.25874565 8.317597 8.07714101 7.44610763"></polygon>
                                    <polygon id="Shape" fill="#FF6161" points="7.26476326 6.58022528 8.07714101 7.44610763 8.89553637 6.57461827 8.08842403 5.70312891"></polygon>
                                    <polygon id="Shape" fill="#FF7575" points="5.62270712 6.57221527 4.80431176 7.44290363 5.61894611 8.317597 6.44110248 7.44370463"></polygon>
                                    <polygon id="Shape" fill="#FF7575" points="3.98666859 6.57221527 4.80431176 7.44290363 5.62270712 6.57221527 4.80130295 5.6975219"></polygon>
                                    <polygon id="Shape" fill="#FF6161" points="8.89553637 4.82603254 8.08842403 5.70312891 7.26476326 6.58022528 6.44260689 7.44450563 7.25874565 8.317597 8.07714101 7.44610763 8.89553637 6.57461827 9.71317954 5.70312891 9.71317954 3.95534418"></polygon>
                                    <polygon id="Shape" fill="#FF8585" points="6.44110248 7.44370463 5.62270712 6.57221527 4.80130295 5.6975219 3.98666859 4.82603254 3.16827323 3.95534418 3.16827323 5.6975219 3.98666859 6.57221527 4.80431176 7.44290363 5.61894611 8.317597 7.25874565 8.317597"></polygon>
                                    <polygon id="Shape" fill="#FFB308" points="5.62797253 3.08946183 3.98065098 3.08946183 4.80431176 3.9665582 5.63022914 4.82923655 6.4463679 3.96095119"></polygon>
                                    <polygon id="Shape" fill="#FFC933" points="7.26476326 3.08946183 6.4463679 3.96095119 5.63022914 4.82923655 6.43583707 5.69111389 7.25874565 4.82603254 8.08315862 3.96095119 8.90080179 3.08946183"></polygon>
                                    <polygon id="Shape" fill="#FF7F40" points="8.89553637 4.82603254 9.71317954 3.95534418 9.71317954 3.95454318 8.90080179 3.08946183 8.08315862 3.96095119"></polygon>
                                    <polygon id="Shape" fill="#FF7F40" points="4.80431176 3.9665582 3.98065098 3.08946183 3.16827323 3.95534418 3.98666859 4.82603254"></polygon>
                                    <polygon id="center_white" fill="#FFFFFF" points="10.5601586 10.0365457 2.34536466 10.0165207 2.33633824 1.27359199 10.5526365 1.28881101"></polygon>
                                    <g id="left_frame" transform="translate(1.203523, -0.000000)" fill="#06D2B3">
                                        <polygon id="Shape" points="1.14033766 1.28881101 9.34911395 1.28881101 8.19373226 0.0712891114 0.00300880649 0.0712891114 0.00225660486 8.78297872 1.14033766 10.0165207"></polygon>
                                    </g>
                                    <g id="right_frame" transform="translate(2.331825, 1.281602)" fill="#13B1F6">
                                        <polygon id="Shape" points="0.0112830243 8.73491865 1.15237288 9.95244055 9.34384854 9.95244055 9.34460074 1.24075094 8.22005932 0.00720901126 8.20576749 8.73491865"></polygon>
                                    </g>
                                    <polygon id="left_green_tail" fill="#018382" points="1.2057792 1.28881101 2.34386025 1.28881101 2.34386025 0.0712891114 0.0669459443 0.0712891114"></polygon>
                                    <polygon id="right_blue_tail" fill="#0651D7" points="11.6764258 10.0165207 10.5375925 10.0165207 10.5375925 11.2348436 12.815259 11.2348436"></polygon>
                                    <polygon id="right_pink" fill="#FF6161" points="8.89553637 4.82603254 8.08842403 5.70312891 7.26476326 6.58022528 6.44260689 7.44450563 7.25874565 8.317597 8.07714101 7.44610763 8.89553637 6.57461827 9.71317954 5.70312891 9.71317954 3.95534418"></polygon>
                                    <polygon id="left_pink" fill="#FF8585" points="6.44110248 7.44370463 5.62270712 6.57221527 4.80130295 5.6975219 3.98666859 4.82603254 3.16827323 3.95534418 3.16827323 5.6975219 3.98666859 6.57221527 4.80431176 7.44290363 5.61894611 8.317597 7.25874565 8.317597"></polygon>
                                    <polygon id="left_yellow" fill="#FFB308" points="5.62797253 3.08946183 3.98065098 3.08946183 4.80431176 3.9665582 5.63022914 4.82923655 6.4463679 3.96095119"></polygon>
                                    <polygon id="right_yellow" fill="#FFC933" points="7.26476326 3.08946183 6.4463679 3.96095119 5.63022914 4.82923655 6.43583707 5.69111389 7.25874565 4.82603254 8.08315862 3.96095119 8.90080179 3.08946183"></polygon>
                                    <polygon id="right_orange" fill="#FF7F40" points="8.89553637 4.82603254 9.71317954 3.95534418 9.71317954 3.95454318 8.90080179 3.08946183 8.08315862 3.96095119"></polygon>
                                    <polygon id="left_orange" fill="#FF7F40" points="4.80431176 3.9665582 3.98065098 3.08946183 3.16827323 3.95534418 3.98666859 4.82603254"></polygon>
                                </g>
                            </g>
                            <path d="M37.7103547,152.414052 C38.0253547,151.379052 38.3103547,150.269052 38.5803547,149.174052 L38.6403547,149.174052 C38.9253547,150.254052 39.2103547,151.379052 39.5253547,152.414052 L39.8703547,153.614052 L37.3653547,153.614052 L37.7103547,152.414052 Z M34.4253547,157.634052 L36.1953547,157.634052 L36.9603547,154.979052 L40.2603547,154.979052 L41.0253547,157.634052 L42.8553547,157.634052 L39.6603547,147.824052 L37.6203547,147.824052 L34.4253547,157.634052 Z M45.6003547,157.814052 C46.0053547,157.814052 46.3053547,157.754052 46.5153547,157.664052 L46.2903547,156.374052 C46.1553547,156.404052 46.0953547,156.404052 46.0203547,156.404052 C45.8403547,156.404052 45.6453547,156.254052 45.6453547,155.834052 L45.6453547,147.044052 L43.9203547,147.044052 L43.9203547,155.744052 C43.9203547,157.019052 44.3703547,157.814052 45.6003547,157.814052 Z M47.9853547,157.634052 L49.7103547,157.634052 L49.7103547,152.489052 C50.2803547,151.874052 50.8053547,151.574052 51.2553547,151.574052 C52.0353547,151.574052 52.3953547,152.024052 52.3953547,153.239052 L52.3953547,157.634052 L54.1203547,157.634052 L54.1203547,152.489052 C54.6903547,151.874052 55.2003547,151.574052 55.6653547,151.574052 C56.4303547,151.574052 56.7903547,152.024052 56.7903547,153.239052 L56.7903547,157.634052 L58.5303547,157.634052 L58.5303547,153.014052 C58.5303547,151.154052 57.8103547,150.089052 56.2503547,150.089052 C55.3203547,150.089052 54.5853547,150.659052 53.8803547,151.409052 C53.5353547,150.584052 52.9203547,150.089052 51.8403547,150.089052 C50.9253547,150.089052 50.2053547,150.614052 49.5903547,151.274052 L49.5303547,151.274052 L49.4103547,150.269052 L47.9853547,150.269052 L47.9853547,157.634052 Z M62.4153547,157.814052 C63.2853547,157.814052 64.0353547,157.379052 64.6953547,156.824052 L64.7553547,156.824052 L64.8753547,157.634052 L66.3003547,157.634052 L66.3003547,153.269052 C66.3003547,151.214052 65.3853547,150.089052 63.5553547,150.089052 C62.3853547,150.089052 61.3353547,150.539052 60.5253547,151.049052 L61.1553547,152.204052 C61.8153547,151.814052 62.5053547,151.484052 63.2253547,151.484052 C64.2303547,151.484052 64.5453547,152.144052 64.5753547,152.924052 C61.5453547,153.254052 60.2403547,154.079052 60.2403547,155.654052 C60.2403547,156.944052 61.1253547,157.814052 62.4153547,157.814052 Z M62.9703547,156.464052 C62.3553547,156.464052 61.9053547,156.179052 61.9053547,155.519052 C61.9053547,154.784052 62.5653547,154.259052 64.5753547,154.004052 L64.5753547,155.654052 C64.0203547,156.164052 63.5703547,156.464052 62.9703547,156.464052 Z M71.5203547,157.634052 L73.2603547,157.634052 L73.2603547,153.284052 L77.2353547,153.284052 L77.2353547,157.634052 L78.9753547,157.634052 L78.9753547,147.824052 L77.2353547,147.824052 L77.2353547,151.769052 L73.2603547,151.769052 L73.2603547,147.824052 L71.5203547,147.824052 L71.5203547,157.634052 Z M84.4653547,157.814052 C85.3953547,157.814052 86.2803547,157.484052 86.9853547,157.019052 L86.4003547,155.939052 C85.8603547,156.284052 85.3203547,156.479052 84.6903547,156.479052 C83.5053547,156.479052 82.6653547,155.729052 82.5153547,154.424052 L87.1953547,154.424052 C87.2403547,154.244052 87.2703547,153.914052 87.2703547,153.584052 C87.2703547,151.529052 86.2203547,150.089052 84.2253547,150.089052 C82.5003547,150.089052 80.8353547,151.559052 80.8353547,153.959052 C80.8353547,156.389052 82.4253547,157.814052 84.4653547,157.814052 Z M82.5003547,153.254052 C82.6503547,152.069052 83.4003547,151.424052 84.2703547,151.424052 C85.2753547,151.424052 85.7703547,152.114052 85.7703547,153.254052 L82.5003547,153.254052 Z M88.9203547,157.634052 L90.6453547,157.634052 L90.6453547,153.134052 C91.0953547,152.024052 91.8003547,151.619052 92.3853547,151.619052 C92.7003547,151.619052 92.8953547,151.664052 93.1503547,151.739052 L93.4503547,150.239052 C93.2253547,150.134052 92.9853547,150.089052 92.6103547,150.089052 C91.8303547,150.089052 91.0503547,150.614052 90.5253547,151.574052 L90.4653547,151.574052 L90.3453547,150.269052 L88.9203547,150.269052 L88.9203547,157.634052 Z M94.5153547,157.634052 L96.2403547,157.634052 L96.2403547,153.134052 C96.6903547,152.024052 97.3953547,151.619052 97.9803547,151.619052 C98.2953547,151.619052 98.4903547,151.664052 98.7453547,151.739052 L99.0453547,150.239052 C98.8203547,150.134052 98.5803547,150.089052 98.2053547,150.089052 C97.4253547,150.089052 96.6453547,150.614052 96.1203547,151.574052 L96.0603547,151.574052 L95.9403547,150.269052 L94.5153547,150.269052 L94.5153547,157.634052 Z M103.260355,157.814052 C104.190355,157.814052 105.075355,157.484052 105.780355,157.019052 L105.195355,155.939052 C104.655355,156.284052 104.115355,156.479052 103.485355,156.479052 C102.300355,156.479052 101.460355,155.729052 101.310355,154.424052 L105.990355,154.424052 C106.035355,154.244052 106.065355,153.914052 106.065355,153.584052 C106.065355,151.529052 105.015355,150.089052 103.020355,150.089052 C101.295355,150.089052 99.6303547,151.559052 99.6303547,153.959052 C99.6303547,156.389052 101.220355,157.814052 103.260355,157.814052 Z M101.295355,153.254052 C101.445355,152.069052 102.195355,151.424052 103.065355,151.424052 C104.070355,151.424052 104.565355,152.114052 104.565355,153.254052 L101.295355,153.254052 Z M107.715355,157.634052 L109.440355,157.634052 L109.440355,153.134052 C109.890355,152.024052 110.595355,151.619052 111.180355,151.619052 C111.495355,151.619052 111.690355,151.664052 111.945355,151.739052 L112.245355,150.239052 C112.020355,150.134052 111.780355,150.089052 111.405355,150.089052 C110.625355,150.089052 109.845355,150.614052 109.320355,151.574052 L109.260355,151.574052 L109.140355,150.269052 L107.715355,150.269052 L107.715355,157.634052 Z M115.095355,157.814052 C115.965355,157.814052 116.715355,157.379052 117.375355,156.824052 L117.435355,156.824052 L117.555355,157.634052 L118.980355,157.634052 L118.980355,153.269052 C118.980355,151.214052 118.065355,150.089052 116.235355,150.089052 C115.065355,150.089052 114.015355,150.539052 113.205355,151.049052 L113.835355,152.204052 C114.495355,151.814052 115.185355,151.484052 115.905355,151.484052 C116.910355,151.484052 117.225355,152.144052 117.255355,152.924052 C114.225355,153.254052 112.920355,154.079052 112.920355,155.654052 C112.920355,156.944052 113.805355,157.814052 115.095355,157.814052 Z M115.650355,156.464052 C115.035355,156.464052 114.585355,156.179052 114.585355,155.519052 C114.585355,154.784052 115.245355,154.259052 117.255355,154.004052 L117.255355,155.654052 C116.700355,156.164052 116.250355,156.464052 115.650355,156.464052 Z" id="Alma-Herrera" fill="#4A4A4A"></path>
                            <path d="M50.8824195,175.88471 C52.4024195,175.88471 53.3524195,175.04471 53.3524195,172.89471 L53.3524195,169.22471 L52.2424195,169.22471 L52.2424195,172.98471 C52.2424195,174.40471 51.6824195,174.87471 50.8824195,174.87471 C50.0924195,174.87471 49.5624195,174.40471 49.5624195,172.98471 L49.5624195,169.22471 L48.4024195,169.22471 L48.4024195,172.89471 C48.4024195,175.04471 49.3724195,175.88471 50.8824195,175.88471 Z M54.8824195,175.76471 L56.0324195,175.76471 L56.0324195,172.33471 C56.4424195,171.93471 56.7224195,171.72471 57.1524195,171.72471 C57.6924195,171.72471 57.9224195,172.02471 57.9224195,172.83471 L57.9224195,175.76471 L59.0724195,175.76471 L59.0724195,172.68471 C59.0724195,171.44471 58.6124195,170.73471 57.5624195,170.73471 C56.8924195,170.73471 56.3924195,171.08471 55.9524195,171.51471 L55.9124195,171.51471 L55.8324195,170.85471 L54.8824195,170.85471 L54.8824195,175.76471 Z M60.4824195,175.76471 L61.6324195,175.76471 L61.6324195,170.85471 L60.4824195,170.85471 L60.4824195,175.76471 Z M61.0624195,169.99471 C61.4724195,169.99471 61.7724195,169.72471 61.7724195,169.34471 C61.7724195,168.95471 61.4724195,168.68471 61.0624195,168.68471 C60.6524195,168.68471 60.3524195,168.95471 60.3524195,169.34471 C60.3524195,169.72471 60.6524195,169.99471 61.0624195,169.99471 Z M64.8324195,175.88471 C65.2224195,175.88471 65.5624195,175.79471 65.8324195,175.70471 L65.6324195,174.85471 C65.4924195,174.91471 65.2924195,174.96471 65.1224195,174.96471 C64.6524195,174.96471 64.4324195,174.68471 64.4324195,174.10471 L64.4324195,171.76471 L65.6824195,171.76471 L65.6824195,170.85471 L64.4324195,170.85471 L64.4324195,169.51471 L63.4724195,169.51471 L63.3324195,170.85471 L62.5724195,170.90471 L62.5724195,171.76471 L63.2724195,171.76471 L63.2724195,174.10471 C63.2724195,175.16471 63.6924195,175.88471 64.8324195,175.88471 Z M68.8124195,175.88471 C69.4324195,175.88471 70.0224195,175.66471 70.4924195,175.35471 L70.1024195,174.63471 C69.7424195,174.86471 69.3824195,174.99471 68.9624195,174.99471 C68.1724195,174.99471 67.6124195,174.49471 67.5124195,173.62471 L70.6324195,173.62471 C70.6624195,173.50471 70.6824195,173.28471 70.6824195,173.06471 C70.6824195,171.69471 69.9824195,170.73471 68.6524195,170.73471 C67.5024195,170.73471 66.3924195,171.71471 66.3924195,173.31471 C66.3924195,174.93471 67.4524195,175.88471 68.8124195,175.88471 Z M67.5024195,172.84471 C67.6024195,172.05471 68.1024195,171.62471 68.6824195,171.62471 C69.3524195,171.62471 69.6824195,172.08471 69.6824195,172.84471 L67.5024195,172.84471 Z M73.5024195,175.88471 C74.0324195,175.88471 74.5324195,175.59471 74.8924195,175.23471 L74.9324195,175.23471 L75.0124195,175.76471 L75.9624195,175.76471 L75.9624195,168.70471 L74.8124195,168.70471 L74.8124195,170.48471 L74.8524195,171.27471 C74.4724195,170.94471 74.1224195,170.73471 73.5624195,170.73471 C72.4924195,170.73471 71.4824195,171.71471 71.4824195,173.31471 C71.4824195,174.93471 72.2724195,175.88471 73.5024195,175.88471 Z M73.7824195,174.93471 C73.0724195,174.93471 72.6724195,174.36471 72.6724195,173.30471 C72.6724195,172.27471 73.1824195,171.68471 73.8124195,171.68471 C74.1424195,171.68471 74.4724195,171.79471 74.8124195,172.09471 L74.8124195,174.38471 C74.4824195,174.76471 74.1624195,174.93471 73.7824195,174.93471 Z M81.4324195,175.88471 C82.9024195,175.88471 83.7824195,175.00471 83.7824195,173.94471 C83.7824195,172.99471 83.2324195,172.50471 82.4624195,172.17471 L81.5724195,171.80471 C81.0324195,171.58471 80.5324195,171.39471 80.5324195,170.88471 C80.5324195,170.40471 80.9424195,170.11471 81.5624195,170.11471 C82.1224195,170.11471 82.5624195,170.32471 82.9824195,170.67471 L83.5724195,169.93471 C83.0624195,169.42471 82.3224195,169.10471 81.5624195,169.10471 C80.2824195,169.10471 79.3624195,169.90471 79.3624195,170.94471 C79.3624195,171.90471 80.0424195,172.41471 80.6824195,172.68471 L81.5824195,173.07471 C82.1724195,173.32471 82.5924195,173.49471 82.5924195,174.03471 C82.5924195,174.54471 82.1924195,174.87471 81.4524195,174.87471 C80.8524195,174.87471 80.2224195,174.57471 79.7524195,174.13471 L79.0724195,174.92471 C79.6924195,175.53471 80.5524195,175.88471 81.4324195,175.88471 Z M86.6024195,175.88471 C86.9924195,175.88471 87.3324195,175.79471 87.6024195,175.70471 L87.4024195,174.85471 C87.2624195,174.91471 87.0624195,174.96471 86.8924195,174.96471 C86.4224195,174.96471 86.2024195,174.68471 86.2024195,174.10471 L86.2024195,171.76471 L87.4524195,171.76471 L87.4524195,170.85471 L86.2024195,170.85471 L86.2024195,169.51471 L85.2424195,169.51471 L85.1024195,170.85471 L84.3424195,170.90471 L84.3424195,171.76471 L85.0424195,171.76471 L85.0424195,174.10471 C85.0424195,175.16471 85.4624195,175.88471 86.6024195,175.88471 Z M89.6724195,175.88471 C90.2524195,175.88471 90.7524195,175.59471 91.1924195,175.22471 L91.2324195,175.22471 L91.3124195,175.76471 L92.2624195,175.76471 L92.2624195,172.85471 C92.2624195,171.48471 91.6524195,170.73471 90.4324195,170.73471 C89.6524195,170.73471 88.9524195,171.03471 88.4124195,171.37471 L88.8324195,172.14471 C89.2724195,171.88471 89.7324195,171.66471 90.2124195,171.66471 C90.8824195,171.66471 91.0924195,172.10471 91.1124195,172.62471 C89.0924195,172.84471 88.2224195,173.39471 88.2224195,174.44471 C88.2224195,175.30471 88.8124195,175.88471 89.6724195,175.88471 Z M90.0424195,174.98471 C89.6324195,174.98471 89.3324195,174.79471 89.3324195,174.35471 C89.3324195,173.86471 89.7724195,173.51471 91.1124195,173.34471 L91.1124195,174.44471 C90.7424195,174.78471 90.4424195,174.98471 90.0424195,174.98471 Z M95.3724195,175.88471 C95.7624195,175.88471 96.1024195,175.79471 96.3724195,175.70471 L96.1724195,174.85471 C96.0324195,174.91471 95.8324195,174.96471 95.6624195,174.96471 C95.1924195,174.96471 94.9724195,174.68471 94.9724195,174.10471 L94.9724195,171.76471 L96.2224195,171.76471 L96.2224195,170.85471 L94.9724195,170.85471 L94.9724195,169.51471 L94.0124195,169.51471 L93.8724195,170.85471 L93.1124195,170.90471 L93.1124195,171.76471 L93.8124195,171.76471 L93.8124195,174.10471 C93.8124195,175.16471 94.2324195,175.88471 95.3724195,175.88471 Z M99.3524195,175.88471 C99.9724195,175.88471 100.562419,175.66471 101.032419,175.35471 L100.642419,174.63471 C100.282419,174.86471 99.9224195,174.99471 99.5024195,174.99471 C98.7124195,174.99471 98.1524195,174.49471 98.0524195,173.62471 L101.172419,173.62471 C101.202419,173.50471 101.222419,173.28471 101.222419,173.06471 C101.222419,171.69471 100.522419,170.73471 99.1924195,170.73471 C98.0424195,170.73471 96.9324195,171.71471 96.9324195,173.31471 C96.9324195,174.93471 97.9924195,175.88471 99.3524195,175.88471 Z M98.0424195,172.84471 C98.1424195,172.05471 98.6424195,171.62471 99.2224195,171.62471 C99.8924195,171.62471 100.222419,172.08471 100.222419,172.84471 L98.0424195,172.84471 Z M103.692419,175.88471 C104.932419,175.88471 105.602419,175.20471 105.602419,174.36471 C105.602419,173.44471 104.862419,173.12471 104.192419,172.87471 C103.662419,172.68471 103.172419,172.53471 103.172419,172.14471 C103.172419,171.83471 103.402419,171.60471 103.892419,171.60471 C104.282419,171.60471 104.632419,171.77471 104.972419,172.02471 L105.502419,171.32471 C105.102419,171.01471 104.552419,170.73471 103.872419,170.73471 C102.772419,170.73471 102.082419,171.34471 102.082419,172.20471 C102.082419,173.02471 102.812419,173.39471 103.462419,173.63471 C103.982419,173.83471 104.512419,174.01471 104.512419,174.42471 C104.512419,174.76471 104.262419,175.01471 103.732419,175.01471 C103.232419,175.01471 102.812419,174.80471 102.372419,174.46471 L101.832419,175.20471 C102.312419,175.59471 103.022419,175.88471 103.692419,175.88471 Z" id="United-States" fill="#AEAEAE"></path>
                            <g id="girl" transform="translate(44.050360, 44.047059)">
                                <g id="Capa_1" transform="translate(0.000000, 0.000000)">
                                    <g id="Group">
                                        <path d="M65.8919003,50.4967456 C65.8919003,50.4967456 71.1777211,54.178299 67.1375846,60.2007612 C67.1375846,60.2007612 71.0091378,65.926835 67.1375846,69.6531262 C67.1375846,69.6531262 68.0666254,74.1015612 62.8823211,74.3103379 C62.8823211,74.3103379 62.6653616,76.5569243 58.1414642,76.5569243 L34.5496908,70.9680466 L34.5496908,41.0674951 L64.1514605,42.0118369 C64.1514605,42.0118369 68.7537858,45.3791068 65.8919003,50.4967456 Z" id="Shape" fill="#5B402D"></path>
                                        <path d="M4.87535707,42.0118369 C4.87535707,42.0118369 0.273031724,45.3791068 3.13528375,50.4967456 C3.13528375,50.4967456 -2.15053712,54.178299 1.88923293,60.2007612 C1.88923293,60.2007612 -1.98232026,65.926835 1.88923293,69.6531262 C1.88923293,69.6531262 0.960192102,74.1015612 6.14449648,74.3103379 C6.14449648,74.3103379 6.36145592,76.5569243 10.8853534,76.5569243 L34.4771267,70.9680466 L34.4771267,41.0674951 L4.87535707,42.0118369 L4.87535707,42.0118369 Z" id="Shape" fill="#5B402D"></path>
                                        <path d="M18.3715534,52.3928854 C18.3715534,52.3928854 15.3762671,57.0128155 18.812802,58.8123961 C18.812802,58.8123961 15.8988755,61.5246291 17.9874765,63.954268 C17.9874765,63.954268 12.3923419,65.619635 15.9476181,70.6772505 C19.5028942,75.734866 34.5500573,73.4334757 34.5500573,73.4334757 L34.5500573,49.2694369 L18.3715534,52.3928854 L18.3715534,52.3928854 Z" id="Shape" fill="#543621"></path>
                                        <path d="M50.6552642,52.3928854 C50.6552642,52.3928854 53.6509169,57.0128155 50.2140156,58.8123961 C50.2140156,58.8123961 53.1283085,61.5246291 51.039341,63.954268 C51.039341,63.954268 56.6344757,65.619635 53.0791995,70.6772505 C49.5242898,75.734866 34.4767602,73.4334757 34.4767602,73.4334757 L34.4767602,49.2694369 L50.6552642,52.3928854 L50.6552642,52.3928854 Z" id="Shape" fill="#543621"></path>
                                        <g transform="translate(8.062682, 11.557282)">
                                            <g>
                                                <rect id="Rectangle-path" fill="#D7A674" x="21.0278405" y="46.2600699" width="10.7728423" height="12.2742058"></rect>
                                                <path d="M21.0278405,47.7058485 C21.0278405,47.7058485 25.5594342,50.6413981 31.8006828,49.9617553 L31.8006828,46.2600699 L21.0278405,46.2600699 L21.0278405,47.7058485 L21.0278405,47.7058485 Z" id="Shape" fill="#C39361"></path>
                                                <ellipse id="Oval" fill="#FCBC85" cx="5.49361817" cy="27.2278369" rx="5.25650203" ry="6.1007534"></ellipse>
                                                <ellipse id="Oval" fill="#FCBC85" cx="47.3345387" cy="27.2278369" rx="5.25650203" ry="6.1007534"></ellipse>
                                                <path d="M47.3132826,15.5751146 C47.3132826,6.58876893 40.8495772,0.0137941748 26.4144449,0.0137941748 C11.9785797,0.0137941748 5.51524082,6.58914175 5.51524082,15.5751146 C5.51524082,24.5614602 4.00715284,48.2326369 26.4144449,48.2326369 C48.8213705,48.2326369 47.3132826,24.561833 47.3132826,15.5751146 L47.3132826,15.5751146 Z" id="Shape" fill="#D8A674"></path>
                                                <g transform="translate(12.094023, 17.895146)">
                                                    <g transform="translate(1.832428, 5.219417)" id="Oval">
                                                        <ellipse fill="#3B2519" cx="2.30849238" cy="2.65258252" rx="2.26231521" ry="2.52060583"></ellipse>
                                                        <ellipse fill="#FFFFFF" cx="1.32191332" cy="1.53972816" rx="0.676532298" ry="0.688217476"></ellipse>
                                                    </g>
                                                    <path d="M0.521875402,2.43746796 C1.59128019,2.85390291 3.3089979,1.02114175 7.2410212,2.61567379 C7.95786691,2.9064699 8.38592201,0.129739806 4.17097187,0.129739806 C0.521875402,0.12936699 -0.124238596,2.18544466 0.521875402,2.43746796 L0.521875402,2.43746796 Z" id="Shape" fill="#86461B"></path>
                                                    <g transform="translate(22.355618, 5.219417)" id="Oval">
                                                        <ellipse fill="#3B2519" cx="2.42356884" cy="2.65258252" rx="2.26231521" ry="2.52060583"></ellipse>
                                                        <ellipse fill="#FFFFFF" cx="1.43698978" cy="1.53972816" rx="0.676898783" ry="0.688590291"></ellipse>
                                                    </g>
                                                    <path d="M28.1186027,2.43746796 C27.0488314,2.85390291 25.3314802,1.02114175 21.3990904,2.61567379 C20.6826112,2.9064699 20.2545561,0.129739806 24.4695062,0.129739806 C28.1186027,0.12936699 28.7650832,2.18544466 28.1186027,2.43746796 L28.1186027,2.43746796 Z" id="Shape" fill="#86461B"></path>
                                                </g>
                                                <path d="M22.8324153,33.7558369 C22.8324153,34.5775223 23.4788958,36.1392466 26.4144449,36.1392466 C29.3499941,36.1392466 29.9961081,34.5775223 29.9961081,33.7558369 C29.9961081,32.9341515 28.6496402,34.632699 26.4144449,34.632699 C24.1788832,34.632699 22.8324153,32.9337786 22.8324153,33.7558369 Z" id="Shape" fill="#BE874F"></path>
                                                <path d="M26.4144449,40.0959379 C22.8712628,40.0959379 20.7364845,38.6277903 20.7364845,39.000233 C20.7364845,39.3719301 21.7611781,40.8359767 26.4144449,40.8359767 C31.0677118,40.8359767 32.0920388,39.3719301 32.0920388,39.000233 C32.0920388,38.6277903 29.9576271,40.0959379 26.4144449,40.0959379 L26.4144449,40.0959379 Z" id="Shape" fill="#BE8750"></path>
                                            </g>
                                            <ellipse id="Oval" fill-opacity="0.200000018" fill="#FFFFFF" cx="13.3257805" cy="33.8218252" rx="3.07041581" ry="3.12344854"></ellipse>
                                            <ellipse id="Oval" fill-opacity="0.200000018" fill="#FFFFFF" cx="39.8802229" cy="33.8218252" rx="3.07004933" ry="3.12307573"></ellipse>
                                        </g>
                                        <path d="M34.4771267,62.7485825 L34.4771267,76.5569243 L10.8853534,76.5569243 C10.8853534,70.9680466 22.0884497,62.7485825 34.4771267,62.7485825 L34.4771267,62.7485825 Z" id="Shape" fill="#F7ACBA"></path>
                                        <path d="M34.4771267,62.7485825 L34.4771267,76.5569243 L58.0685336,76.5569243 C58.0685336,70.9680466 46.8654372,62.7485825 34.4771267,62.7485825 L34.4771267,62.7485825 Z" id="Shape" fill="#F7ACBA"></path>
                                        <path d="M34.4067615,62.7485825 C31.7420452,62.7485825 29.0139268,63.1232621 26.3686342,63.7630136 C26.386592,63.786501 29.3027174,67.5705786 34.4067615,67.5705786 C39.1336919,67.5705786 42.2759389,64.330066 42.7314804,63.8312388 C39.9974983,63.1486136 37.1678635,62.7485825 34.4067615,62.7485825 L34.4067615,62.7485825 Z" id="Shape" fill="#F5919D"></path>
                                        <path d="M29.0905223,63.226532 C29.0905223,63.226532 30.6660436,65.2143845 34.4767602,65.2143845 C38.2874768,65.2143845 39.8629981,63.226532 39.8629981,63.226532 C39.8629981,63.226532 34.2751932,61.157033 29.0905223,63.226532 L29.0905223,63.226532 Z" id="Shape" fill="#D7A674"></path>
                                        <path d="M63.3510561,28.3529942 C69.3808426,33.5985087 64.5776831,38.7851184 64.5776831,38.7851184 C66.5801601,44.8858718 59.7932145,46.3927922 59.7932145,46.3927922 C59.7932145,46.3927922 57.3150393,52.228101 53.9217497,50.4967456 C50.5280937,48.7650175 52.305915,43.0229126 52.305915,43.0229126 C50.1407185,40.6391301 52.4671686,38.0913087 52.4671686,38.0913087 C49.8816132,35.6255068 52.1439284,30.6939029 52.1439284,30.6939029 C49.558373,29.8722175 48.7506388,26.4199456 48.7506388,26.4199456 C44.7108688,26.255534 43.5795279,20.6662835 43.5795279,20.6662835 C43.5795279,20.6662835 42.2869335,25.4334757 37.1158226,23.789732 C37.1158226,23.789732 32.4299385,28.0636893 29.0362825,24.7762019 C29.0362825,24.7762019 24.1884118,28.228101 21.6032228,24.4473786 C21.6032228,24.4473786 21.6032228,28.3925126 16.2704918,29.2141981 C16.2704918,29.2141981 18.3711869,34.8034485 15.6240113,37.2688777 C15.6240113,37.2688777 18.8556808,43.1865786 16.1088717,45.6523806 C16.1088717,45.6523806 20.9567423,49.7619262 18.3711869,52.3921398 C15.7856314,55.0223534 11.5842413,53.0497864 11.4226212,49.2686913 C11.4226212,49.2686913 5.28215602,50.0907495 5.60539626,43.1865786 C5.60539626,43.1865786 1.08076584,37.1048388 4.79766214,32.1728621 C4.79766214,32.1728621 1.72724633,26.2551612 6.08989013,21.817165 C6.08989013,21.817165 5.60539626,13.2692505 11.5842413,11.4610951 C11.5842413,11.4610951 14.0078101,4.06368932 20.4715155,5.21457087 C20.4715155,5.21457087 24.6729057,-1.0319534 31.2982312,2.09112233 C31.2982312,2.09112233 38.5700372,-2.18283495 42.7714273,2.74876893 C42.7714273,2.74876893 47.0058012,-0.0454834951 50.1399855,5.21457087 C50.1399855,5.21457087 55.537218,6.25547184 56.0217118,11.5707029 C56.0217118,11.5707029 63.5617852,13.2144466 61.516063,19.7897942 C61.516796,19.790167 67.1559089,21.7776466 63.3510561,28.3529942 L63.3510561,28.3529942 Z" id="Shape" fill="#463021"></path>
                                        <path d="M22.9346648,65.069732 C15.9084041,67.9150602 10.8849869,72.8187029 10.8849869,76.5572971 L26.0281692,76.5572971 L22.9346648,65.069732 L22.9346648,65.069732 Z" id="Shape" fill="#D85B72"></path>
                                        <path d="M27.2591941,76.5569243 C27.2591941,76.5569243 24.2426517,67.5157748 23.9197779,63.9538951 C23.9197779,63.9538951 22.2771897,64.0556738 20.4183751,65.6528155 C20.4183751,65.6528155 22.7884371,73.323868 24.296525,76.5021204 L27.2591941,76.5569243 L27.2591941,76.5569243 Z" id="Shape" fill="#BA396A"></path>
                                        <path d="M46.0192221,65.069732 C53.0454828,67.9150602 58.0685336,72.8187029 58.0685336,76.5572971 L42.9257177,76.5572971 L46.0192221,65.069732 L46.0192221,65.069732 Z" id="Shape" fill="#D85B72"></path>
                                        <path d="M41.6946928,76.5569243 C41.6946928,76.5569243 44.7108688,67.5157748 45.034109,63.9538951 C45.034109,63.9538951 46.6766972,64.0556738 48.5355118,65.6528155 C48.5355118,65.6528155 46.1654499,73.323868 44.6573619,76.5021204 L41.6946928,76.5569243 L41.6946928,76.5569243 Z" id="Shape" fill="#BA396A"></path>
                                    </g>
                                </g>
                            </g>
                        </g>
                        <g id="Group-2" transform="translate(261.500000, 129.000000) rotate(-345.000000) translate(-261.500000, -129.000000) translate(183.000000, 33.000000)">
                            <g id="Group-3-Copy" transform="translate(0.000000, -0.000000)">
                                <g id="Rectangle-10">
                                    <use fill="black" fill-opacity="1" filter="url(#filter-4)" xlink:href="#path-3"></use>
                                    <use fill="#FFFFFF" fill-rule="evenodd" xlink:href="#path-3"></use>
                                </g>
                                <g id="Brand" transform="translate(42.920863, 13.552941)">
                                    <g id="Layer_2">
                                        <path d="M19.3195464,8.48340426 C18.9367958,8.69780933 18.5101222,8.80788913 18.0776616,8.80380476 C17.0388711,8.80380476 16.3378192,8.42573217 15.8646844,7.93151439 C14.6931502,6.67807026 14.6931502,4.65209245 15.8646844,3.39864831 C16.3626419,2.88600751 17.0892686,2.53516896 17.9708489,2.53516896 C18.3424365,2.53516896 18.7734481,2.61526909 19.3248119,2.86758448 L19.3248119,4.46958698 C19.0374708,4.14918648 18.6072115,3.82878598 18.0077068,3.82878598 C17.534572,3.82878598 17.1547102,3.98898623 16.8590949,4.29657071 C16.5104931,4.66335336 16.3168993,5.16529199 16.3227752,5.68710889 C16.3227752,6.30788486 16.5589665,6.74843554 16.8124584,7.00956195 C17.139386,7.34215884 17.5767205,7.52331509 18.0287685,7.51339174 C18.366507,7.51339174 18.8223412,7.41406758 19.3210508,6.89261577 L19.3195464,8.48340426 Z" id="Shape" fill="#333333"></path>
                                        <path d="M23.6687762,7.53902378 L21.5400456,7.53902378 L21.1090341,8.67244055 L19.7550712,8.67244055 L22.0267201,2.67374218 L23.2174552,2.67374218 L25.4387066,8.67244055 L24.0847437,8.67244055 L23.6687762,7.53902378 Z M23.3137371,6.47769712 L22.6209594,4.46317897 L21.9199074,6.47769712 L23.3137371,6.47769712 Z" id="Shape" fill="#333333"></path>
                                        <path d="M28.0511029,2.67374218 C28.7687032,2.67374218 29.2170154,2.92525657 29.4870558,3.19519399 C29.7232471,3.43549437 29.976739,3.86963705 29.976739,4.53526909 C29.976739,4.91334168 29.9015189,5.38032541 29.5374533,5.758398 C29.3169368,5.98050726 29.0465244,6.13855186 28.7521548,6.21737171 L30.4822185,8.67244055 L28.8958253,8.67244055 L27.3756258,6.30708385 L27.3756258,8.67244055 L26.0750692,8.67244055 L26.0750692,2.67374218 L28.0511029,2.67374218 Z M27.3741214,5.39714643 L27.6697366,5.39714643 C27.905928,5.39714643 28.227118,5.36991239 28.4467609,5.13602003 C28.5882586,4.97935342 28.6644595,4.7685509 28.6581296,4.55128911 C28.6696072,4.31431714 28.5719263,4.08625459 28.3963634,3.94012516 C28.1849948,3.76951189 27.8472562,3.75108886 27.6787631,3.75108886 L27.3778824,3.75108886 L27.3741214,5.39714643 Z" id="Shape" fill="#333333"></path>
                                        <polygon id="Shape" fill="#333333" points="34.2161474 3.84480601 32.3356433 3.84480601 32.3356433 5.00465582 34.1258832 5.00465582 34.1258832 6.17411765 32.3356433 6.17411765 32.3356433 7.50538173 34.2161474 7.50538173 34.2161474 8.67484355 31.0320779 8.67484355 31.0320779 2.67374218 34.2161474 2.67374218"></polygon>
                                        <polygon id="Shape" fill="#333333" points="35.1789654 8.67244055 36.0816074 2.67374218 37.1625211 2.67374218 38.5646249 6.26222778 39.9667287 2.67374218 41.0476425 2.67374218 41.9502844 8.67244055 40.6512322 8.67244055 40.1999113 5.09276596 38.7895332 8.67244055 38.333699 8.67244055 36.923321 5.09276596 36.472 8.67244055"></polygon>
                                        <polygon id="Shape" fill="#333333" points="46.0558009 3.84480601 44.1752968 3.84480601 44.1752968 5.00465582 45.9595191 5.00465582 45.9595191 6.17411765 44.1692792 6.17411765 44.1692792 7.50538173 46.0497833 7.50538173 46.0497833 8.67484355 42.8717314 8.67484355 42.8717314 2.67374218 46.0558009 2.67374218"></polygon>
                                        <path d="M50.0672921,4.13957447 C49.645307,3.73506884 49.2819936,3.70783479 49.1217747,3.70783479 C48.9442551,3.70783479 48.7246122,3.73506884 48.5726675,3.91449312 C48.4798517,4.01542511 48.4282174,4.15130218 48.428997,4.29256571 C48.4224166,4.41790199 48.4687626,4.53981519 48.5553669,4.62498123 C48.6907632,4.75954944 48.8848312,4.81401752 49.264693,4.96700876 L49.6866781,5.13762203 C49.9318958,5.23694618 50.2357853,5.37151439 50.4554282,5.59659574 C50.7332409,5.89061287 50.8831996,6.29476714 50.869139,6.71158949 C50.869139,7.33236546 50.6667968,7.8714393 50.3711816,8.19584481 C49.8732241,8.75654568 49.1465973,8.80700876 48.7750097,8.80700876 C48.3898024,8.82024491 48.0073143,8.73394739 47.6602469,8.55549437 C47.3561118,8.3802335 47.0774126,8.15899748 46.8328251,7.89867334 L47.5098066,6.9094368 C47.6706736,7.08054835 47.8470467,7.23428865 48.0363477,7.36841051 C48.2484837,7.51120577 48.494717,7.58600311 48.7456739,7.58387985 C48.9595237,7.59179577 49.16906,7.51855459 49.3369043,7.37722153 C49.4692232,7.25586036 49.5434799,7.07772307 49.5392466,6.89181477 C49.5429466,6.7231728 49.4708475,6.5627754 49.3451786,6.46007509 C49.1947382,6.32550688 48.8472211,6.19013767 48.6862499,6.12765957 L48.2161239,5.95624531 C47.9543578,5.85692115 47.6504683,5.73116395 47.4308254,5.47564456 C47.1352102,5.14322904 47.0930869,4.72030038 47.0930869,4.43434293 C47.0930869,3.9040801 47.2435272,3.4539174 47.5827702,3.08545682 C47.9799326,2.65371715 48.4523152,2.53677096 48.9765998,2.53677096 C49.5803708,2.53167122 50.1686005,2.7404684 50.648744,3.13031289 L50.0672921,4.13957447 Z" id="Shape" fill="#333333"></path>
                                        <path d="M54.7121371,4.13957447 C54.290152,3.73506884 53.9268386,3.70783479 53.7666197,3.70783479 C53.5891001,3.70783479 53.3694572,3.73506884 53.2175125,3.91449312 C53.1247662,4.01547353 53.0731439,4.15131883 53.073842,4.29256571 C53.0672616,4.41790199 53.1136076,4.53981519 53.2002119,4.62498123 C53.3356082,4.75954944 53.5296762,4.81401752 53.909538,4.96700876 L54.3315231,5.13762203 C54.5767408,5.23694618 54.8806303,5.37151439 55.1002732,5.59659574 C55.3780859,5.89061287 55.5280446,6.29476714 55.5139841,6.71158949 C55.5139841,7.33236546 55.3116418,7.8714393 55.0160266,8.19584481 C54.5180691,8.75654568 53.7914423,8.80700876 53.4198547,8.80700876 C53.0346474,8.82024491 52.6521593,8.73394739 52.3050919,8.55549437 C52.0009569,8.3802335 51.7222576,8.15899748 51.4776702,7.89867334 L52.1546516,6.9094368 C52.3155352,7.08052891 52.4919063,7.23426757 52.6811928,7.36841051 C52.8933462,7.51116415 53.1395677,7.58595793 53.3905189,7.58387985 C53.6043687,7.59179577 53.813905,7.51855459 53.9817494,7.37722153 C54.1140682,7.25586036 54.1883249,7.07772307 54.1840916,6.89181477 C54.1877916,6.7231728 54.1156926,6.5627754 53.9900236,6.46007509 C53.8395833,6.32550688 53.4920661,6.19013767 53.331095,6.12765957 L52.8662344,5.95704631 C52.6044682,5.85772215 52.3005787,5.73196496 52.0809359,5.47644556 C51.7853206,5.14403004 51.7431973,4.72110138 51.7431973,4.43514393 C51.7431973,3.9048811 51.8936377,3.4547184 52.2328806,3.08625782 C52.630043,2.65451815 53.1024257,2.53757196 53.6267102,2.53757196 C54.2304813,2.53247223 54.818711,2.7412694 55.2988544,3.13111389 L54.7121371,4.13957447 Z" id="Shape" fill="#333333"></path>
                                        <path d="M59.5848992,7.53902378 L57.4561686,7.53902378 L57.0251571,8.67244055 L55.6711942,8.67244055 L57.9428431,2.67374218 L59.1335783,2.67374218 L61.3548297,8.67244055 L60.0008667,8.67244055 L59.5848992,7.53902378 Z M59.2298601,6.47769712 L58.5370824,4.46317897 L57.8360305,6.47769712 L59.2298601,6.47769712 Z" id="Shape" fill="#333333"></path>
                                        <path d="M64.4486349,5.39874844 L67.246825,5.39874844 L67.246825,5.46202753 C67.246825,6.19013767 67.0016072,7.2963204 66.3772799,7.98918648 C65.7529525,8.68205257 65.0315912,8.81101377 64.3643883,8.81101377 C63.6971855,8.81101377 62.9622845,8.69406758 62.3033559,7.97476846 C61.9738916,7.6151189 61.4759341,6.88620776 61.4759341,5.69031289 C61.4759341,4.70988736 61.8136726,3.92811014 62.2868075,3.41466834 C62.9795852,2.65051314 63.8325818,2.54237797 64.4997846,2.54237797 C64.9646452,2.54237797 65.5528669,2.6224781 66.079408,2.99173967 C66.4537738,3.27263127 66.7653209,3.63803103 66.9918286,4.06187735 L65.8176419,4.7331164 C65.7012295,4.47904476 65.5307178,4.25742595 65.3196844,4.08590738 C65.0698504,3.89233587 64.7673099,3.79132423 64.4584135,3.79834793 C63.9431554,3.79834793 63.5632936,3.97857322 63.2932532,4.28375469 C62.9810896,4.63459324 62.8118442,5.14723404 62.8118442,5.70473091 C62.8118442,6.38798498 63.0480355,6.82613267 63.284979,7.08085106 C63.6144433,7.44050063 63.9943051,7.54863579 64.4253167,7.54863579 C64.9826981,7.54863579 65.2783133,7.34197747 65.4031788,7.22823529 C65.6027955,7.04061269 65.7441825,6.79284574 65.8086155,6.51774718 L64.4486349,6.51774718 L64.4486349,5.39874844 Z" id="Shape" fill="#333333"></path>
                                        <polygon id="Shape" fill="#333333" points="71.1462382 3.84480601 69.2657341 3.84480601 69.2657341 5.00465582 71.055974 5.00465582 71.055974 6.17411765 69.2627253 6.17411765 69.2627253 7.50538173 71.1432293 7.50538173 71.1432293 8.67484355 67.9621687 8.67484355 67.9621687 2.67374218 71.1462382 2.67374218"></polygon>
                                        <polygon id="Shape" fill="#FFFFFF" points="10.5601586 10.0365457 2.34536466 10.0165207 2.33633824 1.27359199 10.5526365 1.28881101"></polygon>
                                        <polygon id="Shape" fill="#FFFFFF" points="10.5594064 10.0365457 2.34386025 10.0165207 2.33558603 1.27359199 10.5526365 1.28881101"></polygon>
                                        <polygon id="Shape" fill="#FFCE4D" points="8.08315862 3.96095119 8.90080179 3.08946183 7.26476326 3.08946183"></polygon>
                                        <polygon id="Shape" fill="#FFC11C" points="5.62797253 3.08946183 3.98065098 3.08946183 4.80431176 3.9665582"></polygon>
                                        <polygon id="Shape" fill="#FF6161" points="9.71317954 5.70312891 9.71317954 3.95534418 8.89553637 4.82603254"></polygon>
                                        <polygon id="Shape" fill="#FF9640" points="8.89553637 4.82603254 9.71317954 3.95534418 9.71317954 3.95454318 8.90080179 3.08946183 8.08315862 3.96095119"></polygon>
                                        <polygon id="Shape" fill="#FF7575" points="3.16827323 5.6975219 3.98666859 4.82603254 3.16827323 3.95534418"></polygon>
                                        <polygon id="Shape" fill="#FF9640" points="4.80431176 3.9665582 3.98065098 3.08946183 3.16827323 3.95534418 3.98666859 4.82603254"></polygon>
                                        <polygon id="Shape" fill="#FFCE4D" points="8.08315862 3.96095119 7.26476326 3.08946183 6.4463679 3.96095119 7.25874565 4.82603254"></polygon>
                                        <polygon id="Shape" fill="#FFC11C" points="6.4463679 3.96095119 5.62797253 3.08946183 4.80431176 3.9665582 5.63022914 4.83404255"></polygon>
                                        <polygon id="Shape" fill="#FFCE4D" points="6.43583707 5.69111389 7.25874565 4.82603254 6.4463679 3.96095119 5.63022914 4.83404255"></polygon>
                                        <polygon id="Shape" fill="#FF7575" points="5.61894611 8.317597 7.25874565 8.317597 6.44110248 7.44370463"></polygon>
                                        <polygon id="Shape" fill="#FF6161" points="8.89553637 4.82603254 8.08842403 5.70312891 9.71317954 5.70312891"></polygon>
                                        <polygon id="Shape" fill="#FF6161" points="8.89553637 6.57461827 9.71317954 5.70312891 8.08842403 5.70312891"></polygon>
                                        <polygon id="Shape" fill="#FF7575" points="3.98666859 4.82603254 3.16827323 5.6975219 4.80130295 5.6975219"></polygon>
                                        <polygon id="Shape" fill="#FF7575" points="4.80130295 5.6975219 3.16827323 5.6975219 3.98666859 6.57221527"></polygon>
                                        <polygon id="Shape" fill="#FF6161" points="7.26476326 6.58022528 6.44260689 7.44450563 7.25874565 8.317597 8.07714101 7.44610763"></polygon>
                                        <polygon id="Shape" fill="#FF6161" points="7.26476326 6.58022528 8.07714101 7.44610763 8.89553637 6.57461827 8.08842403 5.70312891"></polygon>
                                        <polygon id="Shape" fill="#FF7575" points="5.62270712 6.57221527 4.80431176 7.44290363 5.61894611 8.317597 6.44110248 7.44370463"></polygon>
                                        <polygon id="Shape" fill="#FF7575" points="3.98666859 6.57221527 4.80431176 7.44290363 5.62270712 6.57221527 4.80130295 5.6975219"></polygon>
                                        <polygon id="Shape" fill="#FF6161" points="8.89553637 4.82603254 8.08842403 5.70312891 7.26476326 6.58022528 6.44260689 7.44450563 7.25874565 8.317597 8.07714101 7.44610763 8.89553637 6.57461827 9.71317954 5.70312891 9.71317954 3.95534418"></polygon>
                                        <polygon id="Shape" fill="#FF8585" points="6.44110248 7.44370463 5.62270712 6.57221527 4.80130295 5.6975219 3.98666859 4.82603254 3.16827323 3.95534418 3.16827323 5.6975219 3.98666859 6.57221527 4.80431176 7.44290363 5.61894611 8.317597 7.25874565 8.317597"></polygon>
                                        <polygon id="Shape" fill="#FFB308" points="5.62797253 3.08946183 3.98065098 3.08946183 4.80431176 3.9665582 5.63022914 4.82923655 6.4463679 3.96095119"></polygon>
                                        <polygon id="Shape" fill="#FFC933" points="7.26476326 3.08946183 6.4463679 3.96095119 5.63022914 4.82923655 6.43583707 5.69111389 7.25874565 4.82603254 8.08315862 3.96095119 8.90080179 3.08946183"></polygon>
                                        <polygon id="Shape" fill="#FF7F40" points="8.89553637 4.82603254 9.71317954 3.95534418 9.71317954 3.95454318 8.90080179 3.08946183 8.08315862 3.96095119"></polygon>
                                        <polygon id="Shape" fill="#FF7F40" points="4.80431176 3.9665582 3.98065098 3.08946183 3.16827323 3.95534418 3.98666859 4.82603254"></polygon>
                                        <polygon id="center_white" fill="#FFFFFF" points="10.5601586 10.0365457 2.34536466 10.0165207 2.33633824 1.27359199 10.5526365 1.28881101"></polygon>
                                        <g id="left_frame" transform="translate(1.203523, 0.000000)" fill="#06D2B3">
                                            <polygon id="Shape" points="1.14033766 1.28881101 9.34911395 1.28881101 8.19373226 0.0712891114 0.00300880649 0.0712891114 0.00225660486 8.78297872 1.14033766 10.0165207"></polygon>
                                        </g>
                                        <g id="right_frame" transform="translate(2.331825, 1.281602)" fill="#13B1F6">
                                            <polygon id="Shape" points="0.0112830243 8.73491865 1.15237288 9.95244055 9.34384854 9.95244055 9.34460074 1.24075094 8.22005932 0.00720901126 8.20576749 8.73491865"></polygon>
                                        </g>
                                        <polygon id="left_green_tail" fill="#018382" points="1.2057792 1.28881101 2.34386025 1.28881101 2.34386025 0.0712891114 0.0669459443 0.0712891114"></polygon>
                                        <polygon id="right_blue_tail" fill="#0651D7" points="11.6764258 10.0165207 10.5375925 10.0165207 10.5375925 11.2348436 12.815259 11.2348436"></polygon>
                                        <polygon id="right_pink" fill="#FF6161" points="8.89553637 4.82603254 8.08842403 5.70312891 7.26476326 6.58022528 6.44260689 7.44450563 7.25874565 8.317597 8.07714101 7.44610763 8.89553637 6.57461827 9.71317954 5.70312891 9.71317954 3.95534418"></polygon>
                                        <polygon id="left_pink" fill="#FF8585" points="6.44110248 7.44370463 5.62270712 6.57221527 4.80130295 5.6975219 3.98666859 4.82603254 3.16827323 3.95534418 3.16827323 5.6975219 3.98666859 6.57221527 4.80431176 7.44290363 5.61894611 8.317597 7.25874565 8.317597"></polygon>
                                        <polygon id="left_yellow" fill="#FFB308" points="5.62797253 3.08946183 3.98065098 3.08946183 4.80431176 3.9665582 5.63022914 4.82923655 6.4463679 3.96095119"></polygon>
                                        <polygon id="right_yellow" fill="#FFC933" points="7.26476326 3.08946183 6.4463679 3.96095119 5.63022914 4.82923655 6.43583707 5.69111389 7.25874565 4.82603254 8.08315862 3.96095119 8.90080179 3.08946183"></polygon>
                                        <polygon id="right_orange" fill="#FF7F40" points="8.89553637 4.82603254 9.71317954 3.95534418 9.71317954 3.95454318 8.90080179 3.08946183 8.08315862 3.96095119"></polygon>
                                        <polygon id="left_orange" fill="#FF7F40" points="4.80431176 3.9665582 3.98065098 3.08946183 3.16827323 3.95534418 3.98666859 4.82603254"></polygon>
                                    </g>
                                </g>
                                <path d="M41.7547287,156.390725 L47.8147287,156.390725 L47.8147287,154.920725 L43.4947287,154.920725 L43.4947287,152.025725 L47.0197287,152.025725 L47.0197287,150.555725 L43.4947287,150.555725 L43.4947287,148.050725 L47.6647287,148.050725 L47.6647287,146.580725 L41.7547287,146.580725 L41.7547287,156.390725 Z M52.2697287,156.570725 C52.8547287,156.570725 53.3647287,156.435725 53.7697287,156.300725 L53.4697287,155.025725 C53.2597287,155.115725 52.9597287,155.190725 52.7047287,155.190725 C51.9997287,155.190725 51.6697287,154.770725 51.6697287,153.900725 L51.6697287,150.390725 L53.5447287,150.390725 L53.5447287,149.025725 L51.6697287,149.025725 L51.6697287,147.015725 L50.2297287,147.015725 L50.0197287,149.025725 L48.8797287,149.100725 L48.8797287,150.390725 L49.9297287,150.390725 L49.9297287,153.900725 C49.9297287,155.490725 50.5597287,156.570725 52.2697287,156.570725 Z M55.0897287,156.390725 L56.8147287,156.390725 L56.8147287,151.245725 C57.4297287,150.645725 57.8497287,150.330725 58.4947287,150.330725 C59.3047287,150.330725 59.6497287,150.780725 59.6497287,151.995725 L59.6497287,156.390725 L61.3747287,156.390725 L61.3747287,151.770725 C61.3747287,149.910725 60.6847287,148.845725 59.1097287,148.845725 C58.1047287,148.845725 57.3697287,149.370725 56.7547287,149.955725 L56.8147287,148.530725 L56.8147287,145.800725 L55.0897287,145.800725 L55.0897287,156.390725 Z M66.6097287,156.570725 C67.5397287,156.570725 68.4247287,156.240725 69.1297287,155.775725 L68.5447287,154.695725 C68.0047287,155.040725 67.4647287,155.235725 66.8347287,155.235725 C65.6497287,155.235725 64.8097287,154.485725 64.6597287,153.180725 L69.3397287,153.180725 C69.3847287,153.000725 69.4147287,152.670725 69.4147287,152.340725 C69.4147287,150.285725 68.3647287,148.845725 66.3697287,148.845725 C64.6447287,148.845725 62.9797287,150.315725 62.9797287,152.715725 C62.9797287,155.145725 64.5697287,156.570725 66.6097287,156.570725 Z M64.6447287,152.010725 C64.7947287,150.825725 65.5447287,150.180725 66.4147287,150.180725 C67.4197287,150.180725 67.9147287,150.870725 67.9147287,152.010725 L64.6447287,152.010725 Z M72.7447287,156.570725 C73.1497287,156.570725 73.4497287,156.510725 73.6597287,156.420725 L73.4347287,155.130725 C73.2997287,155.160725 73.2397287,155.160725 73.1647287,155.160725 C72.9847287,155.160725 72.7897287,155.010725 72.7897287,154.590725 L72.7897287,145.800725 L71.0647287,145.800725 L71.0647287,154.500725 C71.0647287,155.775725 71.5147287,156.570725 72.7447287,156.570725 Z M81.1447287,156.570725 C83.3497287,156.570725 84.6697287,155.250725 84.6697287,153.660725 C84.6697287,152.235725 83.8447287,151.500725 82.6897287,151.005725 L81.3547287,150.450725 C80.5447287,150.120725 79.7947287,149.835725 79.7947287,149.070725 C79.7947287,148.350725 80.4097287,147.915725 81.3397287,147.915725 C82.1797287,147.915725 82.8397287,148.230725 83.4697287,148.755725 L84.3547287,147.645725 C83.5897287,146.880725 82.4797287,146.400725 81.3397287,146.400725 C79.4197287,146.400725 78.0397287,147.600725 78.0397287,149.160725 C78.0397287,150.600725 79.0597287,151.365725 80.0197287,151.770725 L81.3697287,152.355725 C82.2547287,152.730725 82.8847287,152.985725 82.8847287,153.795725 C82.8847287,154.560725 82.2847287,155.055725 81.1747287,155.055725 C80.2747287,155.055725 79.3297287,154.605725 78.6247287,153.945725 L77.6047287,155.130725 C78.5347287,156.045725 79.8247287,156.570725 81.1447287,156.570725 Z M86.3047287,156.390725 L88.0297287,156.390725 L88.0297287,151.245725 C88.5997287,150.630725 89.1247287,150.330725 89.5747287,150.330725 C90.3547287,150.330725 90.7147287,150.780725 90.7147287,151.995725 L90.7147287,156.390725 L92.4397287,156.390725 L92.4397287,151.245725 C93.0097287,150.630725 93.5197287,150.330725 93.9847287,150.330725 C94.7497287,150.330725 95.1097287,150.780725 95.1097287,151.995725 L95.1097287,156.390725 L96.8497287,156.390725 L96.8497287,151.770725 C96.8497287,149.910725 96.1297287,148.845725 94.5697287,148.845725 C93.6397287,148.845725 92.9047287,149.415725 92.1997287,150.165725 C91.8547287,149.340725 91.2397287,148.845725 90.1597287,148.845725 C89.2447287,148.845725 88.5247287,149.370725 87.9097287,150.030725 L87.8497287,150.030725 L87.7297287,149.025725 L86.3047287,149.025725 L86.3047287,156.390725 Z M98.9497287,156.390725 L100.674729,156.390725 L100.674729,149.025725 L98.9497287,149.025725 L98.9497287,156.390725 Z M99.8197287,147.735725 C100.434729,147.735725 100.884729,147.330725 100.884729,146.760725 C100.884729,146.175725 100.434729,145.770725 99.8197287,145.770725 C99.2047287,145.770725 98.7547287,146.175725 98.7547287,146.760725 C98.7547287,147.330725 99.2047287,147.735725 99.8197287,147.735725 Z M105.474729,156.570725 C106.059729,156.570725 106.569729,156.435725 106.974729,156.300725 L106.674729,155.025725 C106.464729,155.115725 106.164729,155.190725 105.909729,155.190725 C105.204729,155.190725 104.874729,154.770725 104.874729,153.900725 L104.874729,150.390725 L106.749729,150.390725 L106.749729,149.025725 L104.874729,149.025725 L104.874729,147.015725 L103.434729,147.015725 L103.224729,149.025725 L102.084729,149.100725 L102.084729,150.390725 L103.134729,150.390725 L103.134729,153.900725 C103.134729,155.490725 103.764729,156.570725 105.474729,156.570725 Z M108.294729,156.390725 L110.019729,156.390725 L110.019729,151.245725 C110.634729,150.645725 111.054729,150.330725 111.699729,150.330725 C112.509729,150.330725 112.854729,150.780725 112.854729,151.995725 L112.854729,156.390725 L114.579729,156.390725 L114.579729,151.770725 C114.579729,149.910725 113.889729,148.845725 112.314729,148.845725 C111.309729,148.845725 110.574729,149.370725 109.959729,149.955725 L110.019729,148.530725 L110.019729,145.800725 L108.294729,145.800725 L108.294729,156.390725 Z" id="Ethel-Smith" fill="#4A4A4A"></path>
                                <path d="M50.6236005,175.436423 C52.1436005,175.436423 53.0936005,174.596423 53.0936005,172.446423 L53.0936005,168.776423 L51.9836005,168.776423 L51.9836005,172.536423 C51.9836005,173.956423 51.4236005,174.426423 50.6236005,174.426423 C49.8336005,174.426423 49.3036005,173.956423 49.3036005,172.536423 L49.3036005,168.776423 L48.1436005,168.776423 L48.1436005,172.446423 C48.1436005,174.596423 49.1136005,175.436423 50.6236005,175.436423 Z M54.6236005,175.316423 L55.7736005,175.316423 L55.7736005,171.886423 C56.1836005,171.486423 56.4636005,171.276423 56.8936005,171.276423 C57.4336005,171.276423 57.6636005,171.576423 57.6636005,172.386423 L57.6636005,175.316423 L58.8136005,175.316423 L58.8136005,172.236423 C58.8136005,170.996423 58.3536005,170.286423 57.3036005,170.286423 C56.6336005,170.286423 56.1336005,170.636423 55.6936005,171.066423 L55.6536005,171.066423 L55.5736005,170.406423 L54.6236005,170.406423 L54.6236005,175.316423 Z M60.2236005,175.316423 L61.3736005,175.316423 L61.3736005,170.406423 L60.2236005,170.406423 L60.2236005,175.316423 Z M60.8036005,169.546423 C61.2136005,169.546423 61.5136005,169.276423 61.5136005,168.896423 C61.5136005,168.506423 61.2136005,168.236423 60.8036005,168.236423 C60.3936005,168.236423 60.0936005,168.506423 60.0936005,168.896423 C60.0936005,169.276423 60.3936005,169.546423 60.8036005,169.546423 Z M64.5736005,175.436423 C64.9636005,175.436423 65.3036005,175.346423 65.5736005,175.256423 L65.3736005,174.406423 C65.2336005,174.466423 65.0336005,174.516423 64.8636005,174.516423 C64.3936005,174.516423 64.1736005,174.236423 64.1736005,173.656423 L64.1736005,171.316423 L65.4236005,171.316423 L65.4236005,170.406423 L64.1736005,170.406423 L64.1736005,169.066423 L63.2136005,169.066423 L63.0736005,170.406423 L62.3136005,170.456423 L62.3136005,171.316423 L63.0136005,171.316423 L63.0136005,173.656423 C63.0136005,174.716423 63.4336005,175.436423 64.5736005,175.436423 Z M68.5536005,175.436423 C69.1736005,175.436423 69.7636005,175.216423 70.2336005,174.906423 L69.8436005,174.186423 C69.4836005,174.416423 69.1236005,174.546423 68.7036005,174.546423 C67.9136005,174.546423 67.3536005,174.046423 67.2536005,173.176423 L70.3736005,173.176423 C70.4036005,173.056423 70.4236005,172.836423 70.4236005,172.616423 C70.4236005,171.246423 69.7236005,170.286423 68.3936005,170.286423 C67.2436005,170.286423 66.1336005,171.266423 66.1336005,172.866423 C66.1336005,174.486423 67.1936005,175.436423 68.5536005,175.436423 Z M67.2436005,172.396423 C67.3436005,171.606423 67.8436005,171.176423 68.4236005,171.176423 C69.0936005,171.176423 69.4236005,171.636423 69.4236005,172.396423 L67.2436005,172.396423 Z M73.2436005,175.436423 C73.7736005,175.436423 74.2736005,175.146423 74.6336005,174.786423 L74.6736005,174.786423 L74.7536005,175.316423 L75.7036005,175.316423 L75.7036005,168.256423 L74.5536005,168.256423 L74.5536005,170.036423 L74.5936005,170.826423 C74.2136005,170.496423 73.8636005,170.286423 73.3036005,170.286423 C72.2336005,170.286423 71.2236005,171.266423 71.2236005,172.866423 C71.2236005,174.486423 72.0136005,175.436423 73.2436005,175.436423 Z M73.5236005,174.486423 C72.8136005,174.486423 72.4136005,173.916423 72.4136005,172.856423 C72.4136005,171.826423 72.9236005,171.236423 73.5536005,171.236423 C73.8836005,171.236423 74.2136005,171.346423 74.5536005,171.646423 L74.5536005,173.936423 C74.2236005,174.316423 73.9036005,174.486423 73.5236005,174.486423 Z M81.1736005,175.436423 C82.6436005,175.436423 83.5236005,174.556423 83.5236005,173.496423 C83.5236005,172.546423 82.9736005,172.056423 82.2036005,171.726423 L81.3136005,171.356423 C80.7736005,171.136423 80.2736005,170.946423 80.2736005,170.436423 C80.2736005,169.956423 80.6836005,169.666423 81.3036005,169.666423 C81.8636005,169.666423 82.3036005,169.876423 82.7236005,170.226423 L83.3136005,169.486423 C82.8036005,168.976423 82.0636005,168.656423 81.3036005,168.656423 C80.0236005,168.656423 79.1036005,169.456423 79.1036005,170.496423 C79.1036005,171.456423 79.7836005,171.966423 80.4236005,172.236423 L81.3236005,172.626423 C81.9136005,172.876423 82.3336005,173.046423 82.3336005,173.586423 C82.3336005,174.096423 81.9336005,174.426423 81.1936005,174.426423 C80.5936005,174.426423 79.9636005,174.126423 79.4936005,173.686423 L78.8136005,174.476423 C79.4336005,175.086423 80.2936005,175.436423 81.1736005,175.436423 Z M86.3436005,175.436423 C86.7336005,175.436423 87.0736005,175.346423 87.3436005,175.256423 L87.1436005,174.406423 C87.0036005,174.466423 86.8036005,174.516423 86.6336005,174.516423 C86.1636005,174.516423 85.9436005,174.236423 85.9436005,173.656423 L85.9436005,171.316423 L87.1936005,171.316423 L87.1936005,170.406423 L85.9436005,170.406423 L85.9436005,169.066423 L84.9836005,169.066423 L84.8436005,170.406423 L84.0836005,170.456423 L84.0836005,171.316423 L84.7836005,171.316423 L84.7836005,173.656423 C84.7836005,174.716423 85.2036005,175.436423 86.3436005,175.436423 Z M89.4136005,175.436423 C89.9936005,175.436423 90.4936005,175.146423 90.9336005,174.776423 L90.9736005,174.776423 L91.0536005,175.316423 L92.0036005,175.316423 L92.0036005,172.406423 C92.0036005,171.036423 91.3936005,170.286423 90.1736005,170.286423 C89.3936005,170.286423 88.6936005,170.586423 88.1536005,170.926423 L88.5736005,171.696423 C89.0136005,171.436423 89.4736005,171.216423 89.9536005,171.216423 C90.6236005,171.216423 90.8336005,171.656423 90.8536005,172.176423 C88.8336005,172.396423 87.9636005,172.946423 87.9636005,173.996423 C87.9636005,174.856423 88.5536005,175.436423 89.4136005,175.436423 Z M89.7836005,174.536423 C89.3736005,174.536423 89.0736005,174.346423 89.0736005,173.906423 C89.0736005,173.416423 89.5136005,173.066423 90.8536005,172.896423 L90.8536005,173.996423 C90.4836005,174.336423 90.1836005,174.536423 89.7836005,174.536423 Z M95.1136005,175.436423 C95.5036005,175.436423 95.8436005,175.346423 96.1136005,175.256423 L95.9136005,174.406423 C95.7736005,174.466423 95.5736005,174.516423 95.4036005,174.516423 C94.9336005,174.516423 94.7136005,174.236423 94.7136005,173.656423 L94.7136005,171.316423 L95.9636005,171.316423 L95.9636005,170.406423 L94.7136005,170.406423 L94.7136005,169.066423 L93.7536005,169.066423 L93.6136005,170.406423 L92.8536005,170.456423 L92.8536005,171.316423 L93.5536005,171.316423 L93.5536005,173.656423 C93.5536005,174.716423 93.9736005,175.436423 95.1136005,175.436423 Z M99.0936005,175.436423 C99.7136005,175.436423 100.3036,175.216423 100.7736,174.906423 L100.3836,174.186423 C100.0236,174.416423 99.6636005,174.546423 99.2436005,174.546423 C98.4536005,174.546423 97.8936005,174.046423 97.7936005,173.176423 L100.9136,173.176423 C100.9436,173.056423 100.9636,172.836423 100.9636,172.616423 C100.9636,171.246423 100.2636,170.286423 98.9336005,170.286423 C97.7836005,170.286423 96.6736005,171.266423 96.6736005,172.866423 C96.6736005,174.486423 97.7336005,175.436423 99.0936005,175.436423 Z M97.7836005,172.396423 C97.8836005,171.606423 98.3836005,171.176423 98.9636005,171.176423 C99.6336005,171.176423 99.9636005,171.636423 99.9636005,172.396423 L97.7836005,172.396423 Z M103.4336,175.436423 C104.6736,175.436423 105.3436,174.756423 105.3436,173.916423 C105.3436,172.996423 104.6036,172.676423 103.9336,172.426423 C103.4036,172.236423 102.9136,172.086423 102.9136,171.696423 C102.9136,171.386423 103.1436,171.156423 103.6336,171.156423 C104.0236,171.156423 104.3736,171.326423 104.7136,171.576423 L105.2436,170.876423 C104.8436,170.566423 104.2936,170.286423 103.6136,170.286423 C102.5136,170.286423 101.8236,170.896423 101.8236,171.756423 C101.8236,172.576423 102.5536,172.946423 103.2036,173.186423 C103.7236,173.386423 104.2536,173.566423 104.2536,173.976423 C104.2536,174.316423 104.0036,174.566423 103.4736,174.566423 C102.9736,174.566423 102.5536,174.356423 102.1136,174.016423 L101.5736,174.756423 C102.0536,175.146423 102.7636,175.436423 103.4336,175.436423 Z" id="United-States" fill="#AEAEAE"></path>
                            </g>
                            <g id="girl-1" transform="translate(44.050360, 42.917647)">
                                <g id="Capa_1" transform="translate(0.000000, 0.000000)">
                                    <g id="Group">
                                        <path d="M34.4439928,16.3817412 L34.4439928,76.6185412 C34.4439928,76.6185412 0.246606715,80.1618824 0.246606715,63.4925176 C0.246606715,63.4925176 9.43204796,64.6501647 7.55143645,56.9897412 C5.16744604,47.2783059 6.5010048,31.5501176 7.55143645,22.9537882 C8.60186811,14.3570824 34.4439928,16.3817412 34.4439928,16.3817412 L34.4439928,16.3817412 Z" id="Shape" fill="#330C00"></path>
                                        <path d="M34.3333022,16.3817412 L34.3333022,76.6185412 C34.3333022,76.6185412 68.5306882,80.1618824 68.5306882,63.4925176 C68.5306882,63.4925176 59.345247,64.6501647 61.2258585,56.9897412 C63.6098489,47.2783059 62.2762902,31.5501176 61.2258585,22.9537882 C60.1750504,14.3570824 34.3333022,16.3817412 34.3333022,16.3817412 L34.3333022,16.3817412 Z" id="Shape" fill="#330C00"></path>
                                        <path d="M35.0407434,67.6604235 L35.0407434,58.8845176 C35.0407434,58.8845176 48.971952,58.4624941 48.971952,66.8935529 L35.0407434,67.6604235 L35.0407434,67.6604235 Z" id="Shape" fill="#00B497"></path>
                                        <path d="M33.8472422,67.6604235 L33.8472422,58.8845176 C33.8472422,58.8845176 19.9160336,58.4624941 19.9160336,66.8935529 L33.8472422,67.6604235 L33.8472422,67.6604235 Z" id="Shape" fill="#00B497"></path>
                                        <g transform="translate(7.529976, 12.047059)">
                                            <g>
                                                <rect id="Rectangle-path" fill="#FDCC9B" x="21.3806139" y="46.8367059" width="11.0671823" height="12.3945412"></rect>
                                                <path d="M21.3806139,48.2966588 C21.3806139,48.2966588 26.0356451,51.2609882 32.4477962,50.5746824 L32.4477962,46.8367059 L21.3806139,46.8367059 L21.3806139,48.2966588 L21.3806139,48.2966588 Z" id="Shape" fill="#FCBC85"></path>
                                                <ellipse id="Oval" fill="#FCBC85" cx="5.42158273" cy="27.6178824" rx="5.4001223" ry="6.16056471"></ellipse>
                                                <ellipse id="Oval" fill="#FCBC85" cx="48.4056978" cy="27.6178824" rx="5.4001223" ry="6.16056471"></ellipse>
                                                <path d="M48.3838609,15.8509176 C48.3838609,6.77647059 41.7435516,0.137035294 26.9140168,0.137035294 C12.083729,0.137035294 5.44379616,6.77684706 5.44379616,15.8509176 C5.44379616,24.9253647 3.8945036,48.8286118 26.9140168,48.8286118 C49.93353,48.8286118 48.3838609,24.9257412 48.3838609,15.8509176 L48.3838609,15.8509176 Z" id="Shape" fill="#FDCC9B"></path>
                                                <g transform="translate(12.424460, 18.070588)">
                                                    <g transform="translate(1.505995, 5.270588)" id="Oval">
                                                        <ellipse fill="#3B2519" cx="2.52593046" cy="2.80169412" rx="2.3241271" ry="2.54531765"></ellipse>
                                                        <ellipse fill="#FFFFFF" cx="1.51277218" cy="1.67792941" rx="0.695016787" ry="0.694964706"></ellipse>
                                                    </g>
                                                    <path d="M0.314,2.58447059 C1.413,3.00498824 3.17764988,1.15425882 7.21748201,2.76442353 C7.95353717,3.05807059 8.39328777,0.254117647 4.06317506,0.254117647 C0.314,0.254117647 -0.350143885,2.32997647 0.314,2.58447059 L0.314,2.58447059 Z" id="Shape" fill="#684B37"></path>
                                                    <g transform="translate(22.589928, 5.270588)" id="Oval">
                                                        <ellipse fill="#3B2519" cx="2.64415108" cy="2.80169412" rx="2.3241271" ry="2.54531765"></ellipse>
                                                        <ellipse fill="#FFFFFF" cx="1.63099281" cy="1.67792941" rx="0.695393285" ry="0.695341176"></ellipse>
                                                    </g>
                                                    <path d="M28.6647362,2.58447059 C27.5657362,3.00498824 25.8014628,1.15425882 21.7616307,2.76442353 C21.0255755,3.05807059 20.5858249,0.254117647 24.9159376,0.254117647 C28.6647362,0.254117647 29.3288801,2.32997647 28.6647362,2.58447059 L28.6647362,2.58447059 Z" id="Shape" fill="#684B37"></path>
                                                </g>
                                                <path d="M26.9140168,35.0957176 C24.6173741,35.0957176 23.2341175,33.3801412 23.2341175,34.2102588 C23.2341175,35.04 23.8982614,36.6174118 26.9140168,36.6174118 C29.9297722,36.6174118 30.5935396,35.0403765 30.5935396,34.2102588 C30.5935396,33.3801412 29.210283,35.0957176 26.9140168,35.0957176 L26.9140168,35.0957176 Z" id="Shape" fill="#FCBC85"></path>
                                                <path d="M26.9140168,42.7267765 C26.1196043,42.7267765 25.6410743,42.1334588 25.6410743,42.4207059 C25.6410743,42.7079529 25.8707386,43.2534588 26.9140168,43.2534588 C27.957295,43.2534588 28.1865827,42.7079529 28.1865827,42.4207059 C28.1865827,42.1334588 27.7080528,42.7267765 26.9140168,42.7267765 L26.9140168,42.7267765 Z" id="Shape" fill="#FCBC85"></path>
                                                <path d="M26.9140168,40.6121412 C23.2736499,40.6121412 21.0809209,39.1296 21.0809209,39.5053176 C21.0809209,39.8806588 22.1336115,41.3590588 26.9140168,41.3590588 C31.6944221,41.3590588 32.7471127,39.8806588 32.7471127,39.5053176 C32.7471127,39.1299765 30.5540072,40.6121412 26.9140168,40.6121412 L26.9140168,40.6121412 Z" id="Shape" fill="#F7945E"></path>
                                            </g>
                                            <ellipse id="Oval" fill="#F9AA8D" cx="13.4677386" cy="34.2768941" rx="3.15393046" ry="3.15369412"></ellipse>
                                            <ellipse id="Oval" fill="#F9AA8D" cx="40.7480887" cy="34.2768941" rx="3.15393046" ry="3.15369412"></ellipse>
                                        </g>
                                        <path d="M34.4439928,63.8637176 L34.4439928,77.8074353 L10.2076355,77.8074353 C10.2076355,72.1637647 21.7168273,63.8637176 34.4439928,63.8637176 L34.4439928,63.8637176 Z" id="Shape" fill="#8FD6E7"></path>
                                        <path d="M34.4439928,63.8637176 L34.4439928,77.8074353 L58.6799736,77.8074353 C58.6799736,72.1637647 47.1711583,63.8637176 34.4439928,63.8637176 L34.4439928,63.8637176 Z" id="Shape" fill="#8FD6E7"></path>
                                        <path d="M34.4439928,77.1760941 L34.4439928,63.8637176 C30.8985036,63.8637176 27.4595635,64.5232941 24.325964,65.5744 L34.4439928,77.1760941 L34.4439928,77.1760941 Z" id="Shape" fill="#F6B1CF"></path>
                                        <path d="M34.4439928,77.1760941 L34.4439928,63.8637176 C37.9891055,63.8637176 41.4280456,64.5232941 44.5620216,65.5744 L34.4439928,77.1760941 L34.4439928,77.1760941 Z" id="Shape" fill="#F6B1CF"></path>
                                        <path d="M34.4439928,63.8637176 C31.8653525,63.8637176 29.3443165,64.2172235 26.9516667,64.8075294 C27.2923981,66.8784941 28.6910911,71.1273412 34.4439928,71.1273412 C40.196518,71.1273412 41.595211,66.8784941 41.9359424,64.8075294 C39.5436691,64.2168471 37.0226331,63.8637176 34.4439928,63.8637176 L34.4439928,63.8637176 Z" id="Shape" fill="#F283B4"></path>
                                        <path d="M28.9105899,64.3463529 C28.9105899,64.3463529 28.9102134,69.3304471 34.4439928,69.3304471 C39.9773957,69.3304471 39.9773957,64.3463529 39.9773957,64.3463529 C39.9773957,64.3463529 34.2361655,62.2561882 28.9105899,64.3463529 L28.9105899,64.3463529 Z" id="Shape" fill="#FDCC9B"></path>
                                        <path d="M25.9754053,64.9039059 C26.1410647,63.8268235 19.5301223,64.6208 19.5839616,67.6600471 C19.638554,70.6992941 26.8884149,73.0375529 28.88047,74.1443765 C30.8725252,75.2508235 34.4138729,77.8070588 34.4138729,77.8070588 C34.4138729,77.8070588 35.0780168,75.2395294 31.9790552,73.2585412 C28.8808465,71.2783059 25.754024,66.3427765 25.9754053,64.9039059 L25.9754053,64.9039059 Z" id="Shape" fill="#3ABDAA"></path>
                                        <path d="M42.8316331,64.9039059 C42.6659736,63.8268235 49.2769161,64.6208 49.2230767,67.6600471 C49.1684844,70.6992941 41.9186235,73.0375529 39.9265683,74.1443765 C37.9345132,75.2508235 34.3931655,77.8070588 34.3931655,77.8070588 C34.3931655,77.8070588 33.7290216,75.2395294 36.8279832,73.2585412 C39.9261918,71.2783059 43.0530144,66.3427765 42.8316331,64.9039059 L42.8316331,64.9039059 Z" id="Shape" fill="#3ABDAA"></path>
                                        <path d="M34.4439928,0 C9.54273861,0 6.22277218,21.7400471 6.22277218,37.7611294 C6.22277218,53.7825882 14.5174173,63.0863059 20.9977146,65.6847059 C20.9977146,65.6847059 10.6496451,47.3475765 15.7402854,30.3717647 C19.9054916,16.4822588 34.4439928,20.5835294 34.4439928,20.5835294 C34.4439928,20.5835294 48.981741,16.4818824 53.1473237,30.3717647 C58.237964,47.3475765 47.8898945,65.6847059 47.8898945,65.6847059 C54.3705683,63.0863059 62.6652134,53.7825882 62.6652134,37.7611294 C62.6652134,21.7400471 59.345247,0 34.4439928,0 L34.4439928,0 Z" id="Shape" fill="#401900"></path>
                                        <path d="M42.8643885,24.4193882 C42.8643885,24.4193882 33.5181823,29.1041882 25.2645755,28.1637647 C17.0113453,27.2229647 13.8412254,35.7790118 14.3449808,41.4415059 L11.5905156,28.8387765 L16.5708417,18.8679529 L30.7640935,11.5644235 L44.1753573,12.1840941 L50.5355516,17.7061647 L55.9360504,24.4193882 L59.7322878,28.8387765 L57.9058921,42.4391529 L54.0400024,47.0881882 C54.0403789,47.0881882 57.5380528,29.6387765 42.8643885,24.4193882 L42.8643885,24.4193882 Z" id="Shape" fill="#401900"></path>
                                    </g>
                                </g>
                            </g>
                        </g>
                    </g>
                </g>
            </g>
        </g>
    </g>
</svg>