<?xml version="1.0" encoding="UTF-8"?>
<svg width="376px" height="259px" viewBox="0 0 376 259" version="1.1" xmlns="http://www.w3.org/2000/svg" xmlns:xlink="http://www.w3.org/1999/xlink">
    <!-- Generator: Sketch 41.2 (35397) - http://www.bohemiancoding.com/sketch -->
    <title>Icon_03_product</title>
    <desc>Created with Sketch.</desc>
    <defs>
        <rect id="path-1" x="-1.70530257e-13" y="-7.95807864e-13" width="157" height="192" rx="5"></rect>
        <filter x="-50%" y="-50%" width="200%" height="200%" filterUnits="objectBoundingBox" id="filter-2">
            <feOffset dx="0" dy="6" in="SourceAlpha" result="shadowOffsetOuter1"></feOffset>
            <feGaussianBlur stdDeviation="5" in="shadowOffsetOuter1" result="shadowBlurOuter1"></feGaussianBlur>
            <feColorMatrix values="0 0 0 0 0.208333333   0 0 0 0 0.208333333   0 0 0 0 0.208333333  0 0 0 0.1 0" type="matrix" in="shadowBlurOuter1"></feColorMatrix>
        </filter>
        <rect id="path-3" x="0" y="1.42108547e-14" width="157" height="192" rx="5"></rect>
        <filter x="-50%" y="-50%" width="200%" height="200%" filterUnits="objectBoundingBox" id="filter-4">
            <feOffset dx="0" dy="6" in="SourceAlpha" result="shadowOffsetOuter1"></feOffset>
            <feGaussianBlur stdDeviation="5" in="shadowOffsetOuter1" result="shadowBlurOuter1"></feGaussianBlur>
            <feColorMatrix values="0 0 0 0 0.208333333   0 0 0 0 0.208333333   0 0 0 0 0.208333333  0 0 0 0.1 0" type="matrix" in="shadowBlurOuter1"></feColorMatrix>
        </filter>
    </defs>
    <g id="Website" stroke="none" stroke-width="1" fill="none" fill-rule="evenodd">
        <g id="Product" transform="translate(-221.000000, -2331.000000)">
            <g id="Section-03" transform="translate(0.000000, 1971.000000)">
                <g id="01">
                    <g id="Icon_03_product" transform="translate(228.000000, 362.000000)">
                        <g id="Group-3" transform="translate(101.500000, 114.000000) rotate(-15.000000) translate(-101.500000, -114.000000) translate(23.000000, 18.000000)">
                            <g id="Rectangle-10">
                                <use fill="black" fill-opacity="1" filter="url(#filter-2)" xlink:href="#path-1"></use>
                                <use fill="#FFFFFF" fill-rule="evenodd" xlink:href="#path-1"></use>
                            </g>
                            <g id="Brand" transform="translate(42.920863, 13.552941)">
                                <g id="Layer_2">
                                    <path d="M19.3195464,8.48340426 C18.9367958,8.69780933 18.5101222,8.80788913 18.0776616,8.80380476 C17.0388711,8.80380476 16.3378192,8.42573217 15.8646844,7.93151439 C14.6931502,6.67807026 14.6931502,4.65209245 15.8646844,3.39864831 C16.3626419,2.88600751 17.0892686,2.53516896 17.9708489,2.53516896 C18.3424365,2.53516896 18.7734481,2.61526909 19.3248119,2.86758448 L19.3248119,4.46958698 C19.0374708,4.14918648 18.6072115,3.82878598 18.0077068,3.82878598 C17.534572,3.82878598 17.1547102,3.98898623 16.8590949,4.29657071 C16.5104931,4.66335336 16.3168993,5.16529199 16.3227752,5.68710889 C16.3227752,6.30788486 16.5589665,6.74843554 16.8124584,7.00956195 C17.139386,7.34215884 17.5767205,7.52331509 18.0287685,7.51339174 C18.366507,7.51339174 18.8223412,7.41406758 19.3210508,6.89261577 L19.3195464,8.48340426 Z" id="Shape" fill="#333333"></path>
                                    <path d="M23.6687762,7.53902378 L21.5400456,7.53902378 L21.1090341,8.67244055 L19.7550712,8.67244055 L22.0267201,2.67374218 L23.2174552,2.67374218 L25.4387066,8.67244055 L24.0847437,8.67244055 L23.6687762,7.53902378 Z M23.3137371,6.47769712 L22.6209594,4.46317897 L21.9199074,6.47769712 L23.3137371,6.47769712 Z" id="Shape" fill="#333333"></path>
                                    <path d="M28.0511029,2.67374218 C28.7687032,2.67374218 29.2170154,2.92525657 29.4870558,3.19519399 C29.7232471,3.43549437 29.976739,3.86963705 29.976739,4.53526909 C29.976739,4.91334168 29.9015189,5.38032541 29.5374533,5.758398 C29.3169368,5.98050726 29.0465244,6.13855186 28.7521548,6.21737171 L30.4822185,8.67244055 L28.8958253,8.67244055 L27.3756258,6.30708385 L27.3756258,8.67244055 L26.0750692,8.67244055 L26.0750692,2.67374218 L28.0511029,2.67374218 Z M27.3741214,5.39714643 L27.6697366,5.39714643 C27.905928,5.39714643 28.227118,5.36991239 28.4467609,5.13602003 C28.5882586,4.97935342 28.6644595,4.7685509 28.6581296,4.55128911 C28.6696072,4.31431714 28.5719263,4.08625459 28.3963634,3.94012516 C28.1849948,3.76951189 27.8472562,3.75108886 27.6787631,3.75108886 L27.3778824,3.75108886 L27.3741214,5.39714643 Z" id="Shape" fill="#333333"></path>
                                    <polygon id="Shape" fill="#333333" points="34.2161474 3.84480601 32.3356433 3.84480601 32.3356433 5.00465582 34.1258832 5.00465582 34.1258832 6.17411765 32.3356433 6.17411765 32.3356433 7.50538173 34.2161474 7.50538173 34.2161474 8.67484355 31.0320779 8.67484355 31.0320779 2.67374218 34.2161474 2.67374218"></polygon>
                                    <polygon id="Shape" fill="#333333" points="35.1789654 8.67244055 36.0816074 2.67374218 37.1625211 2.67374218 38.5646249 6.26222778 39.9667287 2.67374218 41.0476425 2.67374218 41.9502844 8.67244055 40.6512322 8.67244055 40.1999113 5.09276596 38.7895332 8.67244055 38.333699 8.67244055 36.923321 5.09276596 36.472 8.67244055"></polygon>
                                    <polygon id="Shape" fill="#333333" points="46.0558009 3.84480601 44.1752968 3.84480601 44.1752968 5.00465582 45.9595191 5.00465582 45.9595191 6.17411765 44.1692792 6.17411765 44.1692792 7.50538173 46.0497833 7.50538173 46.0497833 8.67484355 42.8717314 8.67484355 42.8717314 2.67374218 46.0558009 2.67374218"></polygon>
                                    <path d="M50.0672921,4.13957447 C49.645307,3.73506884 49.2819936,3.70783479 49.1217747,3.70783479 C48.9442551,3.70783479 48.7246122,3.73506884 48.5726675,3.91449312 C48.4798517,4.01542511 48.4282174,4.15130218 48.428997,4.29256571 C48.4224166,4.41790199 48.4687626,4.53981519 48.5553669,4.62498123 C48.6907632,4.75954944 48.8848312,4.81401752 49.264693,4.96700876 L49.6866781,5.13762203 C49.9318958,5.23694618 50.2357853,5.37151439 50.4554282,5.59659574 C50.7332409,5.89061287 50.8831996,6.29476714 50.869139,6.71158949 C50.869139,7.33236546 50.6667968,7.8714393 50.3711816,8.19584481 C49.8732241,8.75654568 49.1465973,8.80700876 48.7750097,8.80700876 C48.3898024,8.82024491 48.0073143,8.73394739 47.6602469,8.55549437 C47.3561118,8.3802335 47.0774126,8.15899748 46.8328251,7.89867334 L47.5098066,6.9094368 C47.6706736,7.08054835 47.8470467,7.23428865 48.0363477,7.36841051 C48.2484837,7.51120577 48.494717,7.58600311 48.7456739,7.58387985 C48.9595237,7.59179577 49.16906,7.51855459 49.3369043,7.37722153 C49.4692232,7.25586036 49.5434799,7.07772307 49.5392466,6.89181477 C49.5429466,6.7231728 49.4708475,6.5627754 49.3451786,6.46007509 C49.1947382,6.32550688 48.8472211,6.19013767 48.6862499,6.12765957 L48.2161239,5.95624531 C47.9543578,5.85692115 47.6504683,5.73116395 47.4308254,5.47564456 C47.1352102,5.14322904 47.0930869,4.72030038 47.0930869,4.43434293 C47.0930869,3.9040801 47.2435272,3.4539174 47.5827702,3.08545682 C47.9799326,2.65371715 48.4523152,2.53677096 48.9765998,2.53677096 C49.5803708,2.53167122 50.1686005,2.7404684 50.648744,3.13031289 L50.0672921,4.13957447 Z" id="Shape" fill="#333333"></path>
                                    <path d="M54.7121371,4.13957447 C54.290152,3.73506884 53.9268386,3.70783479 53.7666197,3.70783479 C53.5891001,3.70783479 53.3694572,3.73506884 53.2175125,3.91449312 C53.1247662,4.01547353 53.0731439,4.15131883 53.073842,4.29256571 C53.0672616,4.41790199 53.1136076,4.53981519 53.2002119,4.62498123 C53.3356082,4.75954944 53.5296762,4.81401752 53.909538,4.96700876 L54.3315231,5.13762203 C54.5767408,5.23694618 54.8806303,5.37151439 55.1002732,5.59659574 C55.3780859,5.89061287 55.5280446,6.29476714 55.5139841,6.71158949 C55.5139841,7.33236546 55.3116418,7.8714393 55.0160266,8.19584481 C54.5180691,8.75654568 53.7914423,8.80700876 53.4198547,8.80700876 C53.0346474,8.82024491 52.6521593,8.73394739 52.3050919,8.55549437 C52.0009569,8.3802335 51.7222576,8.15899748 51.4776702,7.89867334 L52.1546516,6.9094368 C52.3155352,7.08052891 52.4919063,7.23426757 52.6811928,7.36841051 C52.8933462,7.51116415 53.1395677,7.58595793 53.3905189,7.58387985 C53.6043687,7.59179577 53.813905,7.51855459 53.9817494,7.37722153 C54.1140682,7.25586036 54.1883249,7.07772307 54.1840916,6.89181477 C54.1877916,6.7231728 54.1156926,6.5627754 53.9900236,6.46007509 C53.8395833,6.32550688 53.4920661,6.19013767 53.331095,6.12765957 L52.8662344,5.95704631 C52.6044682,5.85772215 52.3005787,5.73196496 52.0809359,5.47644556 C51.7853206,5.14403004 51.7431973,4.72110138 51.7431973,4.43514393 C51.7431973,3.9048811 51.8936377,3.4547184 52.2328806,3.08625782 C52.630043,2.65451815 53.1024257,2.53757196 53.6267102,2.53757196 C54.2304813,2.53247223 54.818711,2.7412694 55.2988544,3.13111389 L54.7121371,4.13957447 Z" id="Shape" fill="#333333"></path>
                                    <path d="M59.5848992,7.53902378 L57.4561686,7.53902378 L57.0251571,8.67244055 L55.6711942,8.67244055 L57.9428431,2.67374218 L59.1335783,2.67374218 L61.3548297,8.67244055 L60.0008667,8.67244055 L59.5848992,7.53902378 Z M59.2298601,6.47769712 L58.5370824,4.46317897 L57.8360305,6.47769712 L59.2298601,6.47769712 Z" id="Shape" fill="#333333"></path>
                                    <path d="M64.4486349,5.39874844 L67.246825,5.39874844 L67.246825,5.46202753 C67.246825,6.19013767 67.0016072,7.2963204 66.3772799,7.98918648 C65.7529525,8.68205257 65.0315912,8.81101377 64.3643883,8.81101377 C63.6971855,8.81101377 62.9622845,8.69406758 62.3033559,7.97476846 C61.9738916,7.6151189 61.4759341,6.88620776 61.4759341,5.69031289 C61.4759341,4.70988736 61.8136726,3.92811014 62.2868075,3.41466834 C62.9795852,2.65051314 63.8325818,2.54237797 64.4997846,2.54237797 C64.9646452,2.54237797 65.5528669,2.6224781 66.079408,2.99173967 C66.4537738,3.27263127 66.7653209,3.63803103 66.9918286,4.06187735 L65.8176419,4.7331164 C65.7012295,4.47904476 65.5307178,4.25742595 65.3196844,4.08590738 C65.0698504,3.89233587 64.7673099,3.79132423 64.4584135,3.79834793 C63.9431554,3.79834793 63.5632936,3.97857322 63.2932532,4.28375469 C62.9810896,4.63459324 62.8118442,5.14723404 62.8118442,5.70473091 C62.8118442,6.38798498 63.0480355,6.82613267 63.284979,7.08085106 C63.6144433,7.44050063 63.9943051,7.54863579 64.4253167,7.54863579 C64.9826981,7.54863579 65.2783133,7.34197747 65.4031788,7.22823529 C65.6027955,7.04061269 65.7441825,6.79284574 65.8086155,6.51774718 L64.4486349,6.51774718 L64.4486349,5.39874844 Z" id="Shape" fill="#333333"></path>
                                    <polygon id="Shape" fill="#333333" points="71.1462382 3.84480601 69.2657341 3.84480601 69.2657341 5.00465582 71.055974 5.00465582 71.055974 6.17411765 69.2627253 6.17411765 69.2627253 7.50538173 71.1432293 7.50538173 71.1432293 8.67484355 67.9621687 8.67484355 67.9621687 2.67374218 71.1462382 2.67374218"></polygon>
                                    <polygon id="Shape" fill="#FFFFFF" points="10.5601586 10.0365457 2.34536466 10.0165207 2.33633824 1.27359199 10.5526365 1.28881101"></polygon>
                                    <polygon id="Shape" fill="#FFFFFF" points="10.5594064 10.0365457 2.34386025 10.0165207 2.33558603 1.27359199 10.5526365 1.28881101"></polygon>
                                    <polygon id="Shape" fill="#FFCE4D" points="8.08315862 3.96095119 8.90080179 3.08946183 7.26476326 3.08946183"></polygon>
                                    <polygon id="Shape" fill="#FFC11C" points="5.62797253 3.08946183 3.98065098 3.08946183 4.80431176 3.9665582"></polygon>
                                    <polygon id="Shape" fill="#FF6161" points="9.71317954 5.70312891 9.71317954 3.95534418 8.89553637 4.82603254"></polygon>
                                    <polygon id="Shape" fill="#FF9640" points="8.89553637 4.82603254 9.71317954 3.95534418 9.71317954 3.95454318 8.90080179 3.08946183 8.08315862 3.96095119"></polygon>
                                    <polygon id="Shape" fill="#FF7575" points="3.16827323 5.6975219 3.98666859 4.82603254 3.16827323 3.95534418"></polygon>
                                    <polygon id="Shape" fill="#FF9640" points="4.80431176 3.9665582 3.98065098 3.08946183 3.16827323 3.95534418 3.98666859 4.82603254"></polygon>
                                    <polygon id="Shape" fill="#FFCE4D" points="8.08315862 3.96095119 7.26476326 3.08946183 6.4463679 3.96095119 7.25874565 4.82603254"></polygon>
                                    <polygon id="Shape" fill="#FFC11C" points="6.4463679 3.96095119 5.62797253 3.08946183 4.80431176 3.9665582 5.63022914 4.83404255"></polygon>
                                    <polygon id="Shape" fill="#FFCE4D" points="6.43583707 5.69111389 7.25874565 4.82603254 6.4463679 3.96095119 5.63022914 4.83404255"></polygon>
                                    <polygon id="Shape" fill="#FF7575" points="5.61894611 8.317597 7.25874565 8.317597 6.44110248 7.44370463"></polygon>
                                    <polygon id="Shape" fill="#FF6161" points="8.89553637 4.82603254 8.08842403 5.70312891 9.71317954 5.70312891"></polygon>
                                    <polygon id="Shape" fill="#FF6161" points="8.89553637 6.57461827 9.71317954 5.70312891 8.08842403 5.70312891"></polygon>
                                    <polygon id="Shape" fill="#FF7575" points="3.98666859 4.82603254 3.16827323 5.6975219 4.80130295 5.6975219"></polygon>
                                    <polygon id="Shape" fill="#FF7575" points="4.80130295 5.6975219 3.16827323 5.6975219 3.98666859 6.57221527"></polygon>
                                    <polygon id="Shape" fill="#FF6161" points="7.26476326 6.58022528 6.44260689 7.44450563 7.25874565 8.317597 8.07714101 7.44610763"></polygon>
                                    <polygon id="Shape" fill="#FF6161" points="7.26476326 6.58022528 8.07714101 7.44610763 8.89553637 6.57461827 8.08842403 5.70312891"></polygon>
                                    <polygon id="Shape" fill="#FF7575" points="5.62270712 6.57221527 4.80431176 7.44290363 5.61894611 8.317597 6.44110248 7.44370463"></polygon>
                                    <polygon id="Shape" fill="#FF7575" points="3.98666859 6.57221527 4.80431176 7.44290363 5.62270712 6.57221527 4.80130295 5.6975219"></polygon>
                                    <polygon id="Shape" fill="#FF6161" points="8.89553637 4.82603254 8.08842403 5.70312891 7.26476326 6.58022528 6.44260689 7.44450563 7.25874565 8.317597 8.07714101 7.44610763 8.89553637 6.57461827 9.71317954 5.70312891 9.71317954 3.95534418"></polygon>
                                    <polygon id="Shape" fill="#FF8585" points="6.44110248 7.44370463 5.62270712 6.57221527 4.80130295 5.6975219 3.98666859 4.82603254 3.16827323 3.95534418 3.16827323 5.6975219 3.98666859 6.57221527 4.80431176 7.44290363 5.61894611 8.317597 7.25874565 8.317597"></polygon>
                                    <polygon id="Shape" fill="#FFB308" points="5.62797253 3.08946183 3.98065098 3.08946183 4.80431176 3.9665582 5.63022914 4.82923655 6.4463679 3.96095119"></polygon>
                                    <polygon id="Shape" fill="#FFC933" points="7.26476326 3.08946183 6.4463679 3.96095119 5.63022914 4.82923655 6.43583707 5.69111389 7.25874565 4.82603254 8.08315862 3.96095119 8.90080179 3.08946183"></polygon>
                                    <polygon id="Shape" fill="#FF7F40" points="8.89553637 4.82603254 9.71317954 3.95534418 9.71317954 3.95454318 8.90080179 3.08946183 8.08315862 3.96095119"></polygon>
                                    <polygon id="Shape" fill="#FF7F40" points="4.80431176 3.9665582 3.98065098 3.08946183 3.16827323 3.95534418 3.98666859 4.82603254"></polygon>
                                    <polygon id="center_white" fill="#FFFFFF" points="10.5601586 10.0365457 2.34536466 10.0165207 2.33633824 1.27359199 10.5526365 1.28881101"></polygon>
                                    <g id="left_frame" transform="translate(1.203523, -0.000000)" fill="#06D2B3">
                                        <polygon id="Shape" points="1.14033766 1.28881101 9.34911395 1.28881101 8.19373226 0.0712891114 0.00300880649 0.0712891114 0.00225660486 8.78297872 1.14033766 10.0165207"></polygon>
                                    </g>
                                    <g id="right_frame" transform="translate(2.331825, 1.281602)" fill="#13B1F6">
                                        <polygon id="Shape" points="0.0112830243 8.73491865 1.15237288 9.95244055 9.34384854 9.95244055 9.34460074 1.24075094 8.22005932 0.00720901126 8.20576749 8.73491865"></polygon>
                                    </g>
                                    <polygon id="left_green_tail" fill="#018382" points="1.2057792 1.28881101 2.34386025 1.28881101 2.34386025 0.0712891114 0.0669459443 0.0712891114"></polygon>
                                    <polygon id="right_blue_tail" fill="#0651D7" points="11.6764258 10.0165207 10.5375925 10.0165207 10.5375925 11.2348436 12.815259 11.2348436"></polygon>
                                    <polygon id="right_pink" fill="#FF6161" points="8.89553637 4.82603254 8.08842403 5.70312891 7.26476326 6.58022528 6.44260689 7.44450563 7.25874565 8.317597 8.07714101 7.44610763 8.89553637 6.57461827 9.71317954 5.70312891 9.71317954 3.95534418"></polygon>
                                    <polygon id="left_pink" fill="#FF8585" points="6.44110248 7.44370463 5.62270712 6.57221527 4.80130295 5.6975219 3.98666859 4.82603254 3.16827323 3.95534418 3.16827323 5.6975219 3.98666859 6.57221527 4.80431176 7.44290363 5.61894611 8.317597 7.25874565 8.317597"></polygon>
                                    <polygon id="left_yellow" fill="#FFB308" points="5.62797253 3.08946183 3.98065098 3.08946183 4.80431176 3.9665582 5.63022914 4.82923655 6.4463679 3.96095119"></polygon>
                                    <polygon id="right_yellow" fill="#FFC933" points="7.26476326 3.08946183 6.4463679 3.96095119 5.63022914 4.82923655 6.43583707 5.69111389 7.25874565 4.82603254 8.08315862 3.96095119 8.90080179 3.08946183"></polygon>
                                    <polygon id="right_orange" fill="#FF7F40" points="8.89553637 4.82603254 9.71317954 3.95534418 9.71317954 3.95454318 8.90080179 3.08946183 8.08315862 3.96095119"></polygon>
                                    <polygon id="left_orange" fill="#FF7F40" points="4.80431176 3.9665582 3.98065098 3.08946183 3.16827323 3.95534418 3.98666859 4.82603254"></polygon>
                                </g>
                            </g>
                            <text id="Ethel-Herrera" font-family="SourceSansPro-Semibold, Source Sans Pro" font-size="15" font-weight="500" fill="#4A4A4A">
                                <tspan x="29.3669065" y="157.305882">Ethel Herrera</tspan>
                            </text>
                            <text id="United-State" font-family="SourceSansPro-Semibold, Source Sans Pro" font-size="10" font-weight="500" fill="#AEAEAE">
                                <tspan x="48.5683453" y="176.023529">United State</tspan>
                            </text>
                            <g id="girl" transform="translate(44.050360, 44.047059)">
                                <g id="Capa_1" transform="translate(0.000000, 0.000000)">
                                    <g id="Group">
                                        <path d="M65.8919003,50.4967456 C65.8919003,50.4967456 71.1777211,54.178299 67.1375846,60.2007612 C67.1375846,60.2007612 71.0091378,65.926835 67.1375846,69.6531262 C67.1375846,69.6531262 68.0666254,74.1015612 62.8823211,74.3103379 C62.8823211,74.3103379 62.6653616,76.5569243 58.1414642,76.5569243 L34.5496908,70.9680466 L34.5496908,41.0674951 L64.1514605,42.0118369 C64.1514605,42.0118369 68.7537858,45.3791068 65.8919003,50.4967456 Z" id="Shape" fill="#5B402D"></path>
                                        <path d="M4.87535707,42.0118369 C4.87535707,42.0118369 0.273031724,45.3791068 3.13528375,50.4967456 C3.13528375,50.4967456 -2.15053712,54.178299 1.88923293,60.2007612 C1.88923293,60.2007612 -1.98232026,65.926835 1.88923293,69.6531262 C1.88923293,69.6531262 0.960192102,74.1015612 6.14449648,74.3103379 C6.14449648,74.3103379 6.36145592,76.5569243 10.8853534,76.5569243 L34.4771267,70.9680466 L34.4771267,41.0674951 L4.87535707,42.0118369 L4.87535707,42.0118369 Z" id="Shape" fill="#5B402D"></path>
                                        <path d="M18.3715534,52.3928854 C18.3715534,52.3928854 15.3762671,57.0128155 18.812802,58.8123961 C18.812802,58.8123961 15.8988755,61.5246291 17.9874765,63.954268 C17.9874765,63.954268 12.3923419,65.619635 15.9476181,70.6772505 C19.5028942,75.734866 34.5500573,73.4334757 34.5500573,73.4334757 L34.5500573,49.2694369 L18.3715534,52.3928854 L18.3715534,52.3928854 Z" id="Shape" fill="#543621"></path>
                                        <path d="M50.6552642,52.3928854 C50.6552642,52.3928854 53.6509169,57.0128155 50.2140156,58.8123961 C50.2140156,58.8123961 53.1283085,61.5246291 51.039341,63.954268 C51.039341,63.954268 56.6344757,65.619635 53.0791995,70.6772505 C49.5242898,75.734866 34.4767602,73.4334757 34.4767602,73.4334757 L34.4767602,49.2694369 L50.6552642,52.3928854 L50.6552642,52.3928854 Z" id="Shape" fill="#543621"></path>
                                        <g transform="translate(8.062682, 11.557282)">
                                            <g>
                                                <rect id="Rectangle-path" fill="#D7A674" x="21.0278405" y="46.2600699" width="10.7728423" height="12.2742058"></rect>
                                                <path d="M21.0278405,47.7058485 C21.0278405,47.7058485 25.5594342,50.6413981 31.8006828,49.9617553 L31.8006828,46.2600699 L21.0278405,46.2600699 L21.0278405,47.7058485 L21.0278405,47.7058485 Z" id="Shape" fill="#C39361"></path>
                                                <ellipse id="Oval" fill="#FCBC85" cx="5.49361817" cy="27.2278369" rx="5.25650203" ry="6.1007534"></ellipse>
                                                <ellipse id="Oval" fill="#FCBC85" cx="47.3345387" cy="27.2278369" rx="5.25650203" ry="6.1007534"></ellipse>
                                                <path d="M47.3132826,15.5751146 C47.3132826,6.58876893 40.8495772,0.0137941748 26.4144449,0.0137941748 C11.9785797,0.0137941748 5.51524082,6.58914175 5.51524082,15.5751146 C5.51524082,24.5614602 4.00715284,48.2326369 26.4144449,48.2326369 C48.8213705,48.2326369 47.3132826,24.561833 47.3132826,15.5751146 L47.3132826,15.5751146 Z" id="Shape" fill="#D8A674"></path>
                                                <g transform="translate(12.094023, 17.895146)">
                                                    <g transform="translate(1.832428, 5.219417)" id="Oval">
                                                        <ellipse fill="#3B2519" cx="2.30849238" cy="2.65258252" rx="2.26231521" ry="2.52060583"></ellipse>
                                                        <ellipse fill="#FFFFFF" cx="1.32191332" cy="1.53972816" rx="0.676532298" ry="0.688217476"></ellipse>
                                                    </g>
                                                    <path d="M0.521875402,2.43746796 C1.59128019,2.85390291 3.3089979,1.02114175 7.2410212,2.61567379 C7.95786691,2.9064699 8.38592201,0.129739806 4.17097187,0.129739806 C0.521875402,0.12936699 -0.124238596,2.18544466 0.521875402,2.43746796 L0.521875402,2.43746796 Z" id="Shape" fill="#86461B"></path>
                                                    <g transform="translate(22.355618, 5.219417)" id="Oval">
                                                        <ellipse fill="#3B2519" cx="2.42356884" cy="2.65258252" rx="2.26231521" ry="2.52060583"></ellipse>
                                                        <ellipse fill="#FFFFFF" cx="1.43698978" cy="1.53972816" rx="0.676898783" ry="0.688590291"></ellipse>
                                                    </g>
                                                    <path d="M28.1186027,2.43746796 C27.0488314,2.85390291 25.3314802,1.02114175 21.3990904,2.61567379 C20.6826112,2.9064699 20.2545561,0.129739806 24.4695062,0.129739806 C28.1186027,0.12936699 28.7650832,2.18544466 28.1186027,2.43746796 L28.1186027,2.43746796 Z" id="Shape" fill="#86461B"></path>
                                                </g>
                                                <path d="M22.8324153,33.7558369 C22.8324153,34.5775223 23.4788958,36.1392466 26.4144449,36.1392466 C29.3499941,36.1392466 29.9961081,34.5775223 29.9961081,33.7558369 C29.9961081,32.9341515 28.6496402,34.632699 26.4144449,34.632699 C24.1788832,34.632699 22.8324153,32.9337786 22.8324153,33.7558369 Z" id="Shape" fill="#BE874F"></path>
                                                <path d="M26.4144449,40.0959379 C22.8712628,40.0959379 20.7364845,38.6277903 20.7364845,39.000233 C20.7364845,39.3719301 21.7611781,40.8359767 26.4144449,40.8359767 C31.0677118,40.8359767 32.0920388,39.3719301 32.0920388,39.000233 C32.0920388,38.6277903 29.9576271,40.0959379 26.4144449,40.0959379 L26.4144449,40.0959379 Z" id="Shape" fill="#BE8750"></path>
                                            </g>
                                            <ellipse id="Oval" fill-opacity="0.200000018" fill="#FFFFFF" cx="13.3257805" cy="33.8218252" rx="3.07041581" ry="3.12344854"></ellipse>
                                            <ellipse id="Oval" fill-opacity="0.200000018" fill="#FFFFFF" cx="39.8802229" cy="33.8218252" rx="3.07004933" ry="3.12307573"></ellipse>
                                        </g>
                                        <path d="M34.4771267,62.7485825 L34.4771267,76.5569243 L10.8853534,76.5569243 C10.8853534,70.9680466 22.0884497,62.7485825 34.4771267,62.7485825 L34.4771267,62.7485825 Z" id="Shape" fill="#F7ACBA"></path>
                                        <path d="M34.4771267,62.7485825 L34.4771267,76.5569243 L58.0685336,76.5569243 C58.0685336,70.9680466 46.8654372,62.7485825 34.4771267,62.7485825 L34.4771267,62.7485825 Z" id="Shape" fill="#F7ACBA"></path>
                                        <path d="M34.4067615,62.7485825 C31.7420452,62.7485825 29.0139268,63.1232621 26.3686342,63.7630136 C26.386592,63.786501 29.3027174,67.5705786 34.4067615,67.5705786 C39.1336919,67.5705786 42.2759389,64.330066 42.7314804,63.8312388 C39.9974983,63.1486136 37.1678635,62.7485825 34.4067615,62.7485825 L34.4067615,62.7485825 Z" id="Shape" fill="#F5919D"></path>
                                        <path d="M29.0905223,63.226532 C29.0905223,63.226532 30.6660436,65.2143845 34.4767602,65.2143845 C38.2874768,65.2143845 39.8629981,63.226532 39.8629981,63.226532 C39.8629981,63.226532 34.2751932,61.157033 29.0905223,63.226532 L29.0905223,63.226532 Z" id="Shape" fill="#D7A674"></path>
                                        <path d="M63.3510561,28.3529942 C69.3808426,33.5985087 64.5776831,38.7851184 64.5776831,38.7851184 C66.5801601,44.8858718 59.7932145,46.3927922 59.7932145,46.3927922 C59.7932145,46.3927922 57.3150393,52.228101 53.9217497,50.4967456 C50.5280937,48.7650175 52.305915,43.0229126 52.305915,43.0229126 C50.1407185,40.6391301 52.4671686,38.0913087 52.4671686,38.0913087 C49.8816132,35.6255068 52.1439284,30.6939029 52.1439284,30.6939029 C49.558373,29.8722175 48.7506388,26.4199456 48.7506388,26.4199456 C44.7108688,26.255534 43.5795279,20.6662835 43.5795279,20.6662835 C43.5795279,20.6662835 42.2869335,25.4334757 37.1158226,23.789732 C37.1158226,23.789732 32.4299385,28.0636893 29.0362825,24.7762019 C29.0362825,24.7762019 24.1884118,28.228101 21.6032228,24.4473786 C21.6032228,24.4473786 21.6032228,28.3925126 16.2704918,29.2141981 C16.2704918,29.2141981 18.3711869,34.8034485 15.6240113,37.2688777 C15.6240113,37.2688777 18.8556808,43.1865786 16.1088717,45.6523806 C16.1088717,45.6523806 20.9567423,49.7619262 18.3711869,52.3921398 C15.7856314,55.0223534 11.5842413,53.0497864 11.4226212,49.2686913 C11.4226212,49.2686913 5.28215602,50.0907495 5.60539626,43.1865786 C5.60539626,43.1865786 1.08076584,37.1048388 4.79766214,32.1728621 C4.79766214,32.1728621 1.72724633,26.2551612 6.08989013,21.817165 C6.08989013,21.817165 5.60539626,13.2692505 11.5842413,11.4610951 C11.5842413,11.4610951 14.0078101,4.06368932 20.4715155,5.21457087 C20.4715155,5.21457087 24.6729057,-1.0319534 31.2982312,2.09112233 C31.2982312,2.09112233 38.5700372,-2.18283495 42.7714273,2.74876893 C42.7714273,2.74876893 47.0058012,-0.0454834951 50.1399855,5.21457087 C50.1399855,5.21457087 55.537218,6.25547184 56.0217118,11.5707029 C56.0217118,11.5707029 63.5617852,13.2144466 61.516063,19.7897942 C61.516796,19.790167 67.1559089,21.7776466 63.3510561,28.3529942 L63.3510561,28.3529942 Z" id="Shape" fill="#463021"></path>
                                        <path d="M22.9346648,65.069732 C15.9084041,67.9150602 10.8849869,72.8187029 10.8849869,76.5572971 L26.0281692,76.5572971 L22.9346648,65.069732 L22.9346648,65.069732 Z" id="Shape" fill="#D85B72"></path>
                                        <path d="M27.2591941,76.5569243 C27.2591941,76.5569243 24.2426517,67.5157748 23.9197779,63.9538951 C23.9197779,63.9538951 22.2771897,64.0556738 20.4183751,65.6528155 C20.4183751,65.6528155 22.7884371,73.323868 24.296525,76.5021204 L27.2591941,76.5569243 L27.2591941,76.5569243 Z" id="Shape" fill="#BA396A"></path>
                                        <path d="M46.0192221,65.069732 C53.0454828,67.9150602 58.0685336,72.8187029 58.0685336,76.5572971 L42.9257177,76.5572971 L46.0192221,65.069732 L46.0192221,65.069732 Z" id="Shape" fill="#D85B72"></path>
                                        <path d="M41.6946928,76.5569243 C41.6946928,76.5569243 44.7108688,67.5157748 45.034109,63.9538951 C45.034109,63.9538951 46.6766972,64.0556738 48.5355118,65.6528155 C48.5355118,65.6528155 46.1654499,73.323868 44.6573619,76.5021204 L41.6946928,76.5569243 L41.6946928,76.5569243 Z" id="Shape" fill="#BA396A"></path>
                                    </g>
                                </g>
                            </g>
                        </g>
                        <g id="Group-2" transform="translate(261.500000, 129.000000) rotate(-345.000000) translate(-261.500000, -129.000000) translate(183.000000, 33.000000)">
                            <g id="Group-3-Copy" transform="translate(0.000000, -0.000000)">
                                <g id="Rectangle-10">
                                    <use fill="black" fill-opacity="1" filter="url(#filter-4)" xlink:href="#path-3"></use>
                                    <use fill="#FFFFFF" fill-rule="evenodd" xlink:href="#path-3"></use>
                                </g>
                                <g id="Brand" transform="translate(42.920863, 13.552941)">
                                    <g id="Layer_2">
                                        <path d="M19.3195464,8.48340426 C18.9367958,8.69780933 18.5101222,8.80788913 18.0776616,8.80380476 C17.0388711,8.80380476 16.3378192,8.42573217 15.8646844,7.93151439 C14.6931502,6.67807026 14.6931502,4.65209245 15.8646844,3.39864831 C16.3626419,2.88600751 17.0892686,2.53516896 17.9708489,2.53516896 C18.3424365,2.53516896 18.7734481,2.61526909 19.3248119,2.86758448 L19.3248119,4.46958698 C19.0374708,4.14918648 18.6072115,3.82878598 18.0077068,3.82878598 C17.534572,3.82878598 17.1547102,3.98898623 16.8590949,4.29657071 C16.5104931,4.66335336 16.3168993,5.16529199 16.3227752,5.68710889 C16.3227752,6.30788486 16.5589665,6.74843554 16.8124584,7.00956195 C17.139386,7.34215884 17.5767205,7.52331509 18.0287685,7.51339174 C18.366507,7.51339174 18.8223412,7.41406758 19.3210508,6.89261577 L19.3195464,8.48340426 Z" id="Shape" fill="#333333"></path>
                                        <path d="M23.6687762,7.53902378 L21.5400456,7.53902378 L21.1090341,8.67244055 L19.7550712,8.67244055 L22.0267201,2.67374218 L23.2174552,2.67374218 L25.4387066,8.67244055 L24.0847437,8.67244055 L23.6687762,7.53902378 Z M23.3137371,6.47769712 L22.6209594,4.46317897 L21.9199074,6.47769712 L23.3137371,6.47769712 Z" id="Shape" fill="#333333"></path>
                                        <path d="M28.0511029,2.67374218 C28.7687032,2.67374218 29.2170154,2.92525657 29.4870558,3.19519399 C29.7232471,3.43549437 29.976739,3.86963705 29.976739,4.53526909 C29.976739,4.91334168 29.9015189,5.38032541 29.5374533,5.758398 C29.3169368,5.98050726 29.0465244,6.13855186 28.7521548,6.21737171 L30.4822185,8.67244055 L28.8958253,8.67244055 L27.3756258,6.30708385 L27.3756258,8.67244055 L26.0750692,8.67244055 L26.0750692,2.67374218 L28.0511029,2.67374218 Z M27.3741214,5.39714643 L27.6697366,5.39714643 C27.905928,5.39714643 28.227118,5.36991239 28.4467609,5.13602003 C28.5882586,4.97935342 28.6644595,4.7685509 28.6581296,4.55128911 C28.6696072,4.31431714 28.5719263,4.08625459 28.3963634,3.94012516 C28.1849948,3.76951189 27.8472562,3.75108886 27.6787631,3.75108886 L27.3778824,3.75108886 L27.3741214,5.39714643 Z" id="Shape" fill="#333333"></path>
                                        <polygon id="Shape" fill="#333333" points="34.2161474 3.84480601 32.3356433 3.84480601 32.3356433 5.00465582 34.1258832 5.00465582 34.1258832 6.17411765 32.3356433 6.17411765 32.3356433 7.50538173 34.2161474 7.50538173 34.2161474 8.67484355 31.0320779 8.67484355 31.0320779 2.67374218 34.2161474 2.67374218"></polygon>
                                        <polygon id="Shape" fill="#333333" points="35.1789654 8.67244055 36.0816074 2.67374218 37.1625211 2.67374218 38.5646249 6.26222778 39.9667287 2.67374218 41.0476425 2.67374218 41.9502844 8.67244055 40.6512322 8.67244055 40.1999113 5.09276596 38.7895332 8.67244055 38.333699 8.67244055 36.923321 5.09276596 36.472 8.67244055"></polygon>
                                        <polygon id="Shape" fill="#333333" points="46.0558009 3.84480601 44.1752968 3.84480601 44.1752968 5.00465582 45.9595191 5.00465582 45.9595191 6.17411765 44.1692792 6.17411765 44.1692792 7.50538173 46.0497833 7.50538173 46.0497833 8.67484355 42.8717314 8.67484355 42.8717314 2.67374218 46.0558009 2.67374218"></polygon>
                                        <path d="M50.0672921,4.13957447 C49.645307,3.73506884 49.2819936,3.70783479 49.1217747,3.70783479 C48.9442551,3.70783479 48.7246122,3.73506884 48.5726675,3.91449312 C48.4798517,4.01542511 48.4282174,4.15130218 48.428997,4.29256571 C48.4224166,4.41790199 48.4687626,4.53981519 48.5553669,4.62498123 C48.6907632,4.75954944 48.8848312,4.81401752 49.264693,4.96700876 L49.6866781,5.13762203 C49.9318958,5.23694618 50.2357853,5.37151439 50.4554282,5.59659574 C50.7332409,5.89061287 50.8831996,6.29476714 50.869139,6.71158949 C50.869139,7.33236546 50.6667968,7.8714393 50.3711816,8.19584481 C49.8732241,8.75654568 49.1465973,8.80700876 48.7750097,8.80700876 C48.3898024,8.82024491 48.0073143,8.73394739 47.6602469,8.55549437 C47.3561118,8.3802335 47.0774126,8.15899748 46.8328251,7.89867334 L47.5098066,6.9094368 C47.6706736,7.08054835 47.8470467,7.23428865 48.0363477,7.36841051 C48.2484837,7.51120577 48.494717,7.58600311 48.7456739,7.58387985 C48.9595237,7.59179577 49.16906,7.51855459 49.3369043,7.37722153 C49.4692232,7.25586036 49.5434799,7.07772307 49.5392466,6.89181477 C49.5429466,6.7231728 49.4708475,6.5627754 49.3451786,6.46007509 C49.1947382,6.32550688 48.8472211,6.19013767 48.6862499,6.12765957 L48.2161239,5.95624531 C47.9543578,5.85692115 47.6504683,5.73116395 47.4308254,5.47564456 C47.1352102,5.14322904 47.0930869,4.72030038 47.0930869,4.43434293 C47.0930869,3.9040801 47.2435272,3.4539174 47.5827702,3.08545682 C47.9799326,2.65371715 48.4523152,2.53677096 48.9765998,2.53677096 C49.5803708,2.53167122 50.1686005,2.7404684 50.648744,3.13031289 L50.0672921,4.13957447 Z" id="Shape" fill="#333333"></path>
                                        <path d="M54.7121371,4.13957447 C54.290152,3.73506884 53.9268386,3.70783479 53.7666197,3.70783479 C53.5891001,3.70783479 53.3694572,3.73506884 53.2175125,3.91449312 C53.1247662,4.01547353 53.0731439,4.15131883 53.073842,4.29256571 C53.0672616,4.41790199 53.1136076,4.53981519 53.2002119,4.62498123 C53.3356082,4.75954944 53.5296762,4.81401752 53.909538,4.96700876 L54.3315231,5.13762203 C54.5767408,5.23694618 54.8806303,5.37151439 55.1002732,5.59659574 C55.3780859,5.89061287 55.5280446,6.29476714 55.5139841,6.71158949 C55.5139841,7.33236546 55.3116418,7.8714393 55.0160266,8.19584481 C54.5180691,8.75654568 53.7914423,8.80700876 53.4198547,8.80700876 C53.0346474,8.82024491 52.6521593,8.73394739 52.3050919,8.55549437 C52.0009569,8.3802335 51.7222576,8.15899748 51.4776702,7.89867334 L52.1546516,6.9094368 C52.3155352,7.08052891 52.4919063,7.23426757 52.6811928,7.36841051 C52.8933462,7.51116415 53.1395677,7.58595793 53.3905189,7.58387985 C53.6043687,7.59179577 53.813905,7.51855459 53.9817494,7.37722153 C54.1140682,7.25586036 54.1883249,7.07772307 54.1840916,6.89181477 C54.1877916,6.7231728 54.1156926,6.5627754 53.9900236,6.46007509 C53.8395833,6.32550688 53.4920661,6.19013767 53.331095,6.12765957 L52.8662344,5.95704631 C52.6044682,5.85772215 52.3005787,5.73196496 52.0809359,5.47644556 C51.7853206,5.14403004 51.7431973,4.72110138 51.7431973,4.43514393 C51.7431973,3.9048811 51.8936377,3.4547184 52.2328806,3.08625782 C52.630043,2.65451815 53.1024257,2.53757196 53.6267102,2.53757196 C54.2304813,2.53247223 54.818711,2.7412694 55.2988544,3.13111389 L54.7121371,4.13957447 Z" id="Shape" fill="#333333"></path>
                                        <path d="M59.5848992,7.53902378 L57.4561686,7.53902378 L57.0251571,8.67244055 L55.6711942,8.67244055 L57.9428431,2.67374218 L59.1335783,2.67374218 L61.3548297,8.67244055 L60.0008667,8.67244055 L59.5848992,7.53902378 Z M59.2298601,6.47769712 L58.5370824,4.46317897 L57.8360305,6.47769712 L59.2298601,6.47769712 Z" id="Shape" fill="#333333"></path>
                                        <path d="M64.4486349,5.39874844 L67.246825,5.39874844 L67.246825,5.46202753 C67.246825,6.19013767 67.0016072,7.2963204 66.3772799,7.98918648 C65.7529525,8.68205257 65.0315912,8.81101377 64.3643883,8.81101377 C63.6971855,8.81101377 62.9622845,8.69406758 62.3033559,7.97476846 C61.9738916,7.6151189 61.4759341,6.88620776 61.4759341,5.69031289 C61.4759341,4.70988736 61.8136726,3.92811014 62.2868075,3.41466834 C62.9795852,2.65051314 63.8325818,2.54237797 64.4997846,2.54237797 C64.9646452,2.54237797 65.5528669,2.6224781 66.079408,2.99173967 C66.4537738,3.27263127 66.7653209,3.63803103 66.9918286,4.06187735 L65.8176419,4.7331164 C65.7012295,4.47904476 65.5307178,4.25742595 65.3196844,4.08590738 C65.0698504,3.89233587 64.7673099,3.79132423 64.4584135,3.79834793 C63.9431554,3.79834793 63.5632936,3.97857322 63.2932532,4.28375469 C62.9810896,4.63459324 62.8118442,5.14723404 62.8118442,5.70473091 C62.8118442,6.38798498 63.0480355,6.82613267 63.284979,7.08085106 C63.6144433,7.44050063 63.9943051,7.54863579 64.4253167,7.54863579 C64.9826981,7.54863579 65.2783133,7.34197747 65.4031788,7.22823529 C65.6027955,7.04061269 65.7441825,6.79284574 65.8086155,6.51774718 L64.4486349,6.51774718 L64.4486349,5.39874844 Z" id="Shape" fill="#333333"></path>
                                        <polygon id="Shape" fill="#333333" points="71.1462382 3.84480601 69.2657341 3.84480601 69.2657341 5.00465582 71.055974 5.00465582 71.055974 6.17411765 69.2627253 6.17411765 69.2627253 7.50538173 71.1432293 7.50538173 71.1432293 8.67484355 67.9621687 8.67484355 67.9621687 2.67374218 71.1462382 2.67374218"></polygon>
                                        <polygon id="Shape" fill="#FFFFFF" points="10.5601586 10.0365457 2.34536466 10.0165207 2.33633824 1.27359199 10.5526365 1.28881101"></polygon>
                                        <polygon id="Shape" fill="#FFFFFF" points="10.5594064 10.0365457 2.34386025 10.0165207 2.33558603 1.27359199 10.5526365 1.28881101"></polygon>
                                        <polygon id="Shape" fill="#FFCE4D" points="8.08315862 3.96095119 8.90080179 3.08946183 7.26476326 3.08946183"></polygon>
                                        <polygon id="Shape" fill="#FFC11C" points="5.62797253 3.08946183 3.98065098 3.08946183 4.80431176 3.9665582"></polygon>
                                        <polygon id="Shape" fill="#FF6161" points="9.71317954 5.70312891 9.71317954 3.95534418 8.89553637 4.82603254"></polygon>
                                        <polygon id="Shape" fill="#FF9640" points="8.89553637 4.82603254 9.71317954 3.95534418 9.71317954 3.95454318 8.90080179 3.08946183 8.08315862 3.96095119"></polygon>
                                        <polygon id="Shape" fill="#FF7575" points="3.16827323 5.6975219 3.98666859 4.82603254 3.16827323 3.95534418"></polygon>
                                        <polygon id="Shape" fill="#FF9640" points="4.80431176 3.9665582 3.98065098 3.08946183 3.16827323 3.95534418 3.98666859 4.82603254"></polygon>
                                        <polygon id="Shape" fill="#FFCE4D" points="8.08315862 3.96095119 7.26476326 3.08946183 6.4463679 3.96095119 7.25874565 4.82603254"></polygon>
                                        <polygon id="Shape" fill="#FFC11C" points="6.4463679 3.96095119 5.62797253 3.08946183 4.80431176 3.9665582 5.63022914 4.83404255"></polygon>
                                        <polygon id="Shape" fill="#FFCE4D" points="6.43583707 5.69111389 7.25874565 4.82603254 6.4463679 3.96095119 5.63022914 4.83404255"></polygon>
                                        <polygon id="Shape" fill="#FF7575" points="5.61894611 8.317597 7.25874565 8.317597 6.44110248 7.44370463"></polygon>
                                        <polygon id="Shape" fill="#FF6161" points="8.89553637 4.82603254 8.08842403 5.70312891 9.71317954 5.70312891"></polygon>
                                        <polygon id="Shape" fill="#FF6161" points="8.89553637 6.57461827 9.71317954 5.70312891 8.08842403 5.70312891"></polygon>
                                        <polygon id="Shape" fill="#FF7575" points="3.98666859 4.82603254 3.16827323 5.6975219 4.80130295 5.6975219"></polygon>
                                        <polygon id="Shape" fill="#FF7575" points="4.80130295 5.6975219 3.16827323 5.6975219 3.98666859 6.57221527"></polygon>
                                        <polygon id="Shape" fill="#FF6161" points="7.26476326 6.58022528 6.44260689 7.44450563 7.25874565 8.317597 8.07714101 7.44610763"></polygon>
                                        <polygon id="Shape" fill="#FF6161" points="7.26476326 6.58022528 8.07714101 7.44610763 8.89553637 6.57461827 8.08842403 5.70312891"></polygon>
                                        <polygon id="Shape" fill="#FF7575" points="5.62270712 6.57221527 4.80431176 7.44290363 5.61894611 8.317597 6.44110248 7.44370463"></polygon>
                                        <polygon id="Shape" fill="#FF7575" points="3.98666859 6.57221527 4.80431176 7.44290363 5.62270712 6.57221527 4.80130295 5.6975219"></polygon>
                                        <polygon id="Shape" fill="#FF6161" points="8.89553637 4.82603254 8.08842403 5.70312891 7.26476326 6.58022528 6.44260689 7.44450563 7.25874565 8.317597 8.07714101 7.44610763 8.89553637 6.57461827 9.71317954 5.70312891 9.71317954 3.95534418"></polygon>
                                        <polygon id="Shape" fill="#FF8585" points="6.44110248 7.44370463 5.62270712 6.57221527 4.80130295 5.6975219 3.98666859 4.82603254 3.16827323 3.95534418 3.16827323 5.6975219 3.98666859 6.57221527 4.80431176 7.44290363 5.61894611 8.317597 7.25874565 8.317597"></polygon>
                                        <polygon id="Shape" fill="#FFB308" points="5.62797253 3.08946183 3.98065098 3.08946183 4.80431176 3.9665582 5.63022914 4.82923655 6.4463679 3.96095119"></polygon>
                                        <polygon id="Shape" fill="#FFC933" points="7.26476326 3.08946183 6.4463679 3.96095119 5.63022914 4.82923655 6.43583707 5.69111389 7.25874565 4.82603254 8.08315862 3.96095119 8.90080179 3.08946183"></polygon>
                                        <polygon id="Shape" fill="#FF7F40" points="8.89553637 4.82603254 9.71317954 3.95534418 9.71317954 3.95454318 8.90080179 3.08946183 8.08315862 3.96095119"></polygon>
                                        <polygon id="Shape" fill="#FF7F40" points="4.80431176 3.9665582 3.98065098 3.08946183 3.16827323 3.95534418 3.98666859 4.82603254"></polygon>
                                        <polygon id="center_white" fill="#FFFFFF" points="10.5601586 10.0365457 2.34536466 10.0165207 2.33633824 1.27359199 10.5526365 1.28881101"></polygon>
                                        <g id="left_frame" transform="translate(1.203523, 0.000000)" fill="#06D2B3">
                                            <polygon id="Shape" points="1.14033766 1.28881101 9.34911395 1.28881101 8.19373226 0.0712891114 0.00300880649 0.0712891114 0.00225660486 8.78297872 1.14033766 10.0165207"></polygon>
                                        </g>
                                        <g id="right_frame" transform="translate(2.331825, 1.281602)" fill="#13B1F6">
                                            <polygon id="Shape" points="0.0112830243 8.73491865 1.15237288 9.95244055 9.34384854 9.95244055 9.34460074 1.24075094 8.22005932 0.00720901126 8.20576749 8.73491865"></polygon>
                                        </g>
                                        <polygon id="left_green_tail" fill="#018382" points="1.2057792 1.28881101 2.34386025 1.28881101 2.34386025 0.0712891114 0.0669459443 0.0712891114"></polygon>
                                        <polygon id="right_blue_tail" fill="#0651D7" points="11.6764258 10.0165207 10.5375925 10.0165207 10.5375925 11.2348436 12.815259 11.2348436"></polygon>
                                        <polygon id="right_pink" fill="#FF6161" points="8.89553637 4.82603254 8.08842403 5.70312891 7.26476326 6.58022528 6.44260689 7.44450563 7.25874565 8.317597 8.07714101 7.44610763 8.89553637 6.57461827 9.71317954 5.70312891 9.71317954 3.95534418"></polygon>
                                        <polygon id="left_pink" fill="#FF8585" points="6.44110248 7.44370463 5.62270712 6.57221527 4.80130295 5.6975219 3.98666859 4.82603254 3.16827323 3.95534418 3.16827323 5.6975219 3.98666859 6.57221527 4.80431176 7.44290363 5.61894611 8.317597 7.25874565 8.317597"></polygon>
                                        <polygon id="left_yellow" fill="#FFB308" points="5.62797253 3.08946183 3.98065098 3.08946183 4.80431176 3.9665582 5.63022914 4.82923655 6.4463679 3.96095119"></polygon>
                                        <polygon id="right_yellow" fill="#FFC933" points="7.26476326 3.08946183 6.4463679 3.96095119 5.63022914 4.82923655 6.43583707 5.69111389 7.25874565 4.82603254 8.08315862 3.96095119 8.90080179 3.08946183"></polygon>
                                        <polygon id="right_orange" fill="#FF7F40" points="8.89553637 4.82603254 9.71317954 3.95534418 9.71317954 3.95454318 8.90080179 3.08946183 8.08315862 3.96095119"></polygon>
                                        <polygon id="left_orange" fill="#FF7F40" points="4.80431176 3.9665582 3.98065098 3.08946183 3.16827323 3.95534418 3.98666859 4.82603254"></polygon>
                                    </g>
                                </g>
                                <text id="Ethel-Herrera" font-family="SourceSansPro-Semibold, Source Sans Pro" font-size="15" font-weight="500" fill="#4A4A4A">
                                    <tspan x="29.3669065" y="157.305882">Ethel Herrera</tspan>
                                </text>
                                <text id="United-State" font-family="SourceSansPro-Semibold, Source Sans Pro" font-size="10" font-weight="500" fill="#AEAEAE">
                                    <tspan x="48.5683453" y="176.023529">United State</tspan>
                                </text>
                            </g>
                            <g id="girl-1" transform="translate(44.050360, 42.917647)">
                                <g id="Capa_1" transform="translate(0.000000, 0.000000)">
                                    <g id="Group">
                                        <path d="M34.4439928,16.3817412 L34.4439928,76.6185412 C34.4439928,76.6185412 0.246606715,80.1618824 0.246606715,63.4925176 C0.246606715,63.4925176 9.43204796,64.6501647 7.55143645,56.9897412 C5.16744604,47.2783059 6.5010048,31.5501176 7.55143645,22.9537882 C8.60186811,14.3570824 34.4439928,16.3817412 34.4439928,16.3817412 L34.4439928,16.3817412 Z" id="Shape" fill="#330C00"></path>
                                        <path d="M34.3333022,16.3817412 L34.3333022,76.6185412 C34.3333022,76.6185412 68.5306882,80.1618824 68.5306882,63.4925176 C68.5306882,63.4925176 59.345247,64.6501647 61.2258585,56.9897412 C63.6098489,47.2783059 62.2762902,31.5501176 61.2258585,22.9537882 C60.1750504,14.3570824 34.3333022,16.3817412 34.3333022,16.3817412 L34.3333022,16.3817412 Z" id="Shape" fill="#330C00"></path>
                                        <path d="M35.0407434,67.6604235 L35.0407434,58.8845176 C35.0407434,58.8845176 48.971952,58.4624941 48.971952,66.8935529 L35.0407434,67.6604235 L35.0407434,67.6604235 Z" id="Shape" fill="#00B497"></path>
                                        <path d="M33.8472422,67.6604235 L33.8472422,58.8845176 C33.8472422,58.8845176 19.9160336,58.4624941 19.9160336,66.8935529 L33.8472422,67.6604235 L33.8472422,67.6604235 Z" id="Shape" fill="#00B497"></path>
                                        <g transform="translate(7.529976, 12.047059)">
                                            <g>
                                                <rect id="Rectangle-path" fill="#FDCC9B" x="21.3806139" y="46.8367059" width="11.0671823" height="12.3945412"></rect>
                                                <path d="M21.3806139,48.2966588 C21.3806139,48.2966588 26.0356451,51.2609882 32.4477962,50.5746824 L32.4477962,46.8367059 L21.3806139,46.8367059 L21.3806139,48.2966588 L21.3806139,48.2966588 Z" id="Shape" fill="#FCBC85"></path>
                                                <ellipse id="Oval" fill="#FCBC85" cx="5.42158273" cy="27.6178824" rx="5.4001223" ry="6.16056471"></ellipse>
                                                <ellipse id="Oval" fill="#FCBC85" cx="48.4056978" cy="27.6178824" rx="5.4001223" ry="6.16056471"></ellipse>
                                                <path d="M48.3838609,15.8509176 C48.3838609,6.77647059 41.7435516,0.137035294 26.9140168,0.137035294 C12.083729,0.137035294 5.44379616,6.77684706 5.44379616,15.8509176 C5.44379616,24.9253647 3.8945036,48.8286118 26.9140168,48.8286118 C49.93353,48.8286118 48.3838609,24.9257412 48.3838609,15.8509176 L48.3838609,15.8509176 Z" id="Shape" fill="#FDCC9B"></path>
                                                <g transform="translate(12.424460, 18.070588)">
                                                    <g transform="translate(1.505995, 5.270588)" id="Oval">
                                                        <ellipse fill="#3B2519" cx="2.52593046" cy="2.80169412" rx="2.3241271" ry="2.54531765"></ellipse>
                                                        <ellipse fill="#FFFFFF" cx="1.51277218" cy="1.67792941" rx="0.695016787" ry="0.694964706"></ellipse>
                                                    </g>
                                                    <path d="M0.314,2.58447059 C1.413,3.00498824 3.17764988,1.15425882 7.21748201,2.76442353 C7.95353717,3.05807059 8.39328777,0.254117647 4.06317506,0.254117647 C0.314,0.254117647 -0.350143885,2.32997647 0.314,2.58447059 L0.314,2.58447059 Z" id="Shape" fill="#684B37"></path>
                                                    <g transform="translate(22.589928, 5.270588)" id="Oval">
                                                        <ellipse fill="#3B2519" cx="2.64415108" cy="2.80169412" rx="2.3241271" ry="2.54531765"></ellipse>
                                                        <ellipse fill="#FFFFFF" cx="1.63099281" cy="1.67792941" rx="0.695393285" ry="0.695341176"></ellipse>
                                                    </g>
                                                    <path d="M28.6647362,2.58447059 C27.5657362,3.00498824 25.8014628,1.15425882 21.7616307,2.76442353 C21.0255755,3.05807059 20.5858249,0.254117647 24.9159376,0.254117647 C28.6647362,0.254117647 29.3288801,2.32997647 28.6647362,2.58447059 L28.6647362,2.58447059 Z" id="Shape" fill="#684B37"></path>
                                                </g>
                                                <path d="M26.9140168,35.0957176 C24.6173741,35.0957176 23.2341175,33.3801412 23.2341175,34.2102588 C23.2341175,35.04 23.8982614,36.6174118 26.9140168,36.6174118 C29.9297722,36.6174118 30.5935396,35.0403765 30.5935396,34.2102588 C30.5935396,33.3801412 29.210283,35.0957176 26.9140168,35.0957176 L26.9140168,35.0957176 Z" id="Shape" fill="#FCBC85"></path>
                                                <path d="M26.9140168,42.7267765 C26.1196043,42.7267765 25.6410743,42.1334588 25.6410743,42.4207059 C25.6410743,42.7079529 25.8707386,43.2534588 26.9140168,43.2534588 C27.957295,43.2534588 28.1865827,42.7079529 28.1865827,42.4207059 C28.1865827,42.1334588 27.7080528,42.7267765 26.9140168,42.7267765 L26.9140168,42.7267765 Z" id="Shape" fill="#FCBC85"></path>
                                                <path d="M26.9140168,40.6121412 C23.2736499,40.6121412 21.0809209,39.1296 21.0809209,39.5053176 C21.0809209,39.8806588 22.1336115,41.3590588 26.9140168,41.3590588 C31.6944221,41.3590588 32.7471127,39.8806588 32.7471127,39.5053176 C32.7471127,39.1299765 30.5540072,40.6121412 26.9140168,40.6121412 L26.9140168,40.6121412 Z" id="Shape" fill="#F7945E"></path>
                                            </g>
                                            <ellipse id="Oval" fill="#F9AA8D" cx="13.4677386" cy="34.2768941" rx="3.15393046" ry="3.15369412"></ellipse>
                                            <ellipse id="Oval" fill="#F9AA8D" cx="40.7480887" cy="34.2768941" rx="3.15393046" ry="3.15369412"></ellipse>
                                        </g>
                                        <path d="M34.4439928,63.8637176 L34.4439928,77.8074353 L10.2076355,77.8074353 C10.2076355,72.1637647 21.7168273,63.8637176 34.4439928,63.8637176 L34.4439928,63.8637176 Z" id="Shape" fill="#8FD6E7"></path>
                                        <path d="M34.4439928,63.8637176 L34.4439928,77.8074353 L58.6799736,77.8074353 C58.6799736,72.1637647 47.1711583,63.8637176 34.4439928,63.8637176 L34.4439928,63.8637176 Z" id="Shape" fill="#8FD6E7"></path>
                                        <path d="M34.4439928,77.1760941 L34.4439928,63.8637176 C30.8985036,63.8637176 27.4595635,64.5232941 24.325964,65.5744 L34.4439928,77.1760941 L34.4439928,77.1760941 Z" id="Shape" fill="#F6B1CF"></path>
                                        <path d="M34.4439928,77.1760941 L34.4439928,63.8637176 C37.9891055,63.8637176 41.4280456,64.5232941 44.5620216,65.5744 L34.4439928,77.1760941 L34.4439928,77.1760941 Z" id="Shape" fill="#F6B1CF"></path>
                                        <path d="M34.4439928,63.8637176 C31.8653525,63.8637176 29.3443165,64.2172235 26.9516667,64.8075294 C27.2923981,66.8784941 28.6910911,71.1273412 34.4439928,71.1273412 C40.196518,71.1273412 41.595211,66.8784941 41.9359424,64.8075294 C39.5436691,64.2168471 37.0226331,63.8637176 34.4439928,63.8637176 L34.4439928,63.8637176 Z" id="Shape" fill="#F283B4"></path>
                                        <path d="M28.9105899,64.3463529 C28.9105899,64.3463529 28.9102134,69.3304471 34.4439928,69.3304471 C39.9773957,69.3304471 39.9773957,64.3463529 39.9773957,64.3463529 C39.9773957,64.3463529 34.2361655,62.2561882 28.9105899,64.3463529 L28.9105899,64.3463529 Z" id="Shape" fill="#FDCC9B"></path>
                                        <path d="M25.9754053,64.9039059 C26.1410647,63.8268235 19.5301223,64.6208 19.5839616,67.6600471 C19.638554,70.6992941 26.8884149,73.0375529 28.88047,74.1443765 C30.8725252,75.2508235 34.4138729,77.8070588 34.4138729,77.8070588 C34.4138729,77.8070588 35.0780168,75.2395294 31.9790552,73.2585412 C28.8808465,71.2783059 25.754024,66.3427765 25.9754053,64.9039059 L25.9754053,64.9039059 Z" id="Shape" fill="#3ABDAA"></path>
                                        <path d="M42.8316331,64.9039059 C42.6659736,63.8268235 49.2769161,64.6208 49.2230767,67.6600471 C49.1684844,70.6992941 41.9186235,73.0375529 39.9265683,74.1443765 C37.9345132,75.2508235 34.3931655,77.8070588 34.3931655,77.8070588 C34.3931655,77.8070588 33.7290216,75.2395294 36.8279832,73.2585412 C39.9261918,71.2783059 43.0530144,66.3427765 42.8316331,64.9039059 L42.8316331,64.9039059 Z" id="Shape" fill="#3ABDAA"></path>
                                        <path d="M34.4439928,0 C9.54273861,0 6.22277218,21.7400471 6.22277218,37.7611294 C6.22277218,53.7825882 14.5174173,63.0863059 20.9977146,65.6847059 C20.9977146,65.6847059 10.6496451,47.3475765 15.7402854,30.3717647 C19.9054916,16.4822588 34.4439928,20.5835294 34.4439928,20.5835294 C34.4439928,20.5835294 48.981741,16.4818824 53.1473237,30.3717647 C58.237964,47.3475765 47.8898945,65.6847059 47.8898945,65.6847059 C54.3705683,63.0863059 62.6652134,53.7825882 62.6652134,37.7611294 C62.6652134,21.7400471 59.345247,0 34.4439928,0 L34.4439928,0 Z" id="Shape" fill="#401900"></path>
                                        <path d="M42.8643885,24.4193882 C42.8643885,24.4193882 33.5181823,29.1041882 25.2645755,28.1637647 C17.0113453,27.2229647 13.8412254,35.7790118 14.3449808,41.4415059 L11.5905156,28.8387765 L16.5708417,18.8679529 L30.7640935,11.5644235 L44.1753573,12.1840941 L50.5355516,17.7061647 L55.9360504,24.4193882 L59.7322878,28.8387765 L57.9058921,42.4391529 L54.0400024,47.0881882 C54.0403789,47.0881882 57.5380528,29.6387765 42.8643885,24.4193882 L42.8643885,24.4193882 Z" id="Shape" fill="#401900"></path>
                                    </g>
                                </g>
                            </g>
                        </g>
                    </g>
                </g>
            </g>
        </g>
    </g>
</svg>