<?xml version="1.0" encoding="UTF-8"?>
<svg width="328px" height="50px" viewBox="0 0 328 50" version="1.1" xmlns="http://www.w3.org/2000/svg" xmlns:xlink="http://www.w3.org/1999/xlink">
    <!-- Generator: Sketch 41.2 (35397) - http://www.bohemiancoding.com/sketch -->
    <title>Logo_about</title>
    <desc>Created with Sketch.</desc>
    <defs></defs>
    <g id="Website" stroke="none" stroke-width="1" fill="none" fill-rule="evenodd">
        <g id="About-Us" transform="translate(-557.000000, -1006.000000)">
            <g id="Section-01" transform="translate(0.000000, 708.000000)">
                <g id="Logo_about" transform="translate(557.000000, 298.000000)">
                    <path d="M88.9757286,36.6195365 C87.2114042,37.5429968 85.2446127,38.0171195 83.2511451,37.9995277 C78.4627442,37.9995277 75.2311804,36.3711381 73.0502216,34.2425017 C67.6499261,28.8438152 67.6499261,20.1177628 73.0502216,14.7190763 C75.3456028,12.5110904 78.6950562,11 82.7587824,11 C84.4716499,11 86.4584375,11.3449978 89,12.4317409 L89,19.3316968 C87.6754749,17.9517056 85.6921547,16.5717145 82.9286822,16.5717145 C80.7477233,16.5717145 78.9967151,17.26171 77.6340492,18.5865016 C76.0271368,20.1662645 75.1347482,22.3281553 75.1618336,24.5756634 C75.1618336,27.2493963 76.2505793,29.1468842 77.4190739,30.271577 C78.9260769,31.7040991 80.942011,32.4843539 83.0257678,32.4416132 C84.5826049,32.4416132 86.6838148,32.0138159 88.9826633,29.7678803 L88.9757286,36.6195365 Z" id="Shape" fill="#333333"></path>
                    <path d="M108.903388,32.0874616 L99.1654314,32.0874616 L97.1937533,37 L91,37 L101.391742,11 L106.838804,11 L117,37 L110.806247,37 L108.903388,32.0874616 Z M107.279248,27.4873815 L104.110111,18.7559087 L100.903123,27.4873815 L107.279248,27.4873815 Z" id="Shape" fill="#333333"></path>
                    <path d="M129.967401,11 C133.223929,11 135.258406,12.0901322 136.483871,13.2601148 C137.555726,14.3016424 138.706093,16.1833356 138.706093,19.0683669 C138.706093,20.707037 138.364738,22.7310722 136.712579,24.3697423 C135.711857,25.3324246 134.484704,26.0174331 133.148831,26.35906 L141,37 L133.800819,37 L126.902031,26.7478969 L126.902031,37 L121,37 L121,11 L129.967401,11 Z M126.895204,22.8039792 L128.23673,22.8039792 C129.308585,22.8039792 130.766172,22.6859394 131.762929,21.6721859 C132.405057,20.9931499 132.750863,20.0794741 132.722137,19.1378021 C132.774223,18.1107008 132.330939,17.1222153 131.534221,16.4888503 C130.575013,15.7493657 129.042328,15.6695153 128.277692,15.6695153 L126.912272,15.6695153 L126.895204,22.8039792 Z" id="Shape" fill="#333333"></path>
                    <polygon id="Shape" fill="#333333" points="158 16.0736786 149.141035 16.0736786 149.141035 21.098772 157.57477 21.098772 157.57477 26.1655099 149.141035 26.1655099 149.141035 31.9332621 158 31.9332621 158 37 143 37 143 11 158 11"></polygon>
                    <polygon id="Shape" fill="#333333" points="162 37 166.265719 11 171.373917 11 178 26.5534784 184.626083 11 189.734281 11 194 37 187.86092 37 185.72806 21.4847109 179.062875 37 176.908687 37 170.243501 21.4847109 168.110642 37"></polygon>
                    <polygon id="Shape" fill="#333333" points="212 16.0736786 203.141035 16.0736786 203.141035 21.098772 211.546421 21.098772 211.546421 26.1655099 203.112686 26.1655099 203.112686 31.9332621 211.971651 31.9332621 211.971651 37 197 37 197 11 212 11"></polygon>
                    <path d="M231.222074,17.9006002 C229.236124,16.1591685 227.526296,16.0419236 226.772272,16.0419236 C225.936828,16.0419236 224.903143,16.1591685 224.18806,16.9316055 C223.751249,17.3661265 223.508247,17.951089 223.511916,18.5592406 C223.480948,19.0988242 223.699062,19.623671 224.106639,19.9903181 C224.743842,20.5696459 225.657167,20.8041357 227.444875,21.4627762 L229.430825,22.197281 C230.584871,22.62488 232.015038,23.2042078 233.048723,24.1732024 C234.356167,25.4389715 235.061904,27.1788905 234.995732,28.9733467 C234.995732,31.6458408 234.043467,33.9666002 232.652241,35.3631938 C230.308749,37.7770595 226.889093,37.9943074 225.140324,37.9943074 C223.327459,38.0512901 221.52739,37.6797719 219.894019,36.9115162 C218.462696,36.1570031 217.15108,35.2045629 216,34.0838451 L219.186015,29.8250964 C219.943089,30.5617464 220.773137,31.2236117 221.664027,31.8010178 C222.662384,32.4157637 223.821208,32.7377727 225.002264,32.7286319 C226.008685,32.7627106 226.994807,32.447401 227.784717,31.83895 C228.407437,31.3164797 228.756904,30.5495833 228.736982,29.7492321 C228.754395,29.0232138 228.415082,28.3326892 227.823657,27.8905555 C227.115654,27.3112278 225.480166,26.7284516 224.722602,26.459478 L222.510092,25.7215248 C221.278166,25.2939258 219.847999,24.7525302 218.814314,23.6524971 C217.423087,22.2214196 217.224846,20.4006753 217.224846,19.1696038 C217.224846,16.8867766 217.932849,14.9487873 219.529397,13.3625328 C221.398526,11.5038562 223.621657,11.0003928 226.089049,11.0003928 C228.930521,10.978438 231.698852,11.8773279 233.958507,13.555642 L231.222074,17.9006002 Z" id="Shape" fill="#333333"></path>
                    <path d="M253.222074,17.8980328 C251.236124,16.1563787 249.526296,16.0391188 248.772272,16.0391188 C247.936828,16.0391188 246.903143,16.1563787 246.18806,16.9289144 C245.751576,17.3636993 245.508631,17.9485997 245.511916,18.5567574 C245.480948,19.0964098 245.699062,19.6213237 246.106639,19.9880177 C246.743842,20.5674194 247.657167,20.8019392 249.444875,21.4606638 L251.430825,22.1952624 C252.584871,22.6229161 254.015038,23.2023179 255.048723,24.1714363 C256.356167,25.4373671 257.061904,27.1775083 256.995732,28.9721937 C256.995732,31.6450291 256.043467,33.966085 254.652241,35.362857 C252.308749,37.777031 248.889093,37.9943067 247.140324,37.9943067 C245.327459,38.0512967 243.52739,37.679731 241.894019,36.9113772 C240.462696,36.1567677 239.15108,35.2042059 238,34.0833448 L241.186015,29.8240522 C241.943167,30.5607126 242.773206,31.2226553 243.664027,31.800226 C244.662466,32.4148712 245.821235,32.736906 247.002264,32.7279586 C248.008685,32.7620417 248.994807,32.4466918 249.784717,31.838163 C250.407437,31.315626 250.756904,30.5486317 250.736982,29.7481781 C250.754395,29.0220672 250.415082,28.3314543 249.823657,27.8892642 C249.115654,27.3098624 247.480166,26.7270119 246.722602,26.4580039 L244.534872,25.7234053 C243.302946,25.2957516 241.872779,24.7542869 240.839094,23.6541133 C239.447867,22.222853 239.249626,20.4018761 239.249626,19.1706473 C239.249626,16.8875285 239.957629,14.9492917 241.554177,13.3628345 C243.423306,11.5039206 245.646437,11.0003929 248.113829,11.0003929 C250.955301,10.9784353 253.723632,11.8774399 255.983287,13.5559685 L253.222074,17.8980328 Z" id="Shape" fill="#333333"></path>
                    <path d="M274.903388,32.0874616 L265.165431,32.0874616 L263.193753,37 L257,37 L267.391742,11 L272.838804,11 L283,37 L276.806247,37 L274.903388,32.0874616 Z M273.279248,27.4873815 L270.110111,18.7559087 L266.903123,27.4873815 L273.279248,27.4873815 Z" id="Shape" fill="#333333"></path>
                    <path d="M296.908238,23.3028367 L310,23.3028367 L310,23.5753897 C310,26.7114746 308.852711,31.4759775 305.9317,34.4602607 C303.010688,37.4445438 299.635688,38 296.514077,38 C293.392466,38 289.954119,37.4962944 286.87122,34.39816 C285.329771,32.8490928 283,29.7095579 283,24.5586507 C283,20.3358037 284.580162,16.9685663 286.793796,14.7570917 C290.035063,11.4657552 294.025938,11 297.14755,11 C299.322471,11 302.074557,11.3450038 304.53806,12.9354715 C306.289588,14.1453158 307.747209,15.71915 308.80696,17.5447227 L303.313347,20.4358548 C302.768694,19.3415284 301.970929,18.3869813 300.983577,17.6482239 C299.81469,16.8144809 298.399208,16.3794079 296.953989,16.4096601 C294.543274,16.4096601 292.766032,17.1859187 291.502607,18.5003833 C290.042101,20.0115001 289.250261,22.2195247 289.250261,24.6207513 C289.250261,27.563634 290.355318,29.450805 291.463895,30.5479172 C293.005344,32.0969844 294.782586,32.5627396 296.79914,32.5627396 C299.406934,32.5627396 300.790016,31.6726297 301.374218,31.1827243 C302.308155,30.3746042 302.969656,29.307433 303.271116,28.1225403 L296.908238,28.1225403 L296.908238,23.3028367 Z" id="Shape" fill="#333333"></path>
                    <polygon id="Shape" fill="#333333" points="328 16.0736786 319.141035 16.0736786 319.141035 21.098772 327.57477 21.098772 327.57477 26.1655099 319.12686 26.1655099 319.12686 31.9332621 327.985826 31.9332621 327.985826 37 313 37 313 11 328 11"></polygon>
                    <polygon id="Shape" fill="#FFFFFF" points="49 45 11.0417086 44.9108775 11 6 48.9652428 6.06773309"></polygon>
                    <polygon id="Shape" fill="#FFFFFF" points="49 45 11.0382329 44.9108775 11 6 48.9687186 6.06773309"></polygon>
                    <polygon id="Shape" fill="#FFCE4D" points="38.0018391 17 42 14 34 14"></polygon>
                    <polygon id="Shape" fill="#FFC11C" points="26 14 18 14 22 17"></polygon>
                    <polygon id="Shape" fill="#FF6161" points="44 25 44 17 41 20.9853346"></polygon>
                    <polygon id="Shape" fill="#FF9640" points="40.9870789 22 45 17.9889299 45 17.9852399 41.0129211 14 37 18.0147601"></polygon>
                    <polygon id="Shape" fill="#FF7575" points="15 25 18 20.9981609 15 17"></polygon>
                    <polygon id="Shape" fill="#FF9640" points="23 18.0405904 18.9724138 14 15 17.9889299 19.0018391 22"></polygon>
                    <polygon id="Shape" fill="#FFCE4D" points="37 18.0147601 33 14 29 18.0147601 32.9705882 22"></polygon>
                    <polygon id="Shape" fill="#FFC11C" points="31 17.9963269 27.0128264 14 23 18.0220386 27.0238204 22"></polygon>
                    <polygon id="Shape" fill="#FFCE4D" points="29.9575058 25 34 21 30.0092379 17 26 21.037037"></polygon>
                    <polygon id="Shape" fill="#FF7575" points="26 36 34 36 30.0110092 33"></polygon>
                    <polygon id="Shape" fill="#FF6161" points="40.9740741 22 37 25 45 25"></polygon>
                    <polygon id="Shape" fill="#FF6161" points="40.9740741 28 45 25 37 25"></polygon>
                    <polygon id="Shape" fill="#FF7575" points="19.0092123 22 15 25 23 25"></polygon>
                    <polygon id="Shape" fill="#FF7575" points="23 25 15 25 19.0092123 28"></polygon>
                    <polygon id="Shape" fill="#FF6161" points="33.0239301 30 29 33.9797142 32.9944777 38 37 33.9870908"></polygon>
                    <polygon id="Shape" fill="#FF6161" points="34 29.0257353 37.9852399 33 42 29 38.0405904 25"></polygon>
                    <polygon id="Shape" fill="#FF7575" points="27 30 23 33.9908215 26.9816176 38 31 33.9944929"></polygon>
                    <polygon id="Shape" fill="#FF7575" points="18 29.0091785 21.9981609 33 26 29.0091785 21.9834483 25"></polygon>
                    <polygon id="Shape" fill="#FF6161" points="40.25 20.7923246 36.5482981 24.6125597 32.7706992 28.4327947 29 32.197209 32.7431003 36 36.4965501 32.2041866 40.25 28.4083731 44 24.6125597 44 17"></polygon>
                    <polygon id="Shape" fill="#FF8585" points="30.2020964 32.1937202 26.4006988 28.3979067 22.5853255 24.5881381 18.8013976 20.7923246 15 17 15 24.5881381 18.8013976 28.3979067 22.5993012 32.1902314 26.3832291 36 34 36"></polygon>
                    <polygon id="Shape" fill="#FFB308" points="25.3489933 14 18 14 21.6744966 18.0331492 25.3590604 22 29 18.0073665"></polygon>
                    <polygon id="Shape" fill="#FFC933" points="33.4965501 14 29.7431003 17.6847291 26 21.3559113 29.6948022 25 33.4689512 21.3423645 37.25 17.6847291 41 14"></polygon>
                    <polygon id="Shape" fill="#FF7F40" points="40.9870789 22 45 17.9889299 45 17.9852399 41.0129211 14 37 18.0147601"></polygon>
                    <polygon id="Shape" fill="#FF7F40" points="23 18.0405904 18.9724138 14 15 17.9889299 19.0018391 22"></polygon>
                    <polygon id="center_white" fill="#FFFFFF" points="49 45 11.0417086 44.9108775 11 6 48.9652428 6.06773309"></polygon>
                    <g id="left_frame" transform="translate(6.000000, 0.000000)" fill="#06D2B3">
                        <polygon id="Shape" points="5.24238625 5.70210771 42.9799596 5.70210771 37.6684125 0.315405585 0.0138321537 0.315405585 0.0103741153 38.8586769 5.24238625 44.3162566"></polygon>
                    </g>
                    <g id="right_frame" transform="translate(11.000000, 6.000000)" fill="#13B1F6">
                        <polygon id="Shape" points="0.0518705763 38.4684551 5.29771486 43.8304039 42.9557533 43.8304039 42.9592113 5.46424915 37.7894439 0.0317483811 37.7237412 38.4684551"></polygon>
                    </g>
                    <polygon id="left_green_tail" fill="#018382" points="5.0016518 6 10 6 10 -4.4408921e-16 0 -4.4408921e-16"></polygon>
                    <polygon id="right_blue_tail" fill="#0651D7" points="53 44 48 44 48 50 58 50"></polygon>
                    <polygon id="right_pink" fill="#FF6161" points="40.25 20.7923246 36.5482981 24.6125597 32.7706992 28.4327947 29 32.197209 32.7431003 36 36.4965501 32.2041866 40.25 28.4083731 44 24.6125597 44 17"></polygon>
                    <polygon id="left_pink" fill="#FF8585" points="30.2020964 32.1937202 26.4006988 28.3979067 22.5853255 24.5881381 18.8013976 20.7923246 15 17 15 24.5881381 18.8013976 28.3979067 22.5993012 32.1902314 26.3832291 36 34 36"></polygon>
                    <polygon id="left_yellow" fill="#FFB308" points="25.3489933 14 18 14 21.6744966 18.0331492 25.3590604 22 29 18.0073665"></polygon>
                    <polygon id="right_yellow" fill="#FFC933" points="33.4965501 14 29.7431003 17.6847291 26 21.3559113 29.6948022 25 33.4689512 21.3423645 37.25 17.6847291 41 14"></polygon>
                    <polygon id="right_orange" fill="#FF7F40" points="40.9870789 22 45 17.9889299 45 17.9852399 41.0129211 14 37 18.0147601"></polygon>
                    <polygon id="left_orange" fill="#FF7F40" points="23 18.0405904 18.9724138 14 15 17.9889299 19.0018391 22"></polygon>
                </g>
            </g>
        </g>
    </g>
</svg>