<?xml version="1.0" encoding="UTF-8"?>
<svg width="2924px" height="392px" viewBox="0 0 2924 392" version="1.1" xmlns="http://www.w3.org/2000/svg" xmlns:xlink="http://www.w3.org/1999/xlink">
    <!-- Generator: Sketch 41.2 (35397) - http://www.bohemiancoding.com/sketch -->
    <title>Background</title>
    <desc>Created with Sketch.</desc>
    <defs></defs>
    <g id="Website" stroke="none" stroke-width="1" fill="none" fill-rule="evenodd" opacity="0.6">
        <g id="Footer">
            <g id="Background">
                <path d="M22.8480745,39.6626109 C102.191649,75.6739602 395.848885,192.345016 692.82511,99.367973 C1040.51227,-9.48560433 1188.09722,56.6820578 1382.47723,92.9229644 C1576.85725,129.163871 1697.32814,179.848791 2245.0592,64.6401726 C2598.03596,-9.60422801 2589.0413,0.457545852 2631.04197,0.457545852 C2715.94028,0.457545852 2793.4222,40.8447707 2798.04463,42.3337442 C2805.52618,44.7436959 2911.82007,104.695125 2923.04301,147.024331 L2923.04618,147.036289 C2924.42367,152.239623 2924.36408,157.176525 2922.50718,161.707346 L2914.04648,392 L0,380.484045 L2.0000319,292.805755 L2.0000319,29.7160776 C2.0000319,29.7160776 4.02934037,30.7717542 7.93396768,32.6712329 L8.00012761,29.7708847 L22.8480745,39.6626109 Z" id="Combined-Shape" fill-opacity="0.5" fill="#F5FAFC" style="mix-blend-mode: multiply;" transform="translate(1462.000000, 196.000000) scale(-1, 1) translate(-1462.000000, -196.000000) "></path>
                <path d="M22.8480745,39.6626109 C102.191649,75.6739602 395.848885,192.345016 692.82511,99.367973 C1040.51227,-9.48560433 1188.09722,56.6820578 1382.47723,92.9229644 C1576.85725,129.163871 1697.32814,179.848791 2245.0592,64.6401726 C2598.03596,-9.60422801 2589.0413,0.457545852 2631.04197,0.457545852 C2715.94028,0.457545852 2793.4222,40.8447707 2798.04463,42.3337442 C2805.52618,44.7436959 2911.82007,104.695125 2923.04301,147.024331 L2923.04618,147.036289 C2924.42367,152.239623 2924.36408,157.176525 2922.50718,161.707346 L2914.04648,392 L0,380.484045 L2.0000319,292.805755 L2.0000319,29.7160776 C2.0000319,29.7160776 4.02934037,30.7717542 7.93396768,32.6712329 L8.00012761,29.7708847 L22.8480745,39.6626109 Z" id="Combined-Shape" fill="#F7FAFC" style="mix-blend-mode: multiply;"></path>
            </g>
        </g>
    </g>
</svg>