<?xml version="1.0" encoding="UTF-8"?>
<svg width="119px" height="97px" viewBox="0 0 119 97" version="1.1" xmlns="http://www.w3.org/2000/svg" xmlns:xlink="http://www.w3.org/1999/xlink">
    <!-- Generator: Sketch 41.2 (35397) - http://www.bohemiancoding.com/sketch -->
    <title>medium</title>
    <desc>Created with Sketch.</desc>
    <defs></defs>
    <g id="Website" stroke="none" stroke-width="1" fill="none" fill-rule="evenodd">
        <g id="Blog" transform="translate(-661.000000, -382.000000)">
            <g id="Icon" transform="translate(541.000000, 382.000000)">
                <g id="medium" transform="translate(120.000000, 0.000000)">
                    <g id="Group">
                        <path d="M82.6191164,0.781690486 C80.8074451,-0.0847152251 79.3258667,0.789391871 79.3258667,2.73014067 L79.3258667,79.9134122 L112.396543,95.7513087 C116.035239,97.5226271 118.986881,96.2904058 118.986881,93.0558242 L118.986881,18.7374676 C118.986881,18.4294122 118.794967,18.1598638 118.510933,18.0058361 L82.6229546,0.831749486 L82.6229546,0.793242566 L82.6191164,0.781690486 L82.6191164,0.781690486 L82.6191164,0.781690486 Z" id="Shape" fill="#32FC8D"></path>
                        <path d="M39.6610142,60.921799 L77.3913702,2.21029724 C78.4584139,0.554499656 80.8074451,-0.100117994 82.61144,0.747034261 L118.553155,17.9596278 C118.783452,18.0751485 118.867894,18.344697 118.733554,18.5372316 L79.3220285,79.9211135 L39.6610142,60.9295003 L39.6610142,60.921799 L39.6610142,60.921799 L39.6610142,60.921799 Z" id="Shape" fill="#0BE370"></path>
                        <path d="M5.48874968,1.82907873 C2.47185649,0.385069206 1.447034,1.45941229 3.21648407,4.21650781 L39.6610142,60.921799 L79.3220285,79.9134122 L39.7492948,18.3292942 C39.6917205,18.2407283 39.6111165,18.1675651 39.5189976,18.1213568 L5.48874968,1.83292942 L5.48874968,1.82907873 L5.48874968,1.82907873 L5.48874968,1.82907873 Z" id="Shape" fill="#14C767"></path>
                        <path d="M39.6610142,93.0250188 C39.6610142,96.2595999 37.192996,97.7228631 34.1722645,96.2750029 L3.2932498,81.4883453 C1.48157858,80.6257905 0,78.3307779 0,76.3861784 L0,3.90845244 C0,1.32078738 1.97671753,0.15017699 4.39483802,1.3092353 L39.4499084,18.0982527 C39.5804102,18.1560131 39.6610142,18.2830859 39.6610142,18.4217108 L39.6610142,93.0096159 L39.6610142,93.0250188 L39.6610142,93.0250188 L39.6610142,93.0250188 Z" id="Shape" fill="#00AB6C"></path>
                    </g>
                </g>
            </g>
        </g>
    </g>
</svg>