<?xml version="1.0" encoding="UTF-8"?>
<svg width="380px" height="136px" viewBox="0 0 380 136" version="1.1" xmlns="http://www.w3.org/2000/svg" xmlns:xlink="http://www.w3.org/1999/xlink">
    <!-- Generator: Sketch 41.2 (35397) - http://www.bohemiancoding.com/sketch -->
    <title>98%</title>
    <desc>Created with Sketch.</desc>
    <defs></defs>
    <g id="Website" stroke="none" stroke-width="1" fill="none" fill-rule="evenodd">
        <g id="Home" transform="translate(-829.000000, -1443.000000)" fill="#717171">
            <g id="Section-02" transform="translate(-39.000000, 1379.000000)">
                <g id="Graphic">
                    <path d="M913.6,126.2 C906.4,126.2 899.6,123.2 899.6,111 C899.6,97.6 906,93.4 913.2,93.4 C919.4,93.4 927,97.6 929.8,115.4 C925.8,123 919.6,126.2 913.6,126.2 Z M909.6,199.4 C936.8,199.4 962,177.4 962,131.4 C962,85.4 936.8,67.8 912.4,67.8 C888.4,67.8 868.4,83.8 868.4,111 C868.4,138.2 885.2,150.2 906.8,150.2 C913.6,150.2 924.4,145.8 930.6,137.6 C929.4,163.2 919.8,171.8 907.2,171.8 C900,171.8 892,167.4 888,163 L870,183.4 C878.4,191.8 891.6,199.4 909.6,199.4 Z M1023.6,199.4 C1051.4,199.4 1070,184.2 1070,163.8 C1070,147 1060.6,137 1048.2,130.4 L1048.2,129.6 C1057.2,123.8 1064.4,114.6 1064.4,103 C1064.4,81.4 1048.4,67.8 1024.8,67.8 C1000,67.8 982.4,81.4 982.4,103.8 C982.4,117 989.2,126.2 999.2,133.8 L999.2,134.6 C987.2,141 978.4,149.8 978.4,164.6 C978.4,185.4 997.8,199.4 1023.6,199.4 Z M1031.2,121.4 C1019.2,116.6 1012.4,112.2 1012.4,103.8 C1012.4,95 1017.8,91.4 1024,91.4 C1032,91.4 1036.8,96.6 1036.8,105.4 C1036.8,111 1034.8,116.2 1031.2,121.4 Z M1024.4,175.8 C1015.6,175.8 1007.8,170.6 1007.8,160.6 C1007.8,154.2 1010.6,147.8 1014.4,143.4 C1029.4,149.8 1038.2,153.4 1038.2,162.6 C1038.2,172.2 1032,175.8 1024.4,175.8 Z M1116,147.4 C1135.2,147.4 1149.6,131.8 1149.6,105.8 C1149.6,79.8 1135.2,64.6 1116,64.6 C1096.8,64.6 1082.4,79.8 1082.4,105.8 C1082.4,131.8 1096.8,147.4 1116,147.4 Z M1116,128.6 C1110.8,128.6 1106,123.4 1106,105.8 C1106,88.2 1110.8,83.4 1116,83.4 C1121.2,83.4 1126,88.2 1126,105.8 C1126,123.4 1121.2,128.6 1116,128.6 Z M1120.8,199.4 L1140,199.4 L1209.6,64.6 L1190.4,64.6 L1120.8,199.4 Z M1214,199.4 C1233.2,199.4 1247.6,183.8 1247.6,157.8 C1247.6,131.8 1233.2,116.6 1214,116.6 C1194.8,116.6 1180.4,131.8 1180.4,157.8 C1180.4,183.8 1194.8,199.4 1214,199.4 Z M1214,180.6 C1208.8,180.6 1204,175.4 1204,157.8 C1204,140.2 1208.8,135.4 1214,135.4 C1219.2,135.4 1224,140.2 1224,157.8 C1224,175.4 1219.2,180.6 1214,180.6 Z" id="98%"></path>
                </g>
            </g>
        </g>
    </g>
</svg>