<?xml version="1.0" encoding="UTF-8"?>
<svg width="33px" height="29px" viewBox="0 0 33 29" version="1.1" xmlns="http://www.w3.org/2000/svg" xmlns:xlink="http://www.w3.org/1999/xlink">
    <!-- Generator: Sketch 41.2 (35397) - http://www.bohemiancoding.com/sketch -->
    <title>Shape</title>
    <desc>Created with Sketch.</desc>
    <defs></defs>
    <g id="Website" stroke="none" stroke-width="1" fill="none" fill-rule="evenodd">
        <g id="Outcomes" transform="translate(-1000.000000, -1553.000000)" fill="#717171">
            <g id="Section-02" transform="translate(149.000000, 1430.000000)">
                <g id="Important-Number" transform="translate(616.000000, 90.000000)">
                    <g id="Number" transform="translate(71.000000, 17.000000)">
                        <path d="M196.752826,29.6625759 L183.337998,16.2477475 C183.008328,15.9174175 182.473398,15.9174175 182.143398,16.2477475 L179.879928,18.5112172 C179.549598,18.8412172 179.550258,19.3758171 179.879928,19.7061471 L187.991327,27.8175461 L164.8448,27.8175461 C164.37818,27.8175461 164,28.195726 164,28.662346 L164,31.8640056 C164,32.3306255 164.37818,32.7091355 164.8448,32.7091355 L187.990997,32.7091355 L179.871018,40.8287845 C179.541018,41.1587845 179.541018,41.6937144 179.871018,42.0237144 L182.134488,44.2871841 C182.464488,44.6175141 182.999418,44.6171841 183.329418,44.2871841 L196.752826,30.8637757 C196.918816,30.6981157 197.000656,30.4803158 196.999996,30.2628458 C197.000656,30.0460358 196.918816,29.8279058 196.752826,29.6625759 Z" id="Shape"></path>
                    </g>
                </g>
            </g>
        </g>
    </g>
</svg>