<?xml version="1.0" encoding="UTF-8"?>
<svg width="459px" height="256px" viewBox="0 0 459 256" version="1.1" xmlns="http://www.w3.org/2000/svg" xmlns:xlink="http://www.w3.org/1999/xlink">
    <!-- Generator: Sketch 41.2 (35397) - http://www.bohemiancoding.com/sketch -->
    <title>Icon_03_outcomes</title>
    <desc>Created with Sketch.</desc>
    <defs>
        <filter x="-50%" y="-50%" width="200%" height="200%" filterUnits="objectBoundingBox" id="filter-1">
            <feOffset dx="0" dy="5" in="SourceAlpha" result="shadowOffsetOuter1"></feOffset>
            <feGaussianBlur stdDeviation="7.5" in="shadowOffsetOuter1" result="shadowBlurOuter1"></feGaussianBlur>
            <feColorMatrix values="0 0 0 0 0   0 0 0 0 0   0 0 0 0 0  0 0 0 0.2 0" type="matrix" in="shadowBlurOuter1" result="shadowMatrixOuter1"></feColorMatrix>
            <feMerge>
                <feMergeNode in="shadowMatrixOuter1"></feMergeNode>
                <feMergeNode in="SourceGraphic"></feMergeNode>
            </feMerge>
        </filter>
        <linearGradient x1="100%" y1="0%" x2="-5.54917279%" y2="84.6525493%" id="linearGradient-2">
            <stop stop-color="#FB5579" offset="0%"></stop>
            <stop stop-color="#FE3962" offset="100%"></stop>
        </linearGradient>
        <filter x="-50%" y="-50%" width="200%" height="200%" filterUnits="objectBoundingBox" id="filter-3">
            <feOffset dx="0" dy="5" in="SourceAlpha" result="shadowOffsetOuter1"></feOffset>
            <feGaussianBlur stdDeviation="7.5" in="shadowOffsetOuter1" result="shadowBlurOuter1"></feGaussianBlur>
            <feColorMatrix values="0 0 0 0 0   0 0 0 0 0   0 0 0 0 0  0 0 0 0.2 0" type="matrix" in="shadowBlurOuter1" result="shadowMatrixOuter1"></feColorMatrix>
            <feMerge>
                <feMergeNode in="shadowMatrixOuter1"></feMergeNode>
                <feMergeNode in="SourceGraphic"></feMergeNode>
            </feMerge>
        </filter>
        <filter x="-50%" y="-50%" width="200%" height="200%" filterUnits="objectBoundingBox" id="filter-4">
            <feOffset dx="0" dy="5" in="SourceAlpha" result="shadowOffsetOuter1"></feOffset>
            <feGaussianBlur stdDeviation="7.5" in="shadowOffsetOuter1" result="shadowBlurOuter1"></feGaussianBlur>
            <feColorMatrix values="0 0 0 0 0   0 0 0 0 0   0 0 0 0 0  0 0 0 0.2 0" type="matrix" in="shadowBlurOuter1" result="shadowMatrixOuter1"></feColorMatrix>
            <feMerge>
                <feMergeNode in="shadowMatrixOuter1"></feMergeNode>
                <feMergeNode in="SourceGraphic"></feMergeNode>
            </feMerge>
        </filter>
    </defs>
    <g id="Website" stroke="none" stroke-width="1" fill="none" fill-rule="evenodd">
        <g id="Outcomes" transform="translate(-183.000000, -2249.000000)">
            <g id="Section-03" transform="translate(150.000000, 2013.000000)">
                <g id="Icon_03_outcomes" transform="translate(33.000000, 236.000000)">
                    <path d="M107.115314,70.8911403 L41.8194145,70.8911403 C31.0871091,70.8911403 22.3868565,62.1915143 22.3868565,51.45471 C22.3868565,40.720266 31.085618,32.0182798 41.8194145,32.0182798 L164.604581,32.0182798 C188.615578,13.5326799 219.577428,2.40086222 253.372769,2.40086222 C254.93,2.40086222 256.481215,2.42449738 258.026011,2.47139808 C258.575757,2.42469278 259.132043,2.40086222 259.693916,2.40086222 L349.936178,2.40086222 C360.669215,2.40086222 369.370062,11.1004883 369.370062,21.8372925 C369.370062,25.570242 368.318312,29.0574001 366.494772,32.0182798 L423.73576,32.0182798 C434.468066,32.0182798 443.168318,40.7179058 443.168318,51.45471 C443.168318,62.1891541 434.469557,70.8911403 423.73576,70.8911403 L376.115303,70.8911403 C385.984645,88.3476309 391.560848,108.176502 391.560848,129.200431 C391.560848,138.409644 390.490917,147.389556 388.458893,156.041216 L438.68846,156.041216 C449.427497,156.041216 458.133207,164.740842 458.133207,175.477646 C458.133207,186.21209 449.429377,194.914076 438.68846,194.914076 L371.579085,194.914076 C347.347662,231.534883 303.473891,256 253.372769,256 C214.260918,256 178.944184,241.090292 153.80481,217.127139 L58.4110686,217.127139 C48.8676414,217.127139 41.131165,209.394139 41.131165,199.850313 C41.131165,190.308585 48.8728232,182.573486 58.4110686,182.573486 L91.3061518,182.573486 L148.516173,182.573486 C158.060586,182.573486 165.790508,174.838387 165.790508,165.296659 C165.790508,157.34351 160.41974,150.647867 153.108485,148.636861 L104.359326,148.636861 C93.6257832,148.636861 84.9245272,139.937235 84.9245272,129.200431 C84.9245272,118.465987 93.6260634,109.764001 104.359326,109.764001 L107.115314,109.764001 L107.115314,70.8911403 Z M403.112829,117.363709 C403.112829,106.629265 411.817829,97.9272787 422.547645,97.9272787 L424.024898,97.9272787 C434.758451,97.9272787 443.459714,106.626905 443.459714,117.363709 C443.459714,128.098153 434.754714,136.800139 424.024898,136.800139 L422.547645,136.800139 C411.814093,136.800139 403.112829,128.100513 403.112829,117.363709 Z M0,129.040241 C0,119.662347 7.60078898,112.060063 16.9791639,112.060063 L23.3677204,112.060063 C32.7450537,112.060063 40.3468843,119.660285 40.3468843,129.040241 C40.3468843,138.418134 32.7460953,146.020419 23.3677204,146.020419 L16.9791639,146.020419 C7.60183063,146.020419 0,138.420196 0,129.040241 Z M119.219379,11.6563052 C119.219379,5.52233719 124.186916,0.549773627 130.324419,0.549773627 L148.461223,0.549773627 C154.594368,0.549773627 159.566263,5.5209885 159.566263,11.6563052 C159.566263,17.7902732 154.598726,22.7628368 148.461223,22.7628368 L130.324419,22.7628368 C124.191274,22.7628368 119.219379,17.7916219 119.219379,11.6563052 Z" id="Background" fill="#F6E3C7" opacity="0.1"></path>
                    <g id="Icon" transform="translate(75.000000, 46.000000)">
                        <g id="Group-9-Copy" filter="url(#filter-1)" transform="translate(115.000000, 0.000000)">
                            <rect id="Rectangle-11" fill="#FFFFFF" x="0" y="5.7037037" width="129" height="148.296296" rx="5"></rect>
                            <rect id="Rectangle-11" fill="url(#linearGradient-2)" x="0" y="5.7037037" width="129" height="36.1234568" rx="5"></rect>
                            <path d="M48.3330078,107.938272 L53.0058594,107.938272 L53.0058594,69.1858302 L48.2792969,69.1858302 L46.7216797,70.3003322 C45.683263,71.0433372 44.4837308,71.9071794 43.1230469,72.8918849 C41.762363,73.8765903 40.5628307,74.7404326 39.5244141,75.4834376 L37.9667969,76.5979396 L37.9667969,81.7004786 L39.5109863,80.5859767 C40.5404511,79.8429717 41.7355075,78.9836053 43.0961914,78.0078517 C44.4568753,77.0320981 45.6519317,76.1727317 46.6813965,75.4297267 L48.2255859,74.3152247 L48.3330078,74.3152247 L48.3330078,107.938272 Z M76.6923828,108.582803 C81.2041241,108.582803 84.7042519,106.770077 87.1928711,103.14457 C89.6814903,99.519064 90.9257812,94.6448452 90.9257812,88.5217677 C90.9257812,82.4344977 89.6770144,77.5826582 87.1794434,73.9661036 C84.6818723,70.3495491 81.1862204,68.5412989 76.6923828,68.5412989 C72.1985452,68.5412989 68.6939416,70.3585008 66.1784668,73.9929591 C63.662992,77.6274174 62.4052734,82.4792569 62.4052734,88.5486232 C62.4052734,94.6717007 63.6540402,99.5414436 66.1516113,103.157998 C68.6491824,106.774553 72.1627378,108.582803 76.6923828,108.582803 Z M76.6923828,104.366494 C73.6666515,104.366494 71.3392009,102.934217 69.7099609,100.069619 C68.080721,97.2050216 67.2661133,93.3557762 67.2661133,88.5217677 C67.2661133,83.7951816 68.0896728,79.9906949 69.7368164,77.1081935 C71.3839601,74.2256921 73.702459,72.784463 76.6923828,72.784463 C79.6823066,72.784463 81.9918538,74.2212162 83.6210938,77.0947657 C85.2503337,79.9683153 86.0649414,83.7862296 86.0649414,88.5486232 C86.0649414,93.3826317 85.2592854,97.2274012 83.6479492,100.083047 C82.036613,102.938693 79.7181141,104.366494 76.6923828,104.366494 Z" id="10" fill="#555555"></path>
                            <path d="M50.0572725,132.123457 L50.0572725,121.098066 L50.1451631,121.098066 L57.8600069,132.123457 L59.5689913,132.123457 L59.5689913,118.03166 L57.83071,118.03166 L57.83071,129.096113 L57.7428194,129.096113 L50.0279756,118.03166 L48.3189913,118.03166 L48.3189913,132.123457 L50.0572725,132.123457 Z M66.7857881,132.221113 C68.2636601,132.221113 69.4420337,131.734464 70.3209444,130.761152 C71.199855,129.78784 71.6393038,128.487397 71.6393038,126.859785 C71.6393038,125.225662 71.199855,123.923592 70.3209444,122.953535 C69.4420337,121.983478 68.2636601,121.498457 66.7857881,121.498457 C65.3079162,121.498457 64.1295425,121.983478 63.2506319,122.953535 C62.3717212,123.923592 61.9322725,125.225662 61.9322725,126.859785 C61.9322725,128.487397 62.3717212,129.78784 63.2506319,130.761152 C64.1295425,131.734464 65.3079162,132.221113 66.7857881,132.221113 Z M66.7857881,130.707441 C65.8092208,130.707441 65.0442545,130.367275 64.4908663,129.686933 C63.9374781,129.006591 63.6607881,128.064218 63.6607881,126.859785 C63.6607881,125.655352 63.9358505,124.712978 64.4859835,124.032636 C65.0361164,123.352295 65.8027103,123.012129 66.7857881,123.012129 C67.768866,123.012129 68.5354599,123.350667 69.0855928,124.027754 C69.6357258,124.70484 69.9107881,125.648841 69.9107881,126.859785 C69.9107881,128.064218 69.6357258,129.006591 69.0855928,129.686933 C68.5354599,130.367275 67.768866,130.707441 66.7857881,130.707441 Z M82.3717256,121.596113 L80.6041475,121.596113 L77.6451631,130.287519 L77.6061006,130.287519 L74.6568819,121.596113 L72.8795381,121.596113 L76.7662569,132.123457 L78.4850069,132.123457 L78.8756319,131.059004 C79.1360499,130.349365 79.4599399,129.472095 79.8473116,128.427168 L81.009421,125.292402 C81.3967927,124.247475 81.7206827,123.370205 81.9811006,122.660566 L82.3717256,121.596113 Z" id="Nov" fill="#B3B3B3"></path>
                            <ellipse id="Oval-3" fill="#FFFFFF" cx="105.761029" cy="24.2407407" rx="5.21691176" ry="5.22839506"></ellipse>
                            <ellipse id="Oval-3-Copy" fill="#FFFFFF" cx="18.4963235" cy="24.2407407" rx="5.21691176" ry="5.22839506"></ellipse>
                            <rect id="Rectangle-12" fill="#C4C4C4" x="16.125" y="0" width="3.79411765" height="24.7160494" rx="1.89705882"></rect>
                            <rect id="Rectangle-12" fill="#C4C4C4" x="103.389706" y="0" width="3.79411765" height="24.7160494" rx="1.89705882"></rect>
                        </g>
                        <g id="Group-9-Copy-2" filter="url(#filter-3)" transform="translate(263.000000, 27.000000)">
                            <rect id="Rectangle-11" fill="#FFFFFF" x="0" y="3.8" width="96" height="110.2" rx="5"></rect>
                            <rect id="Rectangle-11" fill="url(#linearGradient-2)" x="0" y="3.8" width="96" height="26.6" rx="5"></rect>
                            <path d="M36.9062887,82.35 L40.7295309,82.35 L40.7295309,50.643457 L36.8623434,50.643457 L35.5879293,51.5553223 C34.7383157,52.1632355 33.7568802,52.8700155 32.6435934,53.6756836 C31.5303065,54.4813517 30.548871,55.1881317 29.6992574,55.7960449 L28.4248434,56.7079102 L28.4248434,60.8827148 L29.6882711,59.9708496 C30.5305605,59.3629364 31.5083339,58.6598184 32.6216207,57.8614746 C33.7349075,57.0631308 34.7126809,56.3600128 35.5549703,55.7520996 L36.8183981,54.8402344 L36.9062887,54.8402344 L36.9062887,82.35 Z M57.2090231,82.35 L61.0322652,82.35 L61.0322652,50.643457 L57.1650777,50.643457 L55.8906637,51.5553223 C55.0410501,52.1632355 54.0596146,52.8700155 52.9463277,53.6756836 C51.8330409,54.4813517 50.8516054,55.1881317 50.0019918,55.7960449 L48.7275777,56.7079102 L48.7275777,60.8827148 L49.9910055,59.9708496 C50.8332948,59.3629364 51.8110683,58.6598184 52.9243551,57.8614746 C54.0376419,57.0631308 55.0154153,56.3600128 55.8577047,55.7520996 L57.1211324,54.8402344 L57.2090231,54.8402344 L57.2090231,82.35 Z" id="11" fill="#555555"></path>
                            <path d="M33.0830078,102.6 L33.0830078,91.5746094 L33.1708984,91.5746094 L40.8857422,102.6 L42.5947266,102.6 L42.5947266,88.5082031 L40.8564453,88.5082031 L40.8564453,99.5726562 L40.7685547,99.5726562 L33.0537109,88.5082031 L31.3447266,88.5082031 L31.3447266,102.6 L33.0830078,102.6 Z M49.8115234,102.697656 C51.2893954,102.697656 52.467769,102.211007 53.3466797,101.237695 C54.2255903,100.264383 54.6650391,98.9639404 54.6650391,97.3363281 C54.6650391,95.7022054 54.2255903,94.4001351 53.3466797,93.4300781 C52.467769,92.4600212 51.2893954,91.975 49.8115234,91.975 C48.3336515,91.975 47.1552778,92.4600212 46.2763672,93.4300781 C45.3974565,94.4001351 44.9580078,95.7022054 44.9580078,97.3363281 C44.9580078,98.9639404 45.3974565,100.264383 46.2763672,101.237695 C47.1552778,102.211007 48.3336515,102.697656 49.8115234,102.697656 Z M49.8115234,101.183984 C48.8349561,101.183984 48.0699897,100.843819 47.5166016,100.163477 C46.9632134,99.4831346 46.6865234,98.5407612 46.6865234,97.3363281 C46.6865234,96.131895 46.9615858,95.1895216 47.5117188,94.5091797 C48.0618517,93.8288377 48.8284456,93.4886719 49.8115234,93.4886719 C50.7946013,93.4886719 51.5611952,93.8272102 52.1113281,94.5042969 C52.6614611,95.1813836 52.9365234,96.1253846 52.9365234,97.3363281 C52.9365234,98.5407612 52.6614611,99.4831346 52.1113281,100.163477 C51.5611952,100.843819 50.7946013,101.183984 49.8115234,101.183984 Z M65.3974609,92.0726562 L63.6298828,92.0726562 L60.6708984,100.764062 L60.6318359,100.764062 L57.6826172,92.0726562 L55.9052734,92.0726562 L59.7919922,102.6 L61.5107422,102.6 L61.9013672,101.535547 C62.1617852,100.825908 62.4856751,99.948638 62.8730469,98.9037109 L64.0351562,95.7689453 C64.422528,94.7240182 64.746418,93.8467483 65.0068359,93.1371094 L65.3974609,92.0726562 Z" id="Nov" fill="#B3B3B3"></path>
                            <ellipse id="Oval-3" fill="#FFFFFF" cx="78.8910891" cy="18.05" rx="3.8019802" ry="3.8"></ellipse>
                            <ellipse id="Oval-3-Copy" fill="#FFFFFF" cx="13.3069307" cy="18.05" rx="3.8019802" ry="3.8"></ellipse>
                            <rect id="Rectangle-12" fill="#C4C4C4" x="12.3564356" y="0" width="2.85148515" height="18.05" rx="1.42574257"></rect>
                            <rect id="Rectangle-12" fill="#C4C4C4" x="76.990099" y="0" width="2.85148515" height="18.05" rx="1.42574257"></rect>
                        </g>
                        <g id="Group-9-Copy-3" filter="url(#filter-4)" transform="translate(0.000000, 27.000000)">
                            <rect id="Rectangle-11" fill="#FFFFFF" x="0" y="3.8" width="96" height="110.2" rx="5"></rect>
                            <rect id="Rectangle-11" fill="url(#linearGradient-2)" x="0" y="3.8" width="96" height="26.6" rx="5"></rect>
                            <path d="M35.1296943,81.8273438 C38.821119,81.8273438 41.6848599,80.3442043 43.7210029,77.3778809 C45.7571459,74.4115574 46.7752021,70.4235602 46.7752021,65.4137695 C46.7752021,60.4332759 45.7534838,56.463589 43.7100165,53.5045898 C41.6665493,50.5455907 38.8064705,49.0661133 35.1296943,49.0661133 C31.4529181,49.0661133 28.5855151,50.5529148 26.5273993,53.5265625 C24.4692836,56.5002102 23.4402411,60.469897 23.4402411,65.4357422 C23.4402411,70.4455329 24.4619594,74.429868 26.5054267,77.3888672 C28.5488939,80.3478664 31.4236211,81.8273438 35.1296943,81.8273438 Z M35.1296943,78.3776367 C32.654096,78.3776367 30.7498181,77.2057734 29.4168036,74.8620117 C28.0837892,72.51825 27.4172919,69.3688674 27.4172919,65.4137695 C27.4172919,61.5465627 28.0911133,58.4338009 29.4387763,56.0753906 C30.7864393,53.7169804 32.683393,52.537793 35.1296943,52.537793 C37.5759956,52.537793 39.4656251,53.7133183 40.7986396,56.0644043 C42.1316541,58.4154903 42.7981513,61.5392383 42.7981513,65.4357422 C42.7981513,69.3908401 42.1389782,72.5365606 40.8206122,74.872998 C39.5022463,77.2094355 37.6052926,78.3776367 35.1296943,78.3776367 Z M61.7605536,81.8273438 C65.642409,81.8273438 68.6599569,80.3405422 70.813288,77.3668945 C72.9666191,74.3932469 74.0432685,70.2404563 74.0432685,64.9083984 C74.0432685,61.4806469 73.5232542,58.565637 72.4832099,56.1632813 C70.4617154,51.4171638 66.968098,49.0441406 62.0022529,49.0441406 C58.7502835,49.0441406 56.0659841,50.0658589 53.9492743,52.1093262 C51.8325645,54.1527934 50.7742255,56.7418789 50.7742255,59.8766602 C50.7742255,62.8796049 51.7739714,65.3771385 53.7734931,67.3693359 C55.7730148,69.3615334 58.2815346,70.3576172 61.2991279,70.3576172 C63.3206223,70.3576172 65.1333484,69.8852098 66.7373603,68.9403809 C68.3413722,67.9955519 69.4802768,66.739461 70.1541083,65.1720703 L70.2200263,65.1720703 C70.1614323,69.3761929 69.4033832,72.6281135 67.9458564,74.9279297 C66.4883296,77.2277459 64.4412309,78.3776367 61.804499,78.3776367 C60.2371083,78.3776367 58.860169,77.9418501 57.6736396,77.0702637 C56.4871102,76.1986773 55.6814542,75.0451244 55.2566474,73.6095703 L51.2356513,73.6095703 C51.7190522,76.0851686 52.920212,78.0736741 54.8391669,79.5751465 C56.7581218,81.0766188 59.0652277,81.8273438 61.7605536,81.8273438 Z M61.9802802,66.8859375 C59.9001917,66.8859375 58.1790175,66.2121161 56.816706,64.8644531 C55.4543945,63.5167901 54.773249,61.8102642 54.773249,59.7448242 C54.773249,57.7526268 55.4763669,56.0644112 56.882624,54.680127 C58.288881,53.2958427 60.0100552,52.6037109 62.0461982,52.6037109 C64.0969897,52.6037109 65.8181639,53.3031668 67.2097724,54.7020996 C68.6013809,56.1010324 69.2971747,57.8185445 69.2971747,59.8546875 C69.2971747,61.876182 68.6013809,63.5534113 67.2097724,64.8864258 C65.8181639,66.2194403 64.0750172,66.8859375 61.9802802,66.8859375 Z" id="09" fill="#555555"></path>
                            <path d="M33.0830078,102.6 L33.0830078,91.5746094 L33.1708984,91.5746094 L40.8857422,102.6 L42.5947266,102.6 L42.5947266,88.5082031 L40.8564453,88.5082031 L40.8564453,99.5726562 L40.7685547,99.5726562 L33.0537109,88.5082031 L31.3447266,88.5082031 L31.3447266,102.6 L33.0830078,102.6 Z M49.8115234,102.697656 C51.2893954,102.697656 52.467769,102.211007 53.3466797,101.237695 C54.2255903,100.264383 54.6650391,98.9639404 54.6650391,97.3363281 C54.6650391,95.7022054 54.2255903,94.4001351 53.3466797,93.4300781 C52.467769,92.4600212 51.2893954,91.975 49.8115234,91.975 C48.3336515,91.975 47.1552778,92.4600212 46.2763672,93.4300781 C45.3974565,94.4001351 44.9580078,95.7022054 44.9580078,97.3363281 C44.9580078,98.9639404 45.3974565,100.264383 46.2763672,101.237695 C47.1552778,102.211007 48.3336515,102.697656 49.8115234,102.697656 Z M49.8115234,101.183984 C48.8349561,101.183984 48.0699897,100.843819 47.5166016,100.163477 C46.9632134,99.4831346 46.6865234,98.5407612 46.6865234,97.3363281 C46.6865234,96.131895 46.9615858,95.1895216 47.5117188,94.5091797 C48.0618517,93.8288377 48.8284456,93.4886719 49.8115234,93.4886719 C50.7946013,93.4886719 51.5611952,93.8272102 52.1113281,94.5042969 C52.6614611,95.1813836 52.9365234,96.1253846 52.9365234,97.3363281 C52.9365234,98.5407612 52.6614611,99.4831346 52.1113281,100.163477 C51.5611952,100.843819 50.7946013,101.183984 49.8115234,101.183984 Z M65.3974609,92.0726562 L63.6298828,92.0726562 L60.6708984,100.764062 L60.6318359,100.764062 L57.6826172,92.0726562 L55.9052734,92.0726562 L59.7919922,102.6 L61.5107422,102.6 L61.9013672,101.535547 C62.1617852,100.825908 62.4856751,99.948638 62.8730469,98.9037109 L64.0351562,95.7689453 C64.422528,94.7240182 64.746418,93.8467483 65.0068359,93.1371094 L65.3974609,92.0726562 Z" id="Nov" fill="#B3B3B3"></path>
                            <ellipse id="Oval-3" fill="#FFFFFF" cx="78.8910891" cy="18.05" rx="3.8019802" ry="3.8"></ellipse>
                            <ellipse id="Oval-3-Copy" fill="#FFFFFF" cx="13.3069307" cy="18.05" rx="3.8019802" ry="3.8"></ellipse>
                            <rect id="Rectangle-12" fill="#C4C4C4" x="12.3564356" y="0" width="2.85148515" height="18.05" rx="1.42574257"></rect>
                            <rect id="Rectangle-12" fill="#C4C4C4" x="76.990099" y="0" width="2.85148515" height="18.05" rx="1.42574257"></rect>
                        </g>
                    </g>
                </g>
            </g>
        </g>
    </g>
</svg>