<?xml version="1.0" encoding="UTF-8"?>
<svg width="58px" height="92px" viewBox="0 0 58 92" version="1.1" xmlns="http://www.w3.org/2000/svg" xmlns:xlink="http://www.w3.org/1999/xlink">
    <!-- Generator: Sketch 41.2 (35397) - http://www.bohemiancoding.com/sketch -->
    <title>Page 1</title>
    <desc>Created with Sketch.</desc>
    <defs>
        <polygon id="path-1" points="28.9285194 81.2004618 57.8569333 81.2004618 57.8569333 0.324104847 0.000105454545 0.324104847 0.000105454545 81.2004618"></polygon>
        <linearGradient x1="50%" y1="2.6167889%" x2="50%" y2="98.305963%" id="linearGradient-3">
            <stop stop-color="#F19C37" offset="0%"></stop>
            <stop stop-color="#97630E" offset="100%"></stop>
        </linearGradient>
    </defs>
    <g id="Website" stroke="none" stroke-width="1" fill="none" fill-rule="evenodd">
        <g id="Outcomes" transform="translate(-239.000000, -5042.000000)">
            <g id="Section-07" transform="translate(-74.000000, 4740.000000)">
                <g id="Card-01" transform="translate(208.000000, 270.000000)">
                    <g id="Icon" transform="translate(105.000000, 32.000000)">
                        <g id="Page-1">
                            <g id="Group-3" transform="translate(0.000000, 9.907502)">
                                <mask id="mask-2" fill="white">
                                    <use xlink:href="#path-1"></use>
                                </mask>
                                <g id="Clip-2"></g>
                                <path d="M53.6044085,81.2004618 L4.25238424,81.2004618 C1.90391152,81.2004618 0.000105454545,79.3129866 0.000105454545,76.9843107 L0.000105454545,4.54025586 C0.000105454545,2.21192846 1.90391152,0.324104847 4.25238424,0.324104847 L53.6044085,0.324104847 C55.9528812,0.324104847 57.8570388,2.21192846 57.8570388,4.54025586 L57.8570388,76.9843107 C57.8570388,79.3129866 55.9528812,81.2004618 53.6044085,81.2004618" id="Fill-1" fill="url(#linearGradient-3)" mask="url(#mask-2)"></path>
                            </g>
                            <polygon id="Fill-4" fill="#FFFFFF" points="3.58475152 88.5078063 54.5699152 88.5078063 54.5699152 14.0048144 3.58475152 14.0048144"></polygon>
                            <path d="M41.0211855,17.969244 L17.1336218,17.969244 C15.1180339,17.969244 13.4841915,16.3490683 13.4841915,14.3507702 L13.4841915,10.3928576 C13.4841915,8.394211 15.1180339,6.77438376 17.1336218,6.77438376 L41.0211855,6.77438376 C43.0367733,6.77438376 44.6709673,8.394211 44.6709673,10.3928576 L44.6709673,14.3507702 C44.6709673,16.3490683 43.0367733,17.969244 41.0211855,17.969244" id="Fill-8" fill="#3A495D"></path>
                            <path d="M34.148537,5.02791168 C34.148537,2.25141349 31.8784521,0.00010454995 29.0772279,0.00010454995 C26.2763552,0.00010454995 24.0062703,2.25141349 24.0062703,5.02791168 C24.0062703,7.80440987 26.2763552,10.0553703 29.0772279,10.0553703 C31.8784521,10.0553703 34.148537,7.80440987 34.148537,5.02791168" id="Fill-9" fill="#3A495D"></path>
                            <path d="M31.6175576,5.02791168 C31.6175576,3.63704884 30.4807576,2.50965187 29.0775091,2.50965187 C27.6746121,2.50965187 26.5374606,3.63704884 26.5374606,5.02791168 C26.5374606,6.41842603 27.6746121,7.5461715 29.0775091,7.5461715 C30.4807576,7.5461715 31.6175576,6.41842603 31.6175576,5.02791168" id="Fill-10" fill="#56AFC0"></path>
                            <polygon id="Fill-11" fill="#2D3F51" points="13.4841212 17.9693485 44.670897 17.9693485 44.670897 13.7887445 13.4841212 13.7887445"></polygon>
                            <g id="Group-4" transform="translate(10.545455, 26.485988)">
                                <polygon id="Stroke-13" stroke="#F0F0F0" stroke-width="3" points="0.694242424 7.34567954 7.17196364 7.34567954 7.17196364 0.923524565 0.694242424 0.923524565"></polygon>
                                <polygon id="Fill-16" fill="#F1F1F1" points="11.4442788 2.91136763 36.6022182 2.91136763 36.6022182 0.29831586 11.4442788 0.29831586"></polygon>
                                <polygon id="Fill-17" fill="#F1F1F1" points="11.4442788 7.79036533 36.6022182 7.79036533 36.6022182 5.17731356 11.4442788 5.17731356"></polygon>
                                <polygon id="Fill-17" fill="#F1F1F1" points="0 14.760362 36.6022182 14.760362 36.6022182 12.1473103 0 12.1473103"></polygon>
                                <polygon id="Fill-17" fill="#F1F1F1" points="0 21.7303588 36.6022182 21.7303588 36.6022182 19.117307 0 19.117307"></polygon>
                            </g>
                            <g id="Group-4" transform="translate(10.545455, 54.365974)">
                                <polygon id="Stroke-13" stroke="#F0F0F0" stroke-width="3" points="0.694242424 7.34567954 7.17196364 7.34567954 7.17196364 0.923524565 0.694242424 0.923524565"></polygon>
                                <polygon id="Fill-16" fill="#F1F1F1" points="11.4442788 2.91136763 36.6022182 2.91136763 36.6022182 0.29831586 11.4442788 0.29831586"></polygon>
                                <polygon id="Fill-17" fill="#F1F1F1" points="11.4442788 7.79036533 36.6022182 7.79036533 36.6022182 5.17731356 11.4442788 5.17731356"></polygon>
                                <polygon id="Fill-17" fill="#F1F1F1" points="0 14.760362 36.6022182 14.760362 36.6022182 12.1473103 0 12.1473103"></polygon>
                                <polygon id="Fill-17" fill="#F1F1F1" points="0 21.7303588 36.6022182 21.7303588 36.6022182 19.117307 0 19.117307"></polygon>
                            </g>
                        </g>
                    </g>
                </g>
            </g>
        </g>
    </g>
</svg>