<?xml version="1.0" encoding="UTF-8"?>
<svg width="304px" height="226px" viewBox="0 0 304 226" version="1.1" xmlns="http://www.w3.org/2000/svg" xmlns:xlink="http://www.w3.org/1999/xlink">
    <!-- Generator: Sketch 41.2 (35397) - http://www.bohemiancoding.com/sketch -->
    <title>Icon_04_outcomes</title>
    <desc>Created with Sketch.</desc>
    <defs>
        <path d="M88.2679945,81.9237749 L88.2679945,54.3193798 C88.2679945,38.3080476 75.284454,25.3222119 59.2684451,25.3222119 L29.4917853,25.3222119 C13.4674577,25.3222119 0.492235864,38.3046862 0.492235864,54.3193798 L0.492235864,81.9237749 L0.492235864,108.845697 C0.492235864,133.065914 20.1415087,152.72459 44.3801152,152.72459 C68.6240511,152.72459 88.2679945,133.079341 88.2679945,108.845697 L88.2679945,81.9237749 Z" id="path-1"></path>
        <filter x="-50%" y="-50%" width="200%" height="200%" filterUnits="objectBoundingBox" id="filter-2">
            <feOffset dx="0" dy="10" in="SourceAlpha" result="shadowOffsetOuter1"></feOffset>
            <feGaussianBlur stdDeviation="5" in="shadowOffsetOuter1" result="shadowBlurOuter1"></feGaussianBlur>
            <feColorMatrix values="0 0 0 0 0   0 0 0 0 0   0 0 0 0 0  0 0 0 0.1 0" type="matrix" in="shadowBlurOuter1"></feColorMatrix>
        </filter>
        <rect id="path-3" x="14.3515662" y="40.3572752" width="61.5970236" height="56.1836576" rx="10"></rect>
        <mask id="mask-4" maskContentUnits="userSpaceOnUse" maskUnits="objectBoundingBox" x="0" y="0" width="61.5970236" height="56.1836576" fill="white">
            <use xlink:href="#path-3"></use>
        </mask>
        <rect id="path-5" x="15.121529" y="102.871486" width="24.6388095" height="21.3656163" rx="5"></rect>
        <filter x="-50%" y="-50%" width="200%" height="200%" filterUnits="objectBoundingBox" id="filter-6">
            <feOffset dx="0" dy="2" in="SourceAlpha" result="shadowOffsetOuter1"></feOffset>
            <feGaussianBlur stdDeviation="2" in="shadowOffsetOuter1" result="shadowBlurOuter1"></feGaussianBlur>
            <feColorMatrix values="0 0 0 0 0   0 0 0 0 0   0 0 0 0 0  0 0 0 0.1 0" type="matrix" in="shadowBlurOuter1"></feColorMatrix>
        </filter>
        <rect id="path-7" x="50.5398176" y="102.871486" width="24.6388095" height="21.3656163" rx="5"></rect>
        <filter x="-50%" y="-50%" width="200%" height="200%" filterUnits="objectBoundingBox" id="filter-8">
            <feOffset dx="0" dy="2" in="SourceAlpha" result="shadowOffsetOuter1"></feOffset>
            <feGaussianBlur stdDeviation="2" in="shadowOffsetOuter1" result="shadowBlurOuter1"></feGaussianBlur>
            <feColorMatrix values="0 0 0 0 0   0 0 0 0 0   0 0 0 0 0  0 0 0 0.1 0" type="matrix" in="shadowBlurOuter1"></feColorMatrix>
        </filter>
        <linearGradient x1="50%" y1="1.64620536%" x2="50%" y2="100%" id="linearGradient-9">
            <stop stop-color="#FCED98" offset="0%"></stop>
            <stop stop-color="#FBDE9D" offset="100%"></stop>
        </linearGradient>
        <path d="M107.074282,81.9131151 L107.074282,54.3193798 C107.074282,38.3080476 94.0903131,25.3222119 78.0737761,25.3222119 L48.3421832,25.3222119 C32.3341309,25.3222119 19.3416774,38.3046862 19.3416774,54.3193798 L19.3416774,81.9131151 L19.3416774,108.867017 C19.3416774,133.082722 38.9812899,152.72459 63.2079796,152.72459 C87.4399961,152.72459 107.074282,133.088886 107.074282,108.867017 L107.074282,81.9131151 Z" id="path-10"></path>
        <filter x="-50%" y="-50%" width="200%" height="200%" filterUnits="objectBoundingBox" id="filter-11">
            <feOffset dx="0" dy="10" in="SourceAlpha" result="shadowOffsetOuter1"></feOffset>
            <feGaussianBlur stdDeviation="5" in="shadowOffsetOuter1" result="shadowBlurOuter1"></feGaussianBlur>
            <feColorMatrix values="0 0 0 0 0   0 0 0 0 0   0 0 0 0 0  0 0 0 0.1 0" type="matrix" in="shadowBlurOuter1"></feColorMatrix>
        </filter>
        <rect id="path-12" x="33.1941939" y="40.3572752" width="61.5667399" height="56.1836576" rx="10"></rect>
        <mask id="mask-13" maskContentUnits="userSpaceOnUse" maskUnits="objectBoundingBox" x="0" y="0" width="61.5667399" height="56.1836576" fill="white">
            <use xlink:href="#path-12"></use>
        </mask>
        <rect id="path-14" x="33.9637781" y="102.871486" width="24.626696" height="21.3656163" rx="5"></rect>
        <filter x="-50%" y="-50%" width="200%" height="200%" filterUnits="objectBoundingBox" id="filter-15">
            <feOffset dx="0" dy="2" in="SourceAlpha" result="shadowOffsetOuter1"></feOffset>
            <feGaussianBlur stdDeviation="2" in="shadowOffsetOuter1" result="shadowBlurOuter1"></feGaussianBlur>
            <feColorMatrix values="0 0 0 0 0   0 0 0 0 0   0 0 0 0 0  0 0 0 0.1 0" type="matrix" in="shadowBlurOuter1"></feColorMatrix>
        </filter>
        <rect id="path-16" x="69.3646536" y="102.871486" width="24.626696" height="21.3656163" rx="5"></rect>
        <filter x="-50%" y="-50%" width="200%" height="200%" filterUnits="objectBoundingBox" id="filter-17">
            <feOffset dx="0" dy="2" in="SourceAlpha" result="shadowOffsetOuter1"></feOffset>
            <feGaussianBlur stdDeviation="2" in="shadowOffsetOuter1" result="shadowBlurOuter1"></feGaussianBlur>
            <feColorMatrix values="0 0 0 0 0   0 0 0 0 0   0 0 0 0 0  0 0 0 0.1 0" type="matrix" in="shadowBlurOuter1"></feColorMatrix>
        </filter>
        <filter x="-50%" y="-50%" width="200%" height="200%" filterUnits="objectBoundingBox" id="filter-18">
            <feOffset dx="0" dy="2" in="SourceAlpha" result="shadowOffsetOuter1"></feOffset>
            <feGaussianBlur stdDeviation="5" in="shadowOffsetOuter1" result="shadowBlurOuter1"></feGaussianBlur>
            <feColorMatrix values="0 0 0 0 0   0 0 0 0 0   0 0 0 0 0  0 0 0 0.1 0" type="matrix" in="shadowBlurOuter1" result="shadowMatrixOuter1"></feColorMatrix>
            <feMerge>
                <feMergeNode in="shadowMatrixOuter1"></feMergeNode>
                <feMergeNode in="SourceGraphic"></feMergeNode>
            </feMerge>
        </filter>
        <linearGradient x1="50%" y1="2.80213648%" x2="50%" y2="100%" id="linearGradient-19">
            <stop stop-color="#525252" offset="0%"></stop>
            <stop stop-color="#303030" offset="100%"></stop>
        </linearGradient>
        <path d="M129.573088,98.4562046 L129.573088,58.6261631 C129.573088,42.5988552 116.590691,29.6222101 100.576092,29.6222101 L55.2740559,29.6222101 C39.2549803,29.6222101 26.2770598,42.6077222 26.2770598,58.6261631 L26.2770598,98.4562046 L26.2770598,127.004501 C26.2770598,155.543906 49.4006634,178.658955 77.9250739,178.658955 C106.455756,178.658955 129.573088,155.532468 129.573088,127.004501 L129.573088,98.4562046 Z" id="path-20"></path>
        <filter x="-50%" y="-50%" width="200%" height="200%" filterUnits="objectBoundingBox" id="filter-21">
            <feOffset dx="0" dy="10" in="SourceAlpha" result="shadowOffsetOuter1"></feOffset>
            <feGaussianBlur stdDeviation="5" in="shadowOffsetOuter1" result="shadowBlurOuter1"></feGaussianBlur>
            <feColorMatrix values="0 0 0 0 0   0 0 0 0 0   0 0 0 0 0  0 0 0 0.1 0" type="matrix" in="shadowBlurOuter1"></feColorMatrix>
        </filter>
        <rect id="path-22" x="42.586959" y="47.2103974" width="72.4884408" height="65.7242787" rx="10"></rect>
        <mask id="mask-23" maskContentUnits="userSpaceOnUse" maskUnits="objectBoundingBox" x="0" y="0" width="72.4884408" height="65.7242787" fill="white">
            <use xlink:href="#path-22"></use>
        </mask>
        <rect id="path-24" x="43.4930645" y="120.340229" width="28.9953763" height="24.9937398" rx="5"></rect>
        <filter x="-50%" y="-50%" width="200%" height="200%" filterUnits="objectBoundingBox" id="filter-25">
            <feOffset dx="0" dy="2" in="SourceAlpha" result="shadowOffsetOuter1"></feOffset>
            <feGaussianBlur stdDeviation="2" in="shadowOffsetOuter1" result="shadowBlurOuter1"></feGaussianBlur>
            <feColorMatrix values="0 0 0 0 0   0 0 0 0 0   0 0 0 0 0  0 0 0 0.5 0" type="matrix" in="shadowBlurOuter1"></feColorMatrix>
        </filter>
        <rect id="path-26" x="85.173918" y="120.340229" width="28.9953763" height="24.9937398" rx="5"></rect>
        <filter x="-50%" y="-50%" width="200%" height="200%" filterUnits="objectBoundingBox" id="filter-27">
            <feOffset dx="0" dy="2" in="SourceAlpha" result="shadowOffsetOuter1"></feOffset>
            <feGaussianBlur stdDeviation="2" in="shadowOffsetOuter1" result="shadowBlurOuter1"></feGaussianBlur>
            <feColorMatrix values="0 0 0 0 0   0 0 0 0 0   0 0 0 0 0  0 0 0 0.5 0" type="matrix" in="shadowBlurOuter1"></feColorMatrix>
        </filter>
    </defs>
    <g id="Website" stroke="none" stroke-width="1" fill="none" fill-rule="evenodd">
        <g id="Outcomes" transform="translate(-256.000000, -3004.000000)">
            <g id="Section-04" transform="translate(149.000000, 2743.000000)">
                <g id="Icon_04_outcomes" transform="translate(107.000000, 269.000000)">
                    <path d="M73.2916866,106.833831 C75.0008126,96.382765 78.5038497,86.4881239 83.4957178,77.4368783 L78.1230038,77.4368783 C70.0099013,77.4368783 63.4329323,70.85793 63.4329323,62.7383993 C63.4329323,54.6206534 70.0207953,48.0399202 78.1230038,48.0399202 L108.55857,48.0399202 C126.271466,34.0604909 149.112002,25.6422379 174.042802,25.6422379 C175.273397,25.6422379 176.4989,25.6627485 177.718944,25.7034263 C178.163481,25.6629304 178.613724,25.6422379 179.06878,25.6422379 L244.914691,25.6422379 C253.032855,25.6422379 259.613927,32.2211862 259.613927,40.3407169 C259.613927,43.0161607 258.898743,45.5246499 257.649274,47.6856202 L281.281185,47.6856202 C289.395972,47.6856202 295.974306,54.2645685 295.974306,62.3840992 C295.974306,70.5018451 289.390161,77.0825783 281.281185,77.0825783 L264.393486,77.0825783 C269.574866,86.3821511 273.181129,96.5803701 274.878958,107.363701 C276.90762,101.671735 282.348045,97.597029 288.737892,97.597029 L289.08668,97.597029 C297.209431,97.597029 303.794221,104.175977 303.794221,112.295508 C303.794221,120.413254 297.207119,126.993987 289.08668,126.993987 L288.737892,126.993987 C283.269315,126.993987 278.497826,124.012047 275.963466,119.585625 C275.97717,120.232969 275.984055,120.881886 275.984055,121.532315 C275.984055,127.564467 275.391917,133.466527 274.259335,139.18987 L289.011852,139.18987 C297.124586,139.18987 303.701256,145.768818 303.701256,153.888349 C303.701256,162.006095 297.118995,168.586828 289.011852,168.586828 L262.887036,168.586828 C245.399591,197.73883 212.164927,217.422393 174.042802,217.422393 C145.180501,217.422393 119.119701,206.139735 100.57324,188.007503 L45.9373449,188.007503 C38.718925,188.007503 32.8672395,182.159549 32.8672395,174.942188 C32.8672395,167.958027 38.3490499,162.253799 45.2466018,161.894806 L96.370633,161.894806 C103.581899,161.894806 109.433427,156.045265 109.433427,148.829491 C109.433427,142.815054 105.372071,137.751584 99.8433244,136.230795 L64.478807,136.230795 C56.3601332,136.230795 49.7786478,129.651846 49.7786478,121.532315 C49.7786478,113.41457 56.3639473,106.833836 64.478807,106.833836 L73.2916857,106.833836 Z M7.33314687,121.78151 C7.33314687,114.689633 13.0895567,108.940531 20.1716648,108.940531 L24.2584983,108.940531 C31.349016,108.940531 37.0970162,114.688074 37.0970162,121.78151 C37.0970162,128.873387 31.3406064,134.622489 24.2584983,134.622489 L20.1716648,134.622489 C13.0811471,134.622489 7.33314687,128.874946 7.33314687,121.78151 Z M75.0779367,32.6415136 C75.0779367,28.0028017 78.8475513,24.2423827 83.4678747,24.2423827 L96.4518681,24.2423827 C101.085503,24.2423827 104.841806,28.0122405 104.841806,32.6415136 C104.841806,37.2802255 101.072191,41.0406445 96.4518681,41.0406445 L83.4678747,41.0406445 C78.8342399,41.0406445 75.0779367,37.2707866 75.0779367,32.6415136 Z" id="Background" fill="#B8E986" opacity="0.0700000003"></path>
                    <g id="Icon">
                        <g id="Group-33-Copy" transform="translate(244.294304, 102.483871) rotate(-360.000000) translate(-244.294304, -102.483871) translate(190.794304, 25.983871)">
                            <g id="Combined-Shape">
                                <use fill="black" fill-opacity="1" filter="url(#filter-2)" xlink:href="#path-1"></use>
                                <use fill="#FFFFFF" fill-rule="evenodd" xlink:href="#path-1"></use>
                            </g>
                            <use id="Rectangle-51" stroke="#F1F1ED" mask="url(#mask-4)" stroke-width="8" fill="#EEFEFF" xlink:href="#path-3"></use>
                            <path d="M33.9663066,78.5847226 C37.8063066,78.5847226 41.0463066,76.5747226 41.0463066,73.0347226 C41.0463066,70.5747226 39.4563066,69.0147226 37.2663066,68.3847226 L37.2663066,68.2647226 C39.3063066,67.3947226 40.4463066,66.0147226 40.4463066,64.0347226 C40.4463066,60.7047226 37.8063066,58.8147226 33.8763066,58.8147226 C31.5363066,58.8147226 29.6163066,59.7447226 27.8763066,61.2447226 L30.0963066,63.9447226 C31.2963066,62.8947226 32.3163066,62.2647226 33.6663066,62.2647226 C35.1663066,62.2647226 36.0063066,63.0447226 36.0063066,64.3647226 C36.0063066,65.8947226 34.9263066,66.9147226 31.5063066,66.9147226 L31.5063066,70.0347226 C35.6463066,70.0347226 36.6363066,71.0847226 36.6363066,72.7647226 C36.6363066,74.2047226 35.4063066,75.0147226 33.5463066,75.0147226 C31.9263066,75.0147226 30.5163066,74.2047226 29.3763066,73.0947226 L27.3363066,75.8847226 C28.7163066,77.5047226 30.8763066,78.5847226 33.9663066,78.5847226 Z M47.0163066,78.5847226 C48.5463066,78.5847226 49.6863066,77.3847226 49.6863066,75.8247226 C49.6863066,74.2347226 48.5463066,73.0347226 47.0163066,73.0347226 C45.4863066,73.0347226 44.3463066,74.2347226 44.3463066,75.8247226 C44.3463066,77.3847226 45.4863066,78.5847226 47.0163066,78.5847226 Z M59.4363066,78.5847226 C63.5163066,78.5847226 66.2463066,75.1047226 66.2463066,68.6247226 C66.2463066,62.1447226 63.5163066,58.8147226 59.4363066,58.8147226 C55.3563066,58.8147226 52.6263066,62.1447226 52.6263066,68.6247226 C52.6263066,75.1047226 55.3563066,78.5847226 59.4363066,78.5847226 Z M59.4363066,75.1647226 C57.9663066,75.1647226 56.7963066,73.8147226 56.7963066,68.6247226 C56.7963066,63.4047226 57.9663066,62.2347226 59.4363066,62.2347226 C60.9363066,62.2347226 62.0763066,63.4047226 62.0763066,68.6247226 C62.0763066,73.8147226 60.9363066,75.1647226 59.4363066,75.1647226 Z" id="3.0" fill="#717171"></path>
                            <g id="Rectangle-52">
                                <use fill="black" fill-opacity="1" filter="url(#filter-6)" xlink:href="#path-5"></use>
                                <use fill="#FFFFFF" fill-rule="evenodd" xlink:href="#path-5"></use>
                            </g>
                            <g id="Rectangle-52">
                                <use fill="black" fill-opacity="1" filter="url(#filter-8)" xlink:href="#path-7"></use>
                                <use fill="#FFFFFF" fill-rule="evenodd" xlink:href="#path-7"></use>
                            </g>
                            <path d="M67.4094938,112.144248 C68.5295148,112.922942 68.5280541,114.186469 67.4094938,114.964148 L62.5773113,118.323719 C61.4572903,119.102413 60.5493339,118.626019 60.5493339,117.262356 L60.5493339,109.846039 C60.5493339,108.481171 61.458751,108.006998 62.5773113,108.784676 L67.4094938,112.144248 Z" id="Triangle" fill="#0BB0F6"></path>
                            <path d="M28.911354,112.144248 C30.031375,112.922942 30.0299143,114.186469 28.911354,114.964148 L24.0791715,118.323719 C22.9591505,119.102413 22.0511941,118.626019 22.0511941,117.262356 L22.0511941,109.846039 C22.0511941,108.481171 22.9606112,108.006998 24.0791715,108.784676 L28.911354,112.144248 Z" id="Triangle" fill="#0BB0F6" transform="translate(25.901008, 113.554294) rotate(-180.000000) translate(-25.901008, -113.554294) "></path>
                            <path d="M101.181739,2.52363326 C101.181739,1.1298691 102.300166,0 103.701485,0 C105.093102,0 106.221231,1.12903104 106.221231,2.52363326 L106.221231,14.0925017 C106.221231,15.4862659 105.102805,16.616135 103.701485,16.616135 C102.309868,16.616135 101.181739,15.487104 101.181739,14.0925017 L101.181739,2.52363326 Z M73.6330806,32.9385655 C72.2446201,32.817091 71.2165278,31.6044458 71.3386608,30.2084589 C71.4599482,28.8221373 72.6830059,27.796703 74.0723012,27.9182506 L85.5971467,28.9265439 C86.9856071,29.0480185 88.0136994,30.2606637 87.8915664,31.6566505 C87.770279,33.0429722 86.5472213,34.0684064 85.157926,33.9468588 L73.6330806,32.9385655 Z M81.662006,12.2004288 C80.7293957,11.1646602 80.8045186,9.57663036 81.8459018,8.63896473 C82.8800749,7.70779107 84.4739071,7.79195924 85.4070781,8.82835067 L93.1481621,17.4256954 C94.0807724,18.461464 94.0056495,20.0494938 92.9642663,20.9871595 C91.9300932,21.9183331 90.336261,21.834165 89.4030899,20.7977735 L81.662006,12.2004288 Z" id="Rectangle-54-Copy" fill="url(#linearGradient-9)" transform="translate(88.775022, 16.978320) scale(-1, 1) translate(-88.775022, -16.978320) "></path>
                        </g>
                        <g id="Group-33-Copy-2" transform="translate(54.000000, 102.483871) rotate(-360.000000) translate(-54.000000, -102.483871) translate(0.000000, 25.983871)">
                            <g id="Combined-Shape">
                                <use fill="black" fill-opacity="1" filter="url(#filter-11)" xlink:href="#path-10"></use>
                                <use fill="#FFFFFF" fill-rule="evenodd" xlink:href="#path-10"></use>
                            </g>
                            <use id="Rectangle-51" stroke="#F1F1ED" mask="url(#mask-13)" stroke-width="8" fill="#EEFEFF" xlink:href="#path-12"></use>
                            <path d="M52.802875,78.5847226 C56.642875,78.5847226 59.882875,76.5747226 59.882875,73.0347226 C59.882875,70.5747226 58.292875,69.0147226 56.102875,68.3847226 L56.102875,68.2647226 C58.142875,67.3947226 59.282875,66.0147226 59.282875,64.0347226 C59.282875,60.7047226 56.642875,58.8147226 52.712875,58.8147226 C50.372875,58.8147226 48.452875,59.7447226 46.712875,61.2447226 L48.932875,63.9447226 C50.132875,62.8947226 51.152875,62.2647226 52.502875,62.2647226 C54.002875,62.2647226 54.842875,63.0447226 54.842875,64.3647226 C54.842875,65.8947226 53.762875,66.9147226 50.342875,66.9147226 L50.342875,70.0347226 C54.482875,70.0347226 55.472875,71.0847226 55.472875,72.7647226 C55.472875,74.2047226 54.242875,75.0147226 52.382875,75.0147226 C50.762875,75.0147226 49.352875,74.2047226 48.212875,73.0947226 L46.172875,75.8847226 C47.552875,77.5047226 49.712875,78.5847226 52.802875,78.5847226 Z M65.852875,78.5847226 C67.382875,78.5847226 68.522875,77.3847226 68.522875,75.8247226 C68.522875,74.2347226 67.382875,73.0347226 65.852875,73.0347226 C64.322875,73.0347226 63.182875,74.2347226 63.182875,75.8247226 C63.182875,77.3847226 64.322875,78.5847226 65.852875,78.5847226 Z M78.272875,78.5847226 C82.352875,78.5847226 85.082875,75.1047226 85.082875,68.6247226 C85.082875,62.1447226 82.352875,58.8147226 78.272875,58.8147226 C74.192875,58.8147226 71.462875,62.1447226 71.462875,68.6247226 C71.462875,75.1047226 74.192875,78.5847226 78.272875,78.5847226 Z M78.272875,75.1647226 C76.802875,75.1647226 75.632875,73.8147226 75.632875,68.6247226 C75.632875,63.4047226 76.802875,62.2347226 78.272875,62.2347226 C79.772875,62.2347226 80.912875,63.4047226 80.912875,68.6247226 C80.912875,73.8147226 79.772875,75.1647226 78.272875,75.1647226 Z" id="3.0" fill="#717171"></path>
                            <g id="Rectangle-52">
                                <use fill="black" fill-opacity="1" filter="url(#filter-15)" xlink:href="#path-14"></use>
                                <use fill="#FFFFFF" fill-rule="evenodd" xlink:href="#path-14"></use>
                            </g>
                            <g id="Rectangle-52">
                                <use fill="black" fill-opacity="1" filter="url(#filter-17)" xlink:href="#path-16"></use>
                                <use fill="#FFFFFF" fill-rule="evenodd" xlink:href="#path-16"></use>
                            </g>
                            <path d="M86.226036,112.144248 C87.3455063,112.922942 87.3440464,114.186469 86.226036,114.964148 L81.3962292,118.323719 C80.2767589,119.102413 79.3692488,118.626019 79.3692488,117.262356 L79.3692488,109.846039 C79.3692488,108.481171 80.2782188,108.006998 81.3962292,108.784676 L86.226036,112.144248 Z" id="Triangle" fill="#0BB0F6"></path>
                            <path d="M47.7468235,112.144248 C48.8662939,112.922942 48.8648339,114.186469 47.7468235,114.964148 L42.9170167,118.323719 C41.7975464,119.102413 40.8900364,118.626019 40.8900364,117.262356 L40.8900364,109.846039 C40.8900364,108.481171 41.7990064,108.006998 42.9170167,108.784676 L47.7468235,112.144248 Z" id="Triangle" fill="#0BB0F6" transform="translate(44.737958, 113.554294) rotate(-180.000000) translate(-44.737958, -113.554294) "></path>
                            <path d="M30.4704359,2.52363326 C30.4704359,1.1298691 31.5883126,1.42108547e-14 32.988943,1.42108547e-14 C34.379876,1.42108547e-14 35.50745,1.12903104 35.50745,2.52363326 L35.50745,14.0925017 C35.50745,15.4862659 34.3895733,16.616135 32.988943,16.616135 C31.5980099,16.616135 30.4704359,15.487104 30.4704359,14.0925017 L30.4704359,2.52363326 Z M2.93248812,32.9373314 C1.54402765,32.8158569 0.515887414,31.6037595 0.637960393,30.2084589 C0.759188193,28.8228188 1.98219748,27.7979371 3.37149282,27.9194847 L14.8963383,28.927778 C16.2847987,29.0492526 17.312939,30.26135 17.190866,31.6566505 C17.0696382,33.0422906 15.8466289,34.0671723 14.4573336,33.9456247 L2.93248812,32.9373314 Z M10.9583963,12.1995999 C10.025786,11.1638312 10.1005003,9.57616936 11.1413715,8.63896473 C12.1750362,7.70824887 13.7684562,7.79278817 14.7016272,8.82917959 L22.4427112,17.4265243 C23.3753214,18.462293 23.3006072,20.0499548 22.259736,20.9871595 C21.2260713,21.9178753 19.6326513,21.833336 18.6994803,20.7969446 L10.9583963,12.1995999 Z" id="Rectangle-54-Copy" fill="url(#linearGradient-9)"></path>
                        </g>
                        <g id="Group-33" filter="url(#filter-18)" transform="translate(146.930380, 89.500000) rotate(-360.000000) translate(-146.930380, -89.500000) translate(71.430380, 0.000000)">
                            <g id="Combined-Shape">
                                <use fill="black" fill-opacity="1" filter="url(#filter-21)" xlink:href="#path-20"></use>
                                <use fill="url(#linearGradient-19)" fill-rule="evenodd" xlink:href="#path-20"></use>
                            </g>
                            <use id="Rectangle-51" stroke="#3A3A3A" mask="url(#mask-23)" stroke-width="8" fill="#EEFEFF" xlink:href="#path-22"></use>
                            <path d="M66.6890076,91.5471598 C70.1390076,91.5471598 73.0190076,89.1171598 73.0190076,85.1571598 C73.0190076,81.1371598 70.6190076,79.2771598 67.3490076,79.2771598 C66.1790076,79.2771598 64.5290076,80.0271598 63.5390076,81.2871598 C63.6890076,76.8471598 65.3690076,75.3471598 67.4690076,75.3471598 C68.5790076,75.3471598 69.7790076,75.9771598 70.4390076,76.6971598 L72.7490076,74.0571598 C71.5490076,72.8271598 69.7190076,71.7771598 67.1990076,71.7771598 C63.1790076,71.7771598 59.4890076,74.9871598 59.4890076,82.0971598 C59.4890076,88.7871598 62.9990076,91.5471598 66.6890076,91.5471598 Z M66.5990076,88.2471598 C65.2790076,88.2471598 64.0190076,87.2871598 63.6290076,84.2871598 C64.4090076,82.9371598 65.5190076,82.3971598 66.5090076,82.3971598 C67.9490076,82.3971598 68.9990076,83.1471598 68.9990076,85.1571598 C68.9990076,87.3171598 67.9190076,88.2471598 66.5990076,88.2471598 Z M78.5990076,91.5471598 C80.1290076,91.5471598 81.2690076,90.3471598 81.2690076,88.7871598 C81.2690076,87.1971598 80.1290076,85.9971598 78.5990076,85.9971598 C77.0690076,85.9971598 75.9290076,87.1971598 75.9290076,88.7871598 C75.9290076,90.3471598 77.0690076,91.5471598 78.5990076,91.5471598 Z M90.5090076,91.5471598 C94.2290076,91.5471598 97.4990076,89.1171598 97.4990076,84.8871598 C97.4990076,80.8371598 94.7090076,78.9771598 91.4390076,78.9771598 C90.6590076,78.9771598 90.0290076,79.0971598 89.3090076,79.4271598 L89.6390076,75.8571598 L96.6290076,75.8571598 L96.6290076,72.1371598 L85.8290076,72.1371598 L85.2890076,81.7671598 L87.2690076,83.0271598 C88.4090076,82.3071598 88.9790076,82.0671598 90.0890076,82.0671598 C91.8590076,82.0671598 93.0890076,83.0871598 93.0890076,85.0071598 C93.0890076,86.9571598 91.8290076,87.9771598 89.8790076,87.9771598 C88.2590076,87.9771598 86.9090076,87.1371598 85.7690076,86.0871598 L83.7890076,88.8771598 C85.2890076,90.3771598 87.3890076,91.5471598 90.5090076,91.5471598 Z" id="6.5" fill="#717171"></path>
                            <g id="Rectangle-52">
                                <use fill="black" fill-opacity="1" filter="url(#filter-25)" xlink:href="#path-24"></use>
                                <use fill="#FFFFFF" fill-rule="evenodd" xlink:href="#path-24"></use>
                            </g>
                            <g id="Rectangle-52">
                                <use fill="black" fill-opacity="1" filter="url(#filter-27)" xlink:href="#path-26"></use>
                                <use fill="#FFFFFF" fill-rule="evenodd" xlink:href="#path-26"></use>
                            </g>
                            <path d="M105.026444,131.187611 C106.344504,132.098536 106.342785,133.576625 105.026444,134.486361 L99.3398484,138.416426 C98.0217884,139.327351 96.9532896,138.77006 96.9532896,137.174832 L96.9532896,128.49914 C96.9532896,126.902502 98.0235073,126.347809 99.3398484,127.257546 L105.026444,131.187611 Z" id="Triangle" fill="#0BB0F6"></path>
                            <path d="M59.7211687,131.187611 C61.0392287,132.098536 61.0375098,133.576625 59.7211687,134.486361 L54.0345729,138.416426 C52.7165129,139.327351 51.6480141,138.77006 51.6480141,137.174832 L51.6480141,128.49914 C51.6480141,126.902502 52.7182318,126.347809 54.0345729,127.257546 L59.7211687,131.187611 Z" id="Triangle" fill="#0BB0F6" transform="translate(56.178542, 132.837099) rotate(-180.000000) translate(-56.178542, -132.837099) "></path>
                            <path d="M35.7502927,2.97333372 C35.7502927,1.33120685 37.0812263,1.58213853e-14 38.7155731,1.58213853e-14 C40.3532522,1.58213853e-14 41.6808535,1.33603478 41.6808535,2.97333372 L41.6808535,16.4644091 C41.6808535,18.106536 40.3499199,19.4377428 38.7155731,19.4377428 C37.0778939,19.4377428 35.7502927,18.101708 35.7502927,16.4644091 L35.7502927,2.97333372 Z M3.39200499,38.551337 C1.75612691,38.4082162 0.545984211,36.9663249 0.68842692,35.3381972 C0.831160062,33.70675 2.2778189,32.5006437 3.90888743,32.6433437 L17.3486252,33.8191684 C18.9845033,33.9622892 20.194646,35.4041805 20.0522033,37.0323082 C19.9094701,38.6637554 18.4628113,39.8698617 16.8317428,39.7271617 L3.39200499,38.551337 Z M12.8204083,14.2997362 C11.7216109,13.0793981 11.8199361,11.1995502 13.0344925,10.1059587 C14.2515252,9.0101375 16.132107,9.1146662 17.2276738,10.3314164 L26.2549653,20.3572393 C27.3537626,21.5775774 27.2554375,23.4574253 26.0408811,24.5510167 C24.8238483,25.646838 22.9432665,25.5423093 21.8476997,24.325559 L12.8204083,14.2997362 Z" id="Rectangle-54" fill="url(#linearGradient-9)"></path>
                            <path d="M144.712022,2.97333372 C144.712022,1.33120685 146.042956,-1.26428982e-14 147.677303,-1.26428982e-14 C149.314982,-1.26428982e-14 150.642583,1.33603478 150.642583,2.97333372 L150.642583,16.4644091 C150.642583,18.106536 149.311649,19.4377428 147.677303,19.4377428 C146.039624,19.4377428 144.712022,18.101708 144.712022,16.4644091 L144.712022,2.97333372 Z M112.353735,38.551337 C110.717857,38.4082162 109.507714,36.9663249 109.650157,35.3381972 C109.79289,33.70675 111.239549,32.5006437 112.870617,32.6433437 L126.310355,33.8191684 C127.946233,33.9622892 129.156376,35.4041805 129.013933,37.0323082 C128.8712,38.6637554 127.424541,39.8698617 125.793472,39.7271617 L112.353735,38.551337 Z M121.782138,14.2997362 C120.683341,13.0793981 120.781666,11.1995502 121.996222,10.1059587 C123.213255,9.0101375 125.093837,9.1146662 126.189403,10.3314164 L135.216695,20.3572393 C136.315492,21.5775774 136.217167,23.4574253 135.002611,24.5510167 C133.785578,25.646838 131.904996,25.5423093 130.809429,24.325559 L121.782138,14.2997362 Z" id="Rectangle-54-Copy" fill="url(#linearGradient-9)" transform="translate(130.140675, 19.869313) scale(-1, 1) translate(-130.140675, -19.869313) "></path>
                        </g>
                    </g>
                </g>
            </g>
        </g>
    </g>
</svg>