<?xml version="1.0" encoding="UTF-8"?>
<svg width="376px" height="183px" viewBox="0 0 376 183" version="1.1" xmlns="http://www.w3.org/2000/svg" xmlns:xlink="http://www.w3.org/1999/xlink">
    <!-- Generator: Sketch 41.2 (35397) - http://www.bohemiancoding.com/sketch -->
    <title>Icon</title>
    <desc>Created with Sketch.</desc>
    <defs>
        <filter x="-50%" y="-50%" width="200%" height="200%" filterUnits="objectBoundingBox" id="filter-1">
            <feOffset dx="1" dy="3" in="SourceAlpha" result="shadowOffsetOuter1"></feOffset>
            <feGaussianBlur stdDeviation="5" in="shadowOffsetOuter1" result="shadowBlurOuter1"></feGaussianBlur>
            <feColorMatrix values="0 0 0 0 0   0 0 0 0 0   0 0 0 0 0  0 0 0 0.1 0" type="matrix" in="shadowBlurOuter1" result="shadowMatrixOuter1"></feColorMatrix>
            <feMerge>
                <feMergeNode in="shadowMatrixOuter1"></feMergeNode>
                <feMergeNode in="SourceGraphic"></feMergeNode>
            </feMerge>
        </filter>
        <linearGradient x1="107.74247%" y1="22.9529618%" x2="0%" y2="73.5964753%" id="linearGradient-2">
            <stop stop-color="#13D7EB" offset="0%"></stop>
            <stop stop-color="#49D987" offset="100%"></stop>
        </linearGradient>
        <filter x="-50%" y="-50%" width="200%" height="200%" filterUnits="objectBoundingBox" id="filter-3">
            <feOffset dx="1" dy="3" in="SourceAlpha" result="shadowOffsetOuter1"></feOffset>
            <feGaussianBlur stdDeviation="5" in="shadowOffsetOuter1" result="shadowBlurOuter1"></feGaussianBlur>
            <feColorMatrix values="0 0 0 0 0   0 0 0 0 0   0 0 0 0 0  0 0 0 0.1 0" type="matrix" in="shadowBlurOuter1" result="shadowMatrixOuter1"></feColorMatrix>
            <feMerge>
                <feMergeNode in="shadowMatrixOuter1"></feMergeNode>
                <feMergeNode in="SourceGraphic"></feMergeNode>
            </feMerge>
        </filter>
        <linearGradient x1="50%" y1="0%" x2="50%" y2="100%" id="linearGradient-4">
            <stop stop-color="#51ECD4" offset="0%"></stop>
            <stop stop-color="#5082E3" offset="100%"></stop>
        </linearGradient>
        <filter x="-50%" y="-50%" width="200%" height="200%" filterUnits="objectBoundingBox" id="filter-5">
            <feOffset dx="3" dy="1" in="SourceAlpha" result="shadowOffsetOuter1"></feOffset>
            <feGaussianBlur stdDeviation="5" in="shadowOffsetOuter1" result="shadowBlurOuter1"></feGaussianBlur>
            <feColorMatrix values="0 0 0 0 0   0 0 0 0 0   0 0 0 0 0  0 0 0 0.1 0" type="matrix" in="shadowBlurOuter1" result="shadowMatrixOuter1"></feColorMatrix>
            <feMerge>
                <feMergeNode in="shadowMatrixOuter1"></feMergeNode>
                <feMergeNode in="SourceGraphic"></feMergeNode>
            </feMerge>
        </filter>
        <linearGradient x1="76.2442798%" y1="-8.05824193%" x2="4.42568124%" y2="100%" id="linearGradient-6">
            <stop stop-color="#575667" offset="0%"></stop>
            <stop stop-color="#313139" offset="100%"></stop>
        </linearGradient>
        <filter x="-50%" y="-50%" width="200%" height="200%" filterUnits="objectBoundingBox" id="filter-7">
            <feOffset dx="0" dy="2" in="SourceAlpha" result="shadowOffsetOuter1"></feOffset>
            <feGaussianBlur stdDeviation="5" in="shadowOffsetOuter1" result="shadowBlurOuter1"></feGaussianBlur>
            <feColorMatrix values="0 0 0 0 0   0 0 0 0 0   0 0 0 0 0  0 0 0 0.2 0" type="matrix" in="shadowBlurOuter1" result="shadowMatrixOuter1"></feColorMatrix>
            <feMerge>
                <feMergeNode in="shadowMatrixOuter1"></feMergeNode>
                <feMergeNode in="SourceGraphic"></feMergeNode>
            </feMerge>
        </filter>
        <linearGradient x1="50%" y1="0%" x2="50%" y2="98.3856824%" id="linearGradient-8">
            <stop stop-color="#4F4C62" offset="0%"></stop>
            <stop stop-color="#2F2E34" offset="100%"></stop>
        </linearGradient>
        <polygon id="path-9" points="0 142 146.912 142 146.912 0.486 0 0.486"></polygon>
    </defs>
    <g id="Website" stroke="none" stroke-width="1" fill="none" fill-rule="evenodd">
        <g id="Outcomes" transform="translate(-220.000000, -1692.000000)">
            <g id="Section-02" transform="translate(149.000000, 1430.000000)">
                <g id="Icon" transform="translate(78.000000, 262.000000)">
                    <path d="M199.987712,59.0978653 C201.130512,51.665892 203.473142,44.6296167 206.811538,38.1931442 L203.852105,38.1931442 C198.077009,38.1931442 193.395369,33.5151623 193.395369,27.7417445 C193.395369,21.9695959 198.080321,17.2903449 203.852105,17.2903449 L220.14454,17.2903449 C219.163736,15.6983476 218.597941,13.8232965 218.597941,11.8158022 C218.597941,11.6018276 218.604364,11.3893549 218.617027,11.1785667 C217.633017,11.8925049 216.422714,12.3134879 215.114195,12.3134879 L207.154158,12.3134879 C203.856097,12.3134879 201.18249,9.63291864 201.18249,6.34125951 C201.18249,3.04288886 203.856414,0.369031138 207.154158,0.369031138 L215.114195,0.369031138 C218.014295,0.369031138 220.431549,2.44172738 220.972679,5.18002284 C222.888668,2.8501668 225.794032,1.36440253 229.050292,1.36440253 L314.131049,1.36440253 C319.903723,1.36440253 324.5834,6.04238441 324.5834,11.8158022 C324.5834,13.8230919 324.018204,15.6982142 323.037887,17.2903449 L350.540432,17.2903449 C356.310765,17.2903449 360.988545,21.9683267 360.988545,27.7417445 C360.988545,33.5138932 356.310274,38.1931442 350.540432,38.1931442 L327.91087,38.1931442 C332.779478,47.5798863 335.530254,58.2423102 335.530254,69.5473431 C335.530254,74.4993413 335.002451,79.3280391 334.000041,83.9802284 L357.921356,83.9802284 C363.692435,83.9802284 368.370819,88.6582102 368.370819,94.431628 C368.370819,100.203777 363.684672,104.883028 357.921356,104.883028 L325.673125,104.883028 C313.719611,124.574848 292.076403,137.730284 267.361204,137.730284 C248.067081,137.730284 230.645113,129.713003 218.243702,116.827484 L201.388895,116.827484 C196.257367,116.827484 192.097442,112.669278 192.097442,107.537351 C192.097442,102.406553 196.256317,98.2472184 201.388895,98.2472184 L202.514483,98.2472184 L203.640071,98.2472184 L214.864869,98.2472184 C219.997447,98.2472184 224.156322,94.0878841 224.156322,88.9570853 C224.156322,84.680501 221.267514,81.0801049 217.334965,79.9987428 L200.190402,79.9987428 C194.417728,79.9987428 189.738051,75.3207609 189.738051,69.5473431 C189.738051,63.8428342 194.302782,59.2057592 199.987712,59.0978653 Z M341.22892,62.6927252 C341.22892,57.191058 345.683233,52.7310754 351.180606,52.7310754 C356.676771,52.7310754 361.132292,57.1896117 361.132292,62.6927252 L361.132292,63.672225 C361.132292,69.1738922 356.677979,73.6338747 351.180606,73.6338747 C345.684442,73.6338747 341.22892,69.1753384 341.22892,63.672225 L341.22892,62.6927252 Z M239.994067,150.670112 C239.994067,146.272284 243.554835,142.707141 247.96389,142.707141 L295.715035,142.707141 C300.116647,142.707141 303.684859,146.281233 303.684859,150.670112 C303.684859,155.067939 300.12409,158.633083 295.715035,158.633083 L247.96389,158.633083 C243.562278,158.633083 239.994067,155.058991 239.994067,150.670112 Z" id="Combined-Shape-Copy" fill="#BCEF89" opacity="0.2"></path>
                    <g id="Group-28" transform="translate(0.000000, 20.000000)">
                        <g id="Page-1" filter="url(#filter-1)" transform="translate(55.000000, 46.000000)">
                            <path d="M78,77.6742483 C71.0361831,65.9229632 59.2153622,51.7452454 53.5399681,45.4590722 C53.2041114,45.0840401 53.0165984,44.5995888 53.0165984,44.0959265 L53.0165984,9.66730918 C53.0165984,8.54555384 53.9241614,7.63762529 55.0425724,7.63762529 L57.8911035,7.63762529 C59.4845475,7.63762529 60.8313077,5.88858905 60.8313077,3.81964791 C60.8313077,1.7498715 59.4845475,0 57.8911035,0 L26.1455657,0 C24.5521217,0 23.2053615,1.7498715 23.2053615,3.81964791 C23.2053615,5.88858905 24.5521217,7.63762529 26.1455657,7.63762529 L29.8624905,7.63762529 C30.9817348,7.63762529 31.8876311,8.54555384 31.8876311,9.66730918 L31.8876311,44.0959265 C31.8876311,44.6104472 31.6942843,45.1024158 31.3459268,45.4791185 C25.4588513,51.8212542 13.1346621,66.194423 6,78 C12.1070908,77.8003727 18.230016,77.6742483 24.3787763,77.6742483 L78,77.6742483 Z" id="Fill-1" fill="#F5FCFF"></path>
                            <path d="M23.834159,77 C17.6772188,77 11.5444823,77.123903 5.42843812,77.3200143 C2.16259738,82.621584 -0.0182464281,87.3947199 0.000115058237,90.6481984 C0.0243188357,94.9142347 2.5164733,100 14.2502977,100 C15.8919815,100 17.0053553,99.8736354 17.0162052,99.8728148 C17.0929896,99.8646093 17.1747817,99.8588655 17.2524007,99.8588655 L65.7475901,99.8588655 C65.8268783,99.8588655 65.9061665,99.8646093 65.987124,99.8728148 C65.9946355,99.8736354 67.1080093,100 68.7496931,100 C80.4835175,100 82.975672,94.9142347 82.9998757,90.6481984 C83.0190718,87.3282554 80.812355,82.4262933 77.5339951,77 L40,77 L23.834159,77 Z" id="Fill-3" fill="url(#linearGradient-2)"></path>
                        </g>
                        <g id="Page-1" filter="url(#filter-3)" transform="translate(117.000000, 66.000000)">
                            <path d="M36.7575415,30.036154 C36.3577515,29.9141613 36.0851674,29.5461666 36.0851674,29.1287699 L36.0851674,8.34160705 C36.0851674,7.81784475 36.5107014,7.39288651 37.0351734,7.39288651 L38.816561,7.39288651 C40.0053305,7.39288651 40.9740136,6.18354507 40.9740136,4.69694736 C40.9740136,3.20984554 40.0053305,2 38.816561,2 L18.9593143,2 C17.77004,2 16.8023664,3.20984554 16.8023664,4.69694736 C16.8023664,6.18354507 17.77004,7.39288651 18.9593143,7.39288651 L21.2838509,7.39288651 C21.8088277,7.39288651 22.233857,7.81784475 22.233857,8.34160705 L22.233857,28.9750187 C22.233857,29.3994728 21.9516819,29.7725085 21.5428058,29.887948 C13.4576586,32.1725396 7.08726729,38.0896925 4,45.5483903 C20.6680128,45.630559 37.3809514,46.0802182 54,45.9874634 C51.0909219,38.4642406 44.8734806,32.5102882 36.7575415,30.036154 Z" id="Fill-1" fill="#F4FCFF"></path>
                            <path d="M4.03547219,46.2087743 C4.03811851,46.2022604 4.04076723,46.1957476 4.04341835,46.189236 C4.04548133,46.1892463 4.0475443,46.1892567 4.04960728,46.189267 C4.17904977,46.0132895 4.37392816,45.8165229 4.64971176,45.5965722 C6.94455433,43.766325 8.6990917,42 12.7484716,42 C16.7978516,42 17.8888951,43.4586119 27,45 C36.1111049,46.5413881 40.5879587,44.5689802 41.6003037,44.0551841 C42.6126487,43.5413881 45.6496836,42 50.2052361,44.0551841 C52.9243727,45.2818908 53.8401657,46.1424966 54.1366407,46.6370016 C54.1513659,46.636919 54.166091,46.6368359 54.1808161,46.6367523 C55.3596918,49.7380252 56,53.0982513 56,56.5930919 C56,71.7053747 43.8883046,84 28.9997469,84 C14.1122016,84 2,71.7053747 2,56.5930919 C2,53.1410081 2.65064415,49.7995359 3.83926511,46.7053013 C3.84179172,46.5619995 3.90066652,46.3975025 4.03547144,46.2087763 Z" id="Combined-Shape" fill="url(#linearGradient-4)"></path>
                            <path d="M38.9884601,9.24947764 C41.2401674,9.24947764 43.0708857,7.17509402 43.0708857,4.62524625 C43.0708857,2.07539848 41.2401674,0 38.9884601,0 L19.0115399,0 C16.7603404,0 14.9296221,2.07539848 14.9296221,4.62524625 C14.9296221,7.17509402 16.7603404,9.24947764 19.0115399,9.24947764 L20.3938465,9.24947764 L20.3938465,28.3507552 C8.34970056,32.0874873 0,43.3626351 0,56.021551 C0,72.000597 13.0090183,85 29,85 C44.9909817,85 58,72.000597 58,56.021551 C58,43.4255567 50.0545302,32.4619724 38.1525759,28.5197302 L38.9884601,9.24947764 Z" id="Fill-5"></path>
                        </g>
                        <g id="Page-1" filter="url(#filter-5)">
                            <path d="M27.2981457,39.1087209 L1.57227494,64.8350673 C-0.524091646,66.931427 -0.524091646,70.3309126 1.57227494,72.4272723 C3.66925217,74.5242426 7.06874904,74.5242426 9.16511563,72.4272723 L34.8910757,46.7019578 C44.7167077,53.0442848 57.9648185,51.9130754 66.5695926,43.3083297 C76.4768025,33.4005419 76.4768025,17.338018 66.5695926,7.43084085 C56.6623828,-2.47694695 40.5998058,-2.47694695 30.692596,7.43084085 C22.0875637,16.0353144 20.9560803,29.2828155 27.2981457,39.1087209 Z" id="Combined-Shape" fill="url(#linearGradient-6)"></path>
                            <path d="M63.1421161,10.8577489 C70.952628,18.6686952 70.952628,31.3314584 63.1421161,39.1417903 C55.3316043,46.9527366 42.6685493,46.9527366 34.8574231,39.1417903 C27.0475256,31.3314584 27.0475256,18.6686952 34.8574231,10.8577489 C42.6685493,3.04741702 55.3316043,3.04741702 63.1421161,10.8577489" id="Fill-4" fill="#F4FCFF"></path>
                        </g>
                        <g id="Group-23" filter="url(#filter-7)" transform="translate(193.000000, 8.000000)">
                            <g id="Page-1">
                                <path d="M141.8835,142.514 L134.277,142.514 L134.277,15.896 L141.8835,15.896 L146.912,15.896 L146.912,142.514 L141.8835,142.514 Z" id="Combined-Shape" fill="url(#linearGradient-8)"></path>
                                <polygon id="Fill-3" fill="#FFFFFF" points="134.2773 15.8957 141.2383 20.2727 146.9123 15.8957 140.5933 2.4257"></polygon>
                                <g id="Group-26" transform="translate(0.000000, 0.514000)">
                                    <path d="M141.6309,5.0078 C141.6309,5.5868 141.1659,6.0578 140.5939,6.0578 C140.0219,6.0578 139.5589,5.5868 139.5589,5.0078 L139.5589,2.4368 C139.5589,1.8568 140.0219,1.3868 140.5939,1.3868 C141.1659,1.3868 141.6309,1.8568 141.6309,2.4368 L141.6309,5.0078 Z" id="Fill-4" fill="#42414B"></path>
                                    <mask id="mask-10" fill="white">
                                        <use xlink:href="#path-9"></use>
                                    </mask>
                                    <g id="Clip-7"></g>
                                    <polygon id="Fill-6" fill="#FFFFFF" mask="url(#mask-10)" points="0 142 107.273 142 107.273 8.584 0 8.584"></polygon>
                                    <polygon id="Fill-8" fill="#D3DEE4" mask="url(#mask-10)" points="107.273 142 116.601 142 116.601 8.584 107.273 8.584"></polygon>
                                    <path d="M19.4903,15.0791 C19.4903,16.7531 18.1333,18.1101 16.4573,18.1101 C14.7833,18.1101 13.4263,16.7531 13.4263,15.0791 C13.4263,13.4051 14.7833,12.0471 16.4573,12.0471 C18.1333,12.0471 19.4903,13.4051 19.4903,15.0791" id="Fill-9" fill="#C0CAD0" mask="url(#mask-10)"></path>
                                    <path d="M14.3534383,0.727515134 C10.8144694,1.59553701 8.1855,4.77952211 8.1855,8.5835 C8.1855,13.0585 11.8125,16.6825 16.2835,16.6825 L16.2835,16.6725 C16.3025,16.6745 16.3185,16.6825 16.3355,16.6825 C17.2185,16.6825 17.9355,15.9655 17.9355,15.0835 C17.9355,14.1995 17.2185,13.4845 16.3355,13.4845 C16.3185,13.4845 16.3025,13.4945 16.2835,13.4945 L16.2835,13.4805 C13.5805,13.4805 11.3865,11.2895 11.3865,8.5835 C11.3865,5.8815 13.5805,3.6875 16.2835,3.6875 C16.5355,3.6875 16.7775,3.7265 17.0175,3.7625 C19.3712935,4.11840416 21.1792,6.1323634 21.1792,8.5843 L24.3812,8.5843 C24.3812,4.1123 20.7562,0.4863 16.2832,0.4863 C15.6172,0.4863 14.9722,0.5763 14.3532,0.7273 Z M16.8788769,3.56226303 C16.5187576,3.05050155 16.1296806,2.56166391 15.7140418,2.09495142 C16.1300401,2.5616791 16.5191326,3.05050972 16.8788769,3.56226303 Z" id="Combined-Shape" fill="#31607C" mask="url(#mask-10)"></path>
                                    <path d="M37.6758,15.0791 C37.6758,16.7531 36.3208,18.1101 34.6448,18.1101 C32.9708,18.1101 31.6138,16.7531 31.6138,15.0791 C31.6138,13.4051 32.9708,12.0471 34.6448,12.0471 C36.3208,12.0471 37.6758,13.4051 37.6758,15.0791" id="Fill-12" fill="#C0CAD0" mask="url(#mask-10)"></path>
                                    <path d="M32.543,0.7275 C33.0439422,1.18063853 33.5176089,1.65832497 33.9605429,2.16154708 C34.4074497,2.6688753 34.8227127,3.20210733 35.2027,3.7623 C34.965,3.7265 34.723,3.6875 34.471,3.6875 C31.766,3.6875 29.574,5.8815 29.574,8.5835 C29.574,11.2895 31.766,13.4805 34.471,13.4805 L34.471,13.4945 C34.49,13.4945 34.506,13.4845 34.523,13.4845 C35.408,13.4845 36.127,14.1995 36.127,15.0835 C36.127,15.9655 35.408,16.6825 34.523,16.6825 C34.506,16.6825 34.49,16.6745 34.471,16.6725 L34.471,16.6825 C29.998,16.6825 26.373,13.0585 26.373,8.5835 C26.373,4.77952223 29.0019693,1.59553722 32.5429379,0.727515218 C33.1597,0.5763 33.8047,0.4863 34.4707,0.4863 C38.9437,0.4863 42.5707,4.1123 42.5707,8.5843 L39.3667,8.5843 C39.3667,6.13236346 37.5587936,4.11840425 35.2028829,3.76232765 Z" id="Combined-Shape" fill="#31607C" mask="url(#mask-10)"></path>
                                    <path d="M55.8653,15.0791 C55.8653,16.7531 54.5103,18.1101 52.8343,18.1101 C51.1583,18.1101 49.8033,16.7531 49.8033,15.0791 C49.8033,13.4051 51.1583,12.0471 52.8343,12.0471 C54.5103,12.0471 55.8653,13.4051 55.8653,15.0791" id="Fill-15" fill="#C0CAD0" mask="url(#mask-10)"></path>
                                    <path d="M50.7304383,0.727515134 C47.1914694,1.59553701 44.5605,4.77952211 44.5605,8.5835 C44.5605,13.0585 48.1875,16.6825 52.6605,16.6825 L52.6605,16.6725 C52.6775,16.6745 52.6935,16.6825 52.7125,16.6825 C53.5975,16.6825 54.3125,15.9655 54.3125,15.0835 C54.3125,14.1995 53.5975,13.4845 52.7125,13.4845 C52.6935,13.4845 52.6775,13.4945 52.6605,13.4945 L52.6605,13.4805 C49.9555,13.4805 47.7615,11.2895 47.7615,8.5835 C47.7615,5.8815 49.9555,3.6875 52.6605,3.6875 C52.9105,3.6875 53.1525,3.7265 53.3925,3.7625 C55.7462936,4.11840416 57.5552,6.1323634 57.5552,8.5843 L60.7562,8.5843 C60.7562,4.1123 57.1312,0.4863 52.6602,0.4863 C51.9922,0.4863 51.3492,0.5763 50.7302,0.7273 Z M53.2538578,3.56220621 C52.8937792,3.05035818 52.5051117,2.56144188 52.0898531,2.0946582 C52.505471,2.56145709 52.8941541,3.05036637 53.2538578,3.56220621 Z" id="Combined-Shape" fill="#31607C" mask="url(#mask-10)"></path>
                                    <path d="M74.0547,15.0791 C74.0547,16.7531 72.6977,18.1101 71.0217,18.1101 C69.3477,18.1101 67.9907,16.7531 67.9907,15.0791 C67.9907,13.4051 69.3477,12.0471 71.0217,12.0471 C72.6977,12.0471 74.0547,13.4051 74.0547,15.0791" id="Fill-18" fill="#C0CAD0" mask="url(#mask-10)"></path>
                                    <path d="M68.9199379,0.727515218 C65.3789692,1.59553722 62.748,4.77952223 62.748,8.5835 C62.748,13.0585 66.375,16.6825 70.848,16.6825 L70.848,16.6725 C70.865,16.6745 70.881,16.6825 70.9,16.6825 C71.783,16.6825 72.5,15.9655 72.5,15.0835 C72.5,14.1995 71.783,13.4845 70.9,13.4845 C70.881,13.4845 70.865,13.4945 70.848,13.4945 L70.848,13.4805 C68.143,13.4805 65.951,11.2895 65.951,8.5835 C65.951,5.8815 68.143,3.6875 70.848,3.6875 C71.098,3.6875 71.34,3.7265 71.58,3.7625 C73.9337936,4.11840416 75.7437,6.1323634 75.7437,8.5843 L78.9457,8.5843 C78.9457,4.1123 75.3207,0.4863 70.8477,0.4863 C70.1817,0.4863 69.5367,0.5763 68.9197,0.7273 Z M71.4413569,3.56220439 C71.0813969,3.05052023 70.6928921,2.56175311 70.278038,2.0951047 C70.6932515,2.56176838 71.0817717,3.05052845 71.4413569,3.56220439 Z" id="Combined-Shape" fill="#31607C" mask="url(#mask-10)"></path>
                                    <path d="M92.2403,15.0791 C92.2403,16.7531 90.8853,18.1101 89.2093,18.1101 C87.5353,18.1101 86.1783,16.7531 86.1783,15.0791 C86.1783,13.4051 87.5353,12.0471 89.2093,12.0471 C90.8853,12.0471 92.2403,13.4051 92.2403,15.0791" id="Fill-21" fill="#C0CAD0" mask="url(#mask-10)"></path>
                                    <path d="M87.1074379,0.727515218 C83.5664693,1.59553722 80.9375,4.77952223 80.9375,8.5835 C80.9375,13.0585 84.5625,16.6825 89.0355,16.6825 L89.0355,16.6725 C89.0545,16.6745 89.0685,16.6825 89.0875,16.6825 C89.9725,16.6825 90.6895,15.9655 90.6895,15.0835 C90.6895,14.1995 89.9725,13.4845 89.0875,13.4845 C89.0685,13.4845 89.0545,13.4945 89.0355,13.4945 L89.0355,13.4805 C86.3325,13.4805 84.1385,11.2895 84.1385,8.5835 C84.1385,5.8815 86.3325,3.6875 89.0355,3.6875 C89.2875,3.6875 89.5295,3.7265 89.7695,3.7625 C92.1232933,4.11840396 93.9312,6.13236328 93.9312,8.5843 L97.1332,8.5843 C97.1332,4.1123 93.5102,0.4863 89.0352,0.4863 C88.3692,0.4863 87.7242,0.5763 87.1072,0.7273 Z M89.6308304,3.56264855 C89.2699535,3.05078982 88.880918,2.56186283 88.4657215,2.09506847 C88.8812774,2.56187804 89.2703285,3.05079801 89.6308304,3.56264855 Z" id="Combined-Shape" fill="#31607C" mask="url(#mask-10)"></path>
                                </g>
                            </g>
                            <g id="Page-1-Copy-5" transform="translate(18.000000, 38.000000)">
                                <path d="M60,61.7577744 C54.7771373,53.0196393 45.9115216,42.4772338 41.654976,37.8028999 C41.4030835,37.5240298 41.2624488,37.1637968 41.2624488,36.7892787 L41.2624488,11.188512 C41.2624488,10.3543862 41.9431211,9.67925983 42.7819293,9.67925983 L44.9183277,9.67925983 C46.1134107,9.67925983 47.1234808,8.37869442 47.1234808,6.84025101 C47.1234808,5.3011865 46.1134107,4 44.9183277,4 L21.1091742,4 C19.9140913,4 18.9040211,5.3011865 18.9040211,6.84025101 C18.9040211,8.37869442 19.9140913,9.67925983 21.1091742,9.67925983 L23.8968678,9.67925983 C24.7363011,9.67925983 25.4157233,10.3543862 25.4157233,11.188512 L25.4157233,36.7892787 C25.4157233,37.171871 25.2707132,37.5376938 25.0094451,37.817806 C20.5941385,42.5337531 11.3509966,53.221494 6,62 C10.5803181,61.8515592 15.172512,61.7577744 19.7840822,61.7577744 L60,61.7577744 Z" id="Fill-1" fill="#F5F5F5"></path>
                                <path d="M20.8038296,62 C16.2046694,62 11.6235892,62.0969675 7.05497787,62.250446 C4.61543419,66.3995005 2.98637014,70.1349982 3.00008595,72.6811987 C3.01816588,76.0198359 4.87977524,80 13.6448007,80 C14.8711187,80 15.7027955,79.901106 15.7109003,79.9004638 C15.7682573,79.8940421 15.829355,79.8895469 15.8873355,79.8895469 L52.1126576,79.8895469 C52.171885,79.8895469 52.2311124,79.8940421 52.2915866,79.9004638 C52.2971976,79.901106 53.1288744,80 54.3551924,80 C63.1202179,80 64.9818273,76.0198359 64.9999072,72.6811987 C65.0142464,70.0829825 63.3658556,66.2466643 60.9169602,62 L20.8038296,62 Z" id="Fill-3" fill="url(#linearGradient-2)"></path>
                            </g>
                        </g>
                    </g>
                </g>
            </g>
        </g>
    </g>
</svg>