<?xml version="1.0" encoding="UTF-8"?>
<svg width="360px" height="229px" viewBox="0 0 360 229" version="1.1" xmlns="http://www.w3.org/2000/svg" xmlns:xlink="http://www.w3.org/1999/xlink">
    <!-- Generator: Sketch 41.2 (35397) - http://www.bohemiancoding.com/sketch -->
    <title>Icon</title>
    <desc>Created with Sketch.</desc>
    <defs>
        <filter x="-50%" y="-50%" width="200%" height="200%" filterUnits="objectBoundingBox" id="filter-1">
            <feOffset dx="0" dy="5" in="SourceAlpha" result="shadowOffsetOuter1"></feOffset>
            <feGaussianBlur stdDeviation="7.5" in="shadowOffsetOuter1" result="shadowBlurOuter1"></feGaussianBlur>
            <feColorMatrix values="0 0 0 0 0   0 0 0 0 0   0 0 0 0 0  0 0 0 0.2 0" type="matrix" in="shadowBlurOuter1" result="shadowMatrixOuter1"></feColorMatrix>
            <feMerge>
                <feMergeNode in="shadowMatrixOuter1"></feMergeNode>
                <feMergeNode in="SourceGraphic"></feMergeNode>
            </feMerge>
        </filter>
        <polygon id="path-2" points="47.8816873 135.429612 95.7632 135.429612 95.7632 0.540555961 0.000174545454 0.540555961 0.000174545454 135.429612"></polygon>
        <linearGradient x1="50%" y1="0%" x2="50%" y2="100%" id="linearGradient-4">
            <stop stop-color="#FFF1C0" offset="0%"></stop>
            <stop stop-color="#F6A623" offset="100%"></stop>
        </linearGradient>
        <filter x="-50%" y="-50%" width="200%" height="200%" filterUnits="objectBoundingBox" id="filter-5">
            <feOffset dx="0" dy="5" in="SourceAlpha" result="shadowOffsetOuter1"></feOffset>
            <feGaussianBlur stdDeviation="7.5" in="shadowOffsetOuter1" result="shadowBlurOuter1"></feGaussianBlur>
            <feColorMatrix values="0 0 0 0 0   0 0 0 0 0   0 0 0 0 0  0 0 0 0.2 0" type="matrix" in="shadowBlurOuter1" result="shadowMatrixOuter1"></feColorMatrix>
            <feMerge>
                <feMergeNode in="shadowMatrixOuter1"></feMergeNode>
                <feMergeNode in="SourceGraphic"></feMergeNode>
            </feMerge>
        </filter>
        <path d="M13.6363381,0.137098979 C6.12051527,0.137098979 0.0514044483,6.24140016 0.0514044483,13.7713454 L0.0514044483,85.3045906 C0.0514044483,92.8326832 6.13375115,98.9385283 13.6363381,98.9385283 L59.4860279,98.9385283 C67.0018507,98.9385283 73.0706537,92.8342271 73.0706537,85.3045906 L73.0706537,13.7713454 C73.0706537,6.24325284 66.9886149,0.137098979 59.4860279,0.137098979 L13.6363381,0.137098979 L13.6363381,0.137098979 Z" id="path-6"></path>
        <linearGradient x1="9.81934183%" y1="41.2483044%" x2="104.954081%" y2="41.2483037%" id="linearGradient-8">
            <stop stop-color="#51D5EC" offset="0%"></stop>
            <stop stop-color="#5082E3" offset="100%"></stop>
        </linearGradient>
        <path d="M0.0724129652,4.25675303 L0.0724129652,59.9634182 C0.0724129652,62.2861732 1.98331066,64.1706207 4.34044551,64.1706207 C6.71429105,64.1706207 8.60847806,62.2870908 8.60847806,59.9634182 L8.60847806,4.25675303 C8.60847806,1.93399794 6.69788982,0.0498563443 4.34044551,0.0498563443 C1.96690943,0.0498563443 0.0724129652,1.93308034 0.0724129652,4.25675303 L0.0724129652,4.25675303 Z" id="path-9"></path>
        <path d="M11.995102,0.227391076 C5.47653061,0.227391076 0.17877551,4.79343557 0.17877551,10.4261845 C0.17877551,16.0473131 5.46918367,20.6252421 11.995102,20.6252421 L77.8686735,20.6252421 C84.3872449,20.6252421 89.6853061,16.0589335 89.6853061,10.4261845 C89.6853061,4.80479192 84.394898,0.227391076 77.8686735,0.227391076 L11.995102,0.227391076 L11.995102,0.227391076 Z" id="path-11"></path>
        <polygon id="path-13" points="65.4246794 66.5411384 65.4246794 0.0853831841 0.000506951915 0.0853831841 0.000506951915 66.5411384 65.4246794 66.5411384"></polygon>
        <polygon id="path-15" points="65.4251863 0.0856406547 0.000506951915 0.0856406547 0.000506951915 66.5411384 65.4251863 66.5411384 65.4251863 0.0856406547"></polygon>
        <linearGradient x1="50%" y1="0%" x2="50%" y2="100%" id="linearGradient-17">
            <stop stop-color="#FFFFFF" offset="0%"></stop>
            <stop stop-color="#E3E3E3" offset="100%"></stop>
        </linearGradient>
        <filter x="-50%" y="-50%" width="200%" height="200%" filterUnits="objectBoundingBox" id="filter-18">
            <feOffset dx="0" dy="2" in="SourceAlpha" result="shadowOffsetOuter1"></feOffset>
            <feGaussianBlur stdDeviation="5" in="shadowOffsetOuter1" result="shadowBlurOuter1"></feGaussianBlur>
            <feColorMatrix values="0 0 0 0 0   0 0 0 0 0   0 0 0 0 0  0 0 0 0.1 0" type="matrix" in="shadowBlurOuter1" result="shadowMatrixOuter1"></feColorMatrix>
            <feMerge>
                <feMergeNode in="shadowMatrixOuter1"></feMergeNode>
                <feMergeNode in="SourceGraphic"></feMergeNode>
            </feMerge>
        </filter>
        <linearGradient x1="50%" y1="15.3957201%" x2="100%" y2="50%" id="linearGradient-19">
            <stop stop-color="#FA5D5D" offset="0%"></stop>
            <stop stop-color="#F74141" offset="100%"></stop>
        </linearGradient>
        <rect id="path-20" x="0" y="1.77635684e-15" width="56" height="26" rx="13"></rect>
    </defs>
    <g id="Website" stroke="none" stroke-width="1" fill="none" fill-rule="evenodd">
        <g id="Outcomes" transform="translate(-214.000000, -4340.000000)">
            <g id="Section-06" transform="translate(150.000000, 4091.000000)">
                <g id="Icon" transform="translate(64.000000, 249.000000)">
                    <path d="M80.0090126,97.7296746 C82.0822162,85.363028 86.3314695,73.6547933 92.3867041,62.9445405 L85.4412917,62.9445405 C75.8364287,62.9445405 68.0501487,55.1597335 68.0501487,45.5519701 C68.0501487,35.9463187 75.8341384,28.1593997 85.4412917,28.1593997 L122.788439,28.1593997 C144.274533,11.617674 171.980554,1.65643528 202.222108,1.65643528 C203.615586,1.65643528 205.003682,1.67758505 206.386033,1.71955385 C206.877969,1.6777599 207.375759,1.65643528 207.878547,1.65643528 L288.631282,1.65643528 C298.235675,1.65643528 306.021573,9.44124227 306.021573,19.0490057 C306.021573,22.2148328 305.176226,25.1831043 303.698789,27.7401599 L332.738326,27.7401599 C342.342064,27.7401599 350.127432,35.5249668 350.127432,45.1327303 C350.127432,54.7383817 342.343398,62.5253007 332.738326,62.5253007 L311.819273,62.5253007 C318.096215,73.5150847 322.467476,85.565464 324.53031,98.3068823 C326.94318,91.5976699 333.363455,86.799855 340.900107,86.799855 L342.222018,86.799855 C351.826871,86.799855 359.613143,94.584662 359.613143,104.192425 C359.613143,113.798077 351.823528,121.584996 342.222018,121.584996 L340.900107,121.584996 C334.477561,121.584996 328.868156,118.104182 325.856141,112.925058 C325.871266,113.655786 325.878862,114.388205 325.878862,115.122252 C325.878862,122.260039 325.160587,129.24389 323.786742,136.016268 L342.100363,136.016268 C351.710124,136.016268 359.500375,143.801075 359.500375,153.408838 C359.500375,163.014489 351.711806,170.801408 342.100363,170.801408 L309.991919,170.801408 C288.779304,205.296696 248.464998,228.588068 202.222108,228.588068 C167.211565,228.588068 135.5993,215.237406 113.102076,193.781709 L46.4361749,193.781709 C37.8962976,193.781709 30.9733591,186.86188 30.9733591,178.321646 C30.9733591,170.057354 37.4633484,163.307596 45.6194258,162.882802 L108.391825,162.882802 C116.932585,162.882802 123.849659,155.961096 123.849659,147.42274 C123.849659,140.305914 119.04366,134.314358 112.501228,132.514822 L68.8783426,132.514822 C59.2734972,132.514822 51.4872317,124.730015 51.4872317,115.122252 C51.4872317,105.5166 59.273748,97.7296813 68.8783426,97.7296813 L80.0090115,97.7296813 Z M-5.68434189e-14,115.417121 C-5.68434189e-14,107.025371 6.81212784,100.222513 15.1937007,100.222513 L20.9104612,100.222513 C29.3017104,100.222513 36.1041619,107.023526 36.1041619,115.417121 C36.1041619,123.808872 29.2920341,130.611729 20.9104612,130.611729 L15.1937007,130.611729 C6.80245151,130.611729 -5.68434189e-14,123.810717 -5.68434189e-14,115.417121 Z M82.1757693,9.93861166 C82.1757693,4.44966801 86.6209394,0 92.113046,0 L108.342655,0 C113.830861,0 118.279931,4.44846114 118.279931,9.93861166 C118.279931,15.4275553 113.834761,19.8772233 108.342655,19.8772233 L92.113046,19.8772233 C86.6248396,19.8772233 82.1757693,15.4287622 82.1757693,9.93861166 Z" id="Combined-Shape-Copy-4" fill="#E9D386" opacity="0.0700000003"></path>
                    <g id="Group-13" transform="translate(102.000000, 33.000000)">
                        <g id="Group-17" filter="url(#filter-1)" transform="translate(18.000000, 0.000000)">
                            <g id="Page-1">
                                <g id="Group-3" transform="translate(0.000000, 16.524156)">
                                    <mask id="mask-3" fill="white">
                                        <use xlink:href="#path-2"></use>
                                    </mask>
                                    <g id="Clip-2"></g>
                                    <path d="M88.7245382,135.429612 L7.03842909,135.429612 C3.15130182,135.429612 0.000174545454,132.2816 0.000174545454,128.397734 L0.000174545454,7.5724334 C0.000174545454,3.68914913 3.15130182,0.540555961 7.03842909,0.540555961 L88.7245382,0.540555961 C92.6116655,0.540555961 95.7633745,3.68914913 95.7633745,7.5724334 L95.7633745,128.397734 C95.7633745,132.2816 92.6116655,135.429612 88.7245382,135.429612" id="Fill-1" fill="url(#linearGradient-4)" mask="url(#mask-3)"></path>
                                </g>
                                <polygon id="Fill-4" fill="#FFFFFF" points="5.93338182 147.617114 90.3226182 147.617114 90.3226182 23.35783 5.93338182 23.35783"></polygon>
                                <path d="M67.8971345,29.9698756 L28.3590982,29.9698756 C25.0229527,29.9698756 22.3186618,27.267677 22.3186618,23.9348299 L22.3186618,17.3336535 C22.3186618,14.000225 25.0229527,11.2986077 28.3590982,11.2986077 L67.8971345,11.2986077 C71.23328,11.2986077 73.9381527,14.000225 73.9381527,17.3336535 L73.9381527,23.9348299 C73.9381527,27.267677 71.23328,29.9698756 67.8971345,29.9698756" id="Fill-8" fill="#3A495D"></path>
                                <path d="M56.5217164,8.38576669 C56.5217164,3.75500395 52.7643345,0.00017437289 48.1278255,0.00017437289 C43.4918982,0.00017437289 39.7345164,3.75500395 39.7345164,8.38576669 C39.7345164,13.0165294 43.4918982,16.7707778 48.1278255,16.7707778 C52.7643345,16.7707778 56.5217164,13.0165294 56.5217164,8.38576669" id="Fill-9" fill="#3A495D"></path>
                                <path d="M52.3325091,8.38576669 C52.3325091,6.066026 50.4509091,4.18570499 48.1282909,4.18570499 C45.8062545,4.18570499 43.9240727,6.066026 43.9240727,8.38576669 C43.9240727,10.7049261 45.8062545,12.5858284 48.1282909,12.5858284 C50.4509091,12.5858284 52.3325091,10.7049261 52.3325091,8.38576669" id="Fill-10" fill="#56AFC0"></path>
                                <polygon id="Fill-11" fill="#2D3F51" points="22.3185455 29.97005 73.9380364 29.97005 73.9380364 22.9974593 22.3185455 22.9974593"></polygon>
                                <g id="Group-4" transform="translate(17.454545, 44.174466)">
                                    <polygon id="Stroke-13" stroke="#F0F0F0" stroke-width="3" points="1.14909091 12.2514393 11.8708364 12.2514393 11.8708364 1.54029387 1.14909091 1.54029387"></polygon>
                                    <polygon id="Fill-16" fill="#F1F1F1" points="18.9422545 4.85570376 60.5829818 4.85570376 60.5829818 0.497543982 18.9422545 0.497543982"></polygon>
                                    <polygon id="Fill-17" fill="#F1F1F1" points="18.9422545 12.9931053 60.5829818 12.9931053 60.5829818 8.63494555 18.9422545 8.63494555"></polygon>
                                    <polygon id="Fill-17" fill="#F1F1F1" points="0 24.6179647 60.5829818 24.6179647 60.5829818 20.2598049 0 20.2598049"></polygon>
                                    <polygon id="Fill-17" fill="#F1F1F1" points="0 36.2428241 60.5829818 36.2428241 60.5829818 31.8846643 0 31.8846643"></polygon>
                                </g>
                                <g id="Group-4" transform="translate(17.454545, 90.673903)">
                                    <polygon id="Stroke-13" stroke="#F0F0F0" stroke-width="3" points="1.14909091 12.2514393 11.8708364 12.2514393 11.8708364 1.54029387 1.14909091 1.54029387"></polygon>
                                    <polygon id="Fill-16" fill="#F1F1F1" points="18.9422545 4.85570376 60.5829818 4.85570376 60.5829818 0.497543982 18.9422545 0.497543982"></polygon>
                                    <polygon id="Fill-17" fill="#F1F1F1" points="18.9422545 12.9931053 60.5829818 12.9931053 60.5829818 8.63494555 18.9422545 8.63494555"></polygon>
                                    <polygon id="Fill-17" fill="#F1F1F1" points="0 24.6179647 60.5829818 24.6179647 60.5829818 20.2598049 0 20.2598049"></polygon>
                                    <polygon id="Fill-17" fill="#F1F1F1" points="0 36.2428241 60.5829818 36.2428241 60.5829818 31.8846643 0 31.8846643"></polygon>
                                </g>
                            </g>
                            <path d="M30.9629054,44.8528999 C30.7125645,44.6110772 30.3019662,44.6110772 30.0514621,44.8528999 L21.9672783,52.6573925 C21.7167742,52.8992152 21.3063392,52.8992152 21.055835,52.6573925 L19.0646946,50.7354141 C18.8141904,50.4935914 18.4037554,50.4935914 18.1532513,50.7354141 L16.9320641,51.9149102 C16.68156,52.1567329 16.68156,52.552944 16.9320641,52.7947667 L21.055835,56.7748374 C21.3063392,57.0166601 21.7167742,57.0166601 21.9672783,56.7748374 L32.1840925,46.9116223 C32.4347598,46.6696421 32.4347598,46.2735885 32.1840925,46.0316083 L30.9629054,44.8528999 L30.9629054,44.8528999 Z" id="Shape" fill="#FF4069"></path>
                        </g>
                        <g id="Page-1" filter="url(#filter-5)" transform="translate(91.000000, 48.000000)">
                            <g id="Group-3" transform="translate(8.888889, 6.687500)">
                                <mask id="mask-7" fill="white">
                                    <use xlink:href="#path-6"></use>
                                </mask>
                                <g id="Clip-2"></g>
                                <polygon id="Fill-1" fill="url(#linearGradient-8)" mask="url(#mask-7)" points="-8.43894823 107.455957 81.5613142 107.455957 81.5613142 -8.38002072 -8.43894823 -8.38002072"></polygon>
                            </g>
                            <polygon id="Fill-4" fill="#FFFBCB" points="8.88888889 85.8229167 81.1111111 85.8229167 81.1111111 40.125 8.88888889 40.125"></polygon>
                            <g id="Group-7" opacity="0.900000036" transform="translate(14.444444, 30.093750)">
                                <mask id="mask-10" fill="white">
                                    <use xlink:href="#path-9"></use>
                                </mask>
                                <g id="Clip-6"></g>
                                <polygon id="Fill-5" fill="#FFFFFF" mask="url(#mask-10)" points="-8.46334267 72.60766 17.1445432 72.60766 17.1445432 -8.38718292 -8.46334267 -8.38718292"></polygon>
                            </g>
                            <g id="Group-12" transform="translate(10.000000, 4.458333)">
                                <path d="M4.414839,13.7130926 C6.73781248,13.7130926 8.621016,10.6715536 8.621016,6.9198091 C8.621016,3.16806457 6.73781248,0.12652556 4.414839,0.12652556 C2.09186552,0.12652556 0.208662,3.16806457 0.208662,6.9198091 C0.208662,10.6715536 2.09186552,13.7130926 4.414839,13.7130926 L4.414839,13.7130926 Z" id="Stroke-8" stroke="#FFFFFF"></path>
                                <path d="M64.6015051,86.5806096 C64.6015051,95.110772 58.5886726,102.025963 51.1421657,102.025963 L57.5465825,102.025963 C64.9930895,102.025963 71.005922,95.9401148 71.005922,88.4329315 L71.005922,17.11623 C71.005922,12.2229848 68.4438503,7.93435323 64.6015051,5.54052657 L64.6015051,5.54575999 L64.6015051,86.5806096 Z" id="Fill-10" fill-opacity="0.1" fill="#212121"></path>
                            </g>
                            <g id="Group-18" transform="translate(10.000000, 4.458333)"></g>
                            <g id="Group">
                                <g id="Group-15" transform="translate(0.000000, 0.190945)">
                                    <mask id="mask-12" fill="white">
                                        <use xlink:href="#path-11"></use>
                                    </mask>
                                    <g id="Clip-14"></g>
                                    <polygon id="Fill-13" fill="#FCFBF0" mask="url(#mask-12)" points="-8.26530612 27.9099437 98.1293878 27.9099437 98.1293878 -7.05757458 -8.26530612 -7.05757458"></polygon>
                                </g>
                                <path d="M77.8994694,0.313488045 L72.4232449,0.313488045 C78.9494694,0.313488045 84.2398776,4.89115299 84.2398776,10.5122815 C84.2398776,16.1450305 78.9418163,20.7113391 72.4232449,20.7113391 L77.8994694,20.7113391 C84.4180408,20.7113391 89.716102,16.1450305 89.716102,10.5122815 C89.716102,4.89115299 84.4256939,0.313488045 77.8994694,0.313488045" id="Fill-19" fill="#F5F4EB"></path>
                            </g>
                        </g>
                        <g id="Page-1" transform="translate(156.000000, 95.000000)">
                            <g id="Group-3" transform="translate(5.546875, 4.437500)">
                                <mask id="mask-14" fill="white">
                                    <use xlink:href="#path-13"></use>
                                </mask>
                                <g id="Clip-2"></g>
                                <path d="M63.8480026,30.5064084 C63.8480026,48.8576305 49.2021618,63.734286 31.1356629,63.734286 C13.069164,63.734286 -1.57667678,48.8576305 -1.57667678,30.5064084 C-1.57667678,12.1551862 13.069164,-2.72146923 31.1356629,-2.72146923 C49.2021618,-2.72146923 63.8480026,12.1551862 63.8480026,30.5064084" id="Fill-1" fill="#414141" opacity="0.100000001" mask="url(#mask-14)"></path>
                            </g>
                            <g id="Group-6">
                                <mask id="mask-16" fill="white">
                                    <use xlink:href="#path-15"></use>
                                </mask>
                                <g id="Clip-5"></g>
                                <path d="M65.4251863,33.3132608 C65.4251863,51.6644829 50.7793455,66.5411384 32.7128466,66.5411384 C14.6463478,66.5411384 0.000506951915,51.6644829 0.000506951915,33.3132608 C0.000506951915,14.9620386 14.6463478,0.0853831841 32.7128466,0.0853831841 C50.7793455,0.0853831841 65.4251863,14.9620386 65.4251863,33.3132608" id="Fill-4" fill="url(#linearGradient-17)" mask="url(#mask-16)"></path>
                            </g>
                            <path d="M50.8880073,17.8932427 L50.8880073,17.8932427 C49.2178505,16.2230858 46.5084287,16.2230858 44.8382718,17.8932427 L17.8932427,44.8382718 C16.2230858,46.5084287 16.2230858,49.2165861 17.8932427,50.8880073 L17.8932427,50.8880073 C19.5646639,52.5581642 22.2728213,52.5581642 23.9429782,50.8880073 L50.8880073,23.9429782 C52.5581642,22.2728213 52.5581642,19.5633995 50.8880073,17.8932427" id="Fill-7" fill-opacity="0.5" fill="#FFFFFF"></path>
                            <path d="M48.6692573,15.6744927 L48.6692573,15.6744927 C46.9991005,14.0043358 44.2896787,14.0043358 42.6195218,15.6744927 L15.6744927,42.6195218 C14.0043358,44.2896787 14.0043358,46.9978361 15.6744927,48.6692573 L15.6744927,48.6692573 C17.3459139,50.3394142 20.0540713,50.3394142 21.7242282,48.6692573 L48.6692573,21.7242282 C50.3394142,20.0540713 50.3394142,17.3446495 48.6692573,15.6744927" id="Fill-9" fill="#E3E3E3"></path>
                            <path d="M17.7827986,17.7827986 C15.5031915,20.0624058 12.3983591,20.6543343 10.8484247,19.1056409 C9.29849041,17.5557066 9.89041889,14.4508742 12.1700261,12.1700261 C14.4508742,9.89041889 17.5557066,9.29849041 19.1056409,10.8484247 C20.6543343,12.3983591 20.0624058,15.5031915 17.7827986,17.7827986" id="Fill-11" fill="#FFFFFF"></path>
                        </g>
                        <g id="Group-21" filter="url(#filter-18)" transform="translate(13.000000, 126.000000) rotate(-90.000000) translate(-13.000000, -126.000000) translate(-15.000000, 113.000000)">
                            <mask id="mask-21" fill="white">
                                <use xlink:href="#path-20"></use>
                            </mask>
                            <use id="Rectangle-56" fill="url(#linearGradient-19)" xlink:href="#path-20"></use>
                            <rect id="Rectangle-56-Copy" fill="#F7F7F7" mask="url(#mask-21)" x="0" y="1.77635684e-15" width="28" height="26" rx="13"></rect>
                            <rect id="Rectangle-2" fill="#FFFFFF" mask="url(#mask-21)" transform="translate(48.569172, 6.217018) rotate(31.000000) translate(-48.569172, -6.217018) " x="45.5691721" y="3.88052085" width="6" height="4.6729944" rx="2.3364972"></rect>
                        </g>
                    </g>
                </g>
            </g>
        </g>
    </g>
</svg>