<?xml version="1.0" encoding="UTF-8"?>
<svg width="128px" height="95px" viewBox="0 0 128 95" version="1.1" xmlns="http://www.w3.org/2000/svg" xmlns:xlink="http://www.w3.org/1999/xlink">
    <!-- Generator: Sketch 41.2 (35397) - http://www.bohemiancoding.com/sketch -->
    <title>Icon</title>
    <desc>Created with Sketch.</desc>
    <defs>
        <linearGradient x1="50%" y1="0%" x2="50%" y2="100%" id="linearGradient-1">
            <stop stop-color="#FFF5EB" offset="0%"></stop>
            <stop stop-color="#FFE7D1" offset="100%"></stop>
        </linearGradient>
        <linearGradient x1="50%" y1="0%" x2="50%" y2="100%" id="linearGradient-2">
            <stop stop-color="#806262" offset="0%"></stop>
            <stop stop-color="#493333" offset="100%"></stop>
        </linearGradient>
        <linearGradient x1="50%" y1="0%" x2="50%" y2="100%" id="linearGradient-3">
            <stop stop-color="#FD8383" offset="0%"></stop>
            <stop stop-color="#FA4C4C" offset="100%"></stop>
        </linearGradient>
    </defs>
    <g id="Website" stroke="none" stroke-width="1" fill="none" fill-rule="evenodd">
        <g id="Outcomes" transform="translate(-786.000000, -5042.000000)">
            <g id="Section-07" transform="translate(-74.000000, 4740.000000)">
                <g id="Card-03" transform="translate(793.000000, 265.000000)">
                    <g id="Icon" transform="translate(67.000000, 37.000000)">
                        <g id="Group-41" transform="translate(0.000000, 2.000000)">
                            <circle id="Oval-15-Copy" fill="url(#linearGradient-1)" cx="45.5" cy="58.5" r="34.5"></circle>
                            <ellipse id="Oval-20" fill="#FFEEDE" cx="80" cy="62.5" rx="4" ry="6.5"></ellipse>
                            <ellipse id="Oval-20" fill="#FFEEDE" cx="11" cy="62.5" rx="4" ry="6.5"></ellipse>
                            <ellipse id="Oval-17" fill="#F8D8BB" cx="46.5" cy="78.5" rx="2.5" ry="2.5"></ellipse>
                            <g id="Group-40" transform="translate(40.000000, 65.000000)" fill="#717171">
                                <ellipse id="Oval-16" cx="1.90909091" cy="3.5" rx="1.90909091" ry="3.5"></ellipse>
                                <ellipse id="Oval-16-Copy" cx="10.0909091" cy="3.5" rx="1.90909091" ry="3.5"></ellipse>
                            </g>
                            <path d="M74.5692487,21.1280511 C80.165359,22.2695547 84.3786982,27.2619385 84.3786982,33.2477477 C84.3786982,34.0015088 84.3118872,34.739517 84.1839173,35.4560667 C88.7577112,37.2491141 92,41.7355652 92,46.9864865 C92,53.8154128 86.5161505,59.3513514 79.7514793,59.3513514 C74.7239789,59.3513514 70.4039347,56.2936005 68.5167018,51.9198424 C66.8284032,52.8056911 64.9099838,53.3063063 62.8757396,53.3063063 C56.8963791,53.3063063 51.9177206,48.9810947 50.8423588,43.260837 C48.6597675,46.6605844 44.8681977,48.9099099 40.556213,48.9099099 C39.5650088,48.9099099 38.6013039,48.7910531 37.6783207,48.5666874 C35.4360448,51.4523286 31.9502465,53.3063063 28.035503,53.3063063 C27.2888343,53.3063063 26.5577702,53.2388607 25.8479626,53.1096752 C24.0717865,57.7269139 19.6275496,61 14.4260355,61 C7.66136431,61 2.17751479,55.4640614 2.17751479,48.6351351 C2.17751479,47.3326065 2.37702045,46.0771176 2.74686645,44.8981106 C1.02959845,42.7698162 0,40.0535853 0,37.0945946 C0,30.3483849 5.35180591,24.8640295 12.0032771,24.7321588 C11.9854076,24.4589048 11.9763314,24.1832251 11.9763314,23.9054054 C11.9763314,17.0764791 17.4601809,11.5405405 24.2248521,11.5405405 C25.6566535,11.5405405 27.0310748,11.7885473 28.3082622,12.2443282 C28.3723391,5.47091461 33.8313874,0 40.556213,0 C47.3208842,0 52.8047337,5.53593857 52.8047337,12.3648649 C52.8047337,12.5263395 52.8016676,12.6870913 52.7955909,12.847064 C55.0409098,10.0391857 58.4783764,8.24324324 62.3313609,8.24324324 C69.0960321,8.24324324 74.5798817,13.7791818 74.5798817,20.6081081 C74.5798817,20.7822871 74.5763141,20.9556249 74.5692487,21.1280511 Z" id="Combined-Shape" fill="#493333"></path>
                            <path d="M73.5908072,19.9537144 C78.9060593,21.0811683 82.8944099,25.8054523 82.8944099,31.4622642 C82.8944099,32.2262015 82.8216713,32.9731316 82.682749,33.6964924 C86.9748871,35.4484827 90,39.6677559 90,44.5943396 C90,51.0915008 84.7386506,56.3584906 78.2484472,56.3584906 C73.5682751,56.3584906 69.5271125,53.6196326 67.637073,49.6556513 C66.0595914,50.4435635 64.2802589,50.8867925 62.3975155,50.8867925 C56.6479008,50.8867925 51.8626949,46.753241 50.8454922,41.2927381 C48.7363011,44.4388628 45.1500682,46.509434 41.0807453,46.509434 C40.1713511,46.509434 39.2860829,46.4060269 38.4360341,46.2103178 C36.2907587,49.0510983 32.8874747,50.8867925 29.0559006,50.8867925 C28.2927814,50.8867925 27.5466511,50.8139758 26.824065,50.6749046 C25.0739509,54.971644 20.859196,58 15.9378882,58 C9.4476848,58 4.1863354,52.7330102 4.1863354,46.2358491 C4.1863354,45.0378824 4.36520614,43.8817381 4.69766994,42.7927208 C3.01273816,40.7566958 2,38.14297 2,35.2924528 C2,28.8772323 7.12947655,23.6613495 13.5065887,23.530807 C13.4878074,23.2588272 13.4782609,22.9843032 13.4782609,22.7075472 C13.4782609,16.210386 18.7396103,10.9433962 25.2298137,10.9433962 C26.6717731,10.9433962 28.0530744,11.2033834 29.3294933,11.6790864 C29.3751772,5.22107974 34.61889,0 41.0807453,0 C47.5709487,0 52.8322981,5.26698978 52.8322981,11.7641509 C52.8322981,11.8036683 52.8321035,11.8431401 52.8317151,11.8825655 C54.9873908,9.30189576 58.2276679,7.66037736 61.8509317,7.66037736 C68.3411351,7.66037736 73.6024845,12.9273671 73.6024845,19.4245283 C73.6024845,19.6018675 73.5985647,19.7782903 73.5908072,19.9537144 Z" id="Combined-Shape-Copy-6" fill="url(#linearGradient-2)"></path>
                        </g>
                        <g id="Group-35" transform="translate(84.000000, 0.000000)">
                            <path d="M22,37 C21.0070667,37 20.0442,36.6419451 19.2866667,35.9904634 C19.2859333,35.9897205 8.9188,27.0636042 5.11646667,23.7601389 C1.7688,20.8540997 0,17.2245222 0,13.2651181 C0,5.95024896 5.87473333,0 13.0951333,0 C16.3995333,0 19.5858667,1.27696354 22,3.50106409 C24.4134,1.27696354 27.5997333,0 30.9048667,0 C38.126,0 44,5.95024896 44,13.2651181 C44,17.2237793 42.2319333,20.8518712 38.8857333,23.7593961 C35.0819333,27.0636042 24.7133333,35.9897205 24.7133333,35.9897205 C23.958,36.6412022 22.9929333,37 22,37 Z" id="Shape" fill="url(#linearGradient-3)"></path>
                            <ellipse id="Oval-12" fill="#FFFFFF" transform="translate(37.000000, 7.500000) rotate(36.000000) translate(-37.000000, -7.500000) " cx="37" cy="7.5" rx="3" ry="1.5"></ellipse>
                            <path d="M21,36.8998823 C21.2963815,36.965997 21.6007809,37 21.9080475,37 C22.905131,37 23.8742313,36.6412022 24.6327217,35.9897205 C24.6327217,35.9897205 35.0446589,27.0636042 38.8643575,23.7593961 C42.2245434,20.8518712 44,17.2237793 44,13.2651181 C44,5.95024896 38.1014487,0 30.8501335,0 C30.5477278,0 30.2463125,0.0106012646 29.9463844,0.0315543032 C36.7738399,0.505518937 42.1842231,6.25947687 42.1842231,13.2651181 C42.1842231,17.2237793 40.4087665,20.8518712 37.0485805,23.7593961 C33.228882,27.0636042 22.8169448,35.9897205 22.8169448,35.9897205 C22.2919969,36.4406081 21.6661677,36.7513012 21,36.8998823 Z" id="Combined-Shape" fill-opacity="0.100000001" fill="#000000" style="mix-blend-mode: multiply;"></path>
                        </g>
                    </g>
                </g>
            </g>
        </g>
    </g>
</svg>