<?xml version="1.0" encoding="UTF-8"?>
<svg width="75px" height="75px" viewBox="0 0 75 75" version="1.1" xmlns="http://www.w3.org/2000/svg" xmlns:xlink="http://www.w3.org/1999/xlink">
    <!-- Generator: Sketch 41.2 (35397) - http://www.bohemiancoding.com/sketch -->
    <title>Icon</title>
    <desc>Created with Sketch.</desc>
    <defs>
        <linearGradient x1="50%" y1="0%" x2="50%" y2="100%" id="linearGradient-1">
            <stop stop-color="#FFEDB3" offset="0%"></stop>
            <stop stop-color="#FFD77B" offset="100%"></stop>
        </linearGradient>
        <circle id="path-2" cx="37.5" cy="37.5" r="37.5"></circle>
        <mask id="mask-3" maskContentUnits="userSpaceOnUse" maskUnits="objectBoundingBox" x="0" y="0" width="75" height="75" fill="white">
            <use xlink:href="#path-2"></use>
        </mask>
    </defs>
    <g id="Website" stroke="none" stroke-width="1" fill="none" fill-rule="evenodd">
        <g id="Outcomes" transform="translate(-521.000000, -5059.000000)">
            <g id="Section-07" transform="translate(-74.000000, 4740.000000)">
                <g id="Card-02" transform="translate(501.000000, 270.000000)">
                    <g id="Icon" transform="translate(94.000000, 49.000000)">
                        <use id="Oval-2" stroke="#FFF4E0" mask="url(#mask-3)" stroke-width="10" fill="url(#linearGradient-1)" xlink:href="#path-2"></use>
                        <ellipse id="Oval-4" fill="#FFFFFF" transform="translate(52.831345, 19.072404) rotate(30.000000) translate(-52.831345, -19.072404) " cx="52.8313448" cy="19.0724041" rx="7.5" ry="3"></ellipse>
                        <path d="M26.56,36 C26.149,36 25.748,36.166 25.457,36.457 C25.167,36.747 25,37.149 25,37.56 L25,37.623 L25,37.856 L25,37.919 C25,38.33 25.167,38.731 25.457,39.022 C25.748,39.312 26.149,39.479 26.56,39.479 C26.971,39.479 27.372,39.312 27.663,39.022 C27.953,38.731 28.12,38.33 28.12,37.919 L28.12,37.856 L28.12,37.623 L28.12,37.56 C28.12,37.149 27.953,36.748 27.663,36.457 C27.372,36.166 26.971,36 26.56,36 Z" id="Shape" fill="#9E823C"></path>
                        <path d="M49.119,37.56 C49.119,37.149 48.953,36.748 48.663,36.457 C48.373,36.166 47.971,36 47.56,36 C47.149,36 46.748,36.166 46.457,36.457 C46.166,36.748 46,37.149 46,37.56 L46,37.575 L46,37.623 L46,37.856 L46,37.919 C46,38.329 46.167,38.731 46.457,39.021 C46.747,39.312 47.149,39.478 47.56,39.478 C47.971,39.478 48.372,39.311 48.663,39.021 C48.953,38.731 49.119,38.329 49.119,37.919 L49.119,37.856 L49.119,37.739 L49.119,37.632 C49.119,37.629 49.12,37.626 49.12,37.622 L49.119,37.56 Z" id="Shape" fill="#9E823C"></path>
                        <path d="M43.712381,41.3789582 C42.955381,40.9679582 42.009381,41.2489582 41.599381,42.0059582 C41.179381,42.7739582 40.645381,43.2699582 40.026381,43.6099582 C39.408381,43.9459582 38.688381,44.1119582 37.945381,44.1119582 C37.068381,44.1139582 36.169381,43.8729582 35.458381,43.4679582 C34.741381,43.0649582 34.232381,42.5169582 33.993381,41.9479582 C33.656381,41.1559582 32.740381,40.7879582 31.948381,41.1249582 C31.156381,41.4629582 30.787381,42.3789582 31.125381,43.1709582 C31.694381,44.4989582 32.728381,45.5069582 33.926381,46.1839582 C35.130381,46.8609582 36.521381,47.2269582 37.946381,47.2299582 C39.149381,47.2299582 40.384381,46.9619582 41.512381,46.3509582 C42.640381,45.7439582 43.646381,44.7789582 44.340381,43.4929582 C44.750381,42.7359582 44.469381,41.7899582 43.712381,41.3789582 Z" id="Shape" fill="#9E823C"></path>
                    </g>
                </g>
            </g>
        </g>
    </g>
</svg>